{
.appVersion = "3343";
.formatVersion = 3;
DisplayStrings = (
"AaB­"
);
axes = (
{
name = Weight;
tag = wght;
}
);
classes = (
{
automatic = 1;
code = "A Aacute Abreve Abreveacute Abrevedotbelow Abrevegrave Abrevehookabove Abrevetilde Acaron Acircumflex Acircumflexacute Acircumflexdotbelow Acircumflexgrave Acircumflexhookabove Acircumflextilde Adieresis Adotbelow Agrave Ahookabove Amacron Aogonek Aring Atilde AE B C Cacute Ccaron Ccedilla Cdotaccent D Dcaron Dcroat Eth E Eacute Ecaron Ecircumflex Ecircumflexacute Ecircumflexdotbelow Ecircumflexgrave Ecircumflexhookabove Ecircumflextilde Edieresis Edotaccent Edotbelow Egrave Ehookabove Emacron Eogonek Etilde F G Gbreve Gcommaaccent Gdotaccent H Hbar I Iacute Icircumflex Idieresis Idotaccent Idotbelow Igrave Ihookabove Imacron Iogonek Itilde J K Kcommaaccent L Lacute Lcaron Lcommaaccent Lslash M N Nacute Ncaron Ncommaaccent Ntilde Eng O Oacute Ocircumflex Ocircumflexacute Ocircumflexdotbelow Ocircumflexgrave Ocircumflexhookabove Ocircumflextilde Odieresis Odotbelow Ograve Ohookabove Ohorn Ohornacute Ohorndotbelow Ohorngrave Ohornhookabove Ohorntilde Ohungarumlaut Omacron Oslash Otilde OE P Thorn Q R Racute Rcaron Rcommaaccent S Sacute Scaron Scedilla Scommaaccent Germandbls T Tbar Tcaron Tcedilla Tcommaaccent U Uacute Ubreve Ucircumflex Udieresis Udotbelow Ugrave Uhookabove Uhorn Uhornacute Uhorndotbelow Uhorngrave Uhornhookabove Uhorntilde Uhungarumlaut Umacron Uogonek Uring Utilde V W Wacute Wcircumflex Wdieresis Wgrave X Y Yacute Ycircumflex Ydieresis Ydotbelow Ygrave Yhookabove Ytilde Z Zacute Zcaron Zdotaccent";
name = Uppercase;
}
);
customParameters = (
{
name = "Instance Preview";
value = (
A,
a,
B,
b,
C,
c,
"0",
"1",
"2",
"3"
);
},
{
name = fsType;
value = (
);
},
{
name = "Family Alignment Zones";
value = (
{
pos = 700;
size = 20;
},
{
pos = 470;
size = 10;
},
{
pos = 0;
size = -10;
},
{
pos = -200;
size = -10;
}
);
},
{
name = "Use Typo Metrics";
value = 1;
},
{
name = "EditView Line Height";

glyphs = (
{
glyphname = A;
kernLeft = A;
kernRight = A;
lastChange = "2025-08-05 14:54:57 +0000";
layers = (
{
anchors = (
{
name = bottom;
pos = (315,0);
},
{
name = ogonek;
pos = (605,0);
},
{
name = top;
pos = (315,700);
}
);
layerId = "7A502162-43D8-4289-B728-53226767971B";
shapes = (
{
closed = 1;
nodes = (
(48,0,l),
(320,675,l),
(311,675,l),
(581,0,l),
(612,0,l),
(330,700,l),
(299,700,l),
(18,0,l)
);
},
{
closed = 1;
nodes = (
(506,219,l),
(494,247,l),
(136,247,l),
(124,219,l)
);
}
);
width = 629;
},
{
anchors = (
{
name = bottom;
pos = (358,0);
},
{
name = ogonek;
pos = (594,0);
},
{
name = top;
pos = (360,700);
}
);
hints = (
{
horizontal = 1;
origin = (0,7);
target = up;
type = BottomGhost;
},
{
horizontal = 1;
origin = (1,3);
target = (1,2);
type = Stem;
},
{
horizontal = 1;
origin = (0,6);
target = (0,2);
type = Stem;
}
);
layerId = "413C4000-F51E-49A0-99E6-BF5D502A191B";
shapes = (
{
closed = 1;
nodes = (
(214,0,l),
(372,538,l),
(346,538,l),
(503,0,l),
(724,0,l),
(495,700,l),
(224,700,l),
(-7,0,l)
);
},
{
closed = 1;
nodes = (
(611,125,l),
(542,304,l),
(179,304,l),
(112,125,l)
);
}
);
width = 718;
},
{
anchors = (
{
name = bottom;
pos = (346,0);
},
{
name = ogonek;
pos = (598,0);
},
{
name = top;
pos = (347,700);
}
);
hints = (
{
horizontal = 1;
origin = (0,7);
target = up;
type = BottomGhost;
},
{
horizontal = 1;
origin = (1,3);
target = (1,2);
type = Stem;
},
{
horizontal = 1;
origin = (0,6);
target = (0,1,0,3);
type = Stem;
}
);
layerId = "9E4DF390-DC64-4DFF-9707-6073A03EA565";
shapes = (
{
closed = 1;
nodes = (
(165,0,l),
(357,579,l),
(336,579,l),
(527,0,l),
(691,0,l),
(446,700,l),
(247,700,l),
(1,0,l)
);
},
{
closed = 1;
nodes = (
(580,153,l),
(528,287,l),
(167,287,l),
(116,153,l)
);
}
);
width = 693;
}
);
unicode = 65;
},
{
glyphname = AE;
kernRight = E;
lastChange = "2025-08-05 14:54:50 +0000";
layers = (
{
layerId = "7A502162-43D8-4289-B728-53226767971B";
shapes = (
{
closed = 1;
nodes = (
(22,0,l),
(482,675,l),
(475,678,l),
(475,103,ls),
(475,44,o),
(519,0,o),
(578,0,cs),
(872,0,l),
(872,28,l),
(582,28,ls),
(538,28,o),
(504,62,o),
(504,106,cs),
(504,685,l),
(491,672,l),
(872,672,l),
(872,700,l),
(465,700,l),
(-12,0,l)
);
},
{
closed = 1;
nodes = (
(491,228,l),
(491,256,l),
(172,256,l),
(154,228,l)
);
},
{
closed = 1;
nodes = (
(851,336,l),
(851,364,l),
(495,364,l),
(495,336,l)
);
}
);
width = 927;
},
{
hints = (
{
horizontal = 1;
origin = (0,18);
target = (0,9);
type = Stem;
},
{
horizontal = 1;
origin = (2,3);
target = (2,2);
type = Stem;
},
{
horizontal = 1;
origin = (0,17);
target = (0,15);
type = Stem;
},
{
horizontal = 1;
origin = (1,3);
target = (1,2);
type = Stem;
},
{
origin = (0,3);
target = (0,13);
type = Stem;
}
);
layerId = "413C4000-F51E-49A0-99E6-BF5D502A191B";
shapes = (
{
closed = 1;
nodes = (
(215,0,l),
(485,578,l),
(440,591,l),
(440,130,ls),
(440,54,o),
(494,0,o),
(571,0,cs),
(929,0,l),
(929,192,l),
(668,192,ls),
(660,192,o),
(654,198,o),
(654,206,cs),
(654,595,l),
(564,508,l),
(929,508,l),
(929,700,l),
(318,700,l),
(-27,0,l)
);
},
{
closed = 1;
nodes = (
(552,107,l),
(552,286,l),
(177,286,l),
(71,107,l)
);
},
{
closed = 1;
nodes = (
(908,265,l),
(908,440,l),
(579,440,l),
(579,265,l)
);
}
);
width = 968;
},
{
hints = (
{
horizontal = 1;
origin = (0,18);
target = (0,9);
type = Stem;
},
{
horizontal = 1;
origin = (2,3);
target = (2,2);
type = Stem;
},
{
horizontal = 1;
origin = (0,17);
target = (0,15);
type = Stem;
},
{
horizontal = 1;
origin = (1,3);
target = (1,2);
type = Stem;
},
{
origin = (0,3);
target = (0,13);
type = Stem;
}
);
layerId = "9E4DF390-DC64-4DFF-9707-6073A03EA565";
shapes = (
{
closed = 1;
nodes = (
(154,0,l),
(481,607,l),
(448,617,l),
(448,122,ls),
(448,51,o),
(499,0,o),
(570,0,cs),
(909,0,l),
(909,145,l),
(626,145,ls),
(615,145,o),
(606,154,o),
(606,165,cs),
(606,622,l),
(539,555,l),
(909,555,l),
(909,700,l),
(359,700,l),
(-25,0,l)
);
},
{
closed = 1;
nodes = (
(531,143,l),
(531,277,l),
(173,277,l),
(93,143,l)
);
},
{
closed = 1;
nodes = (
(888,283,l),
(888,421,l),
(551,421,l),
(551,283,l)
);
}
);
width = 959;
}
);
unicode = 198;
},
{
glyphname = B;
kernLeft = H;
lastChange = "2025-08-05 14:54:07 +0000";
layers = (
{
layerId = "7A502162-43D8-4289-B728-53226767971B";
shapes = (
{
closed = 1;
nodes = (
(314,0,ls),
(465,0,o),
(538,76,o),
(538,190,cs),
(538,292,o),
(454,367,o),
(327,367,c),
(327,355,l),
(450,355,o),
(517,430,o),
(517,529,cs),
(517,632,o),
(441,700,o),
(312,700,cs),
(100,700,l),
(100,0,l)
);
},
{
closed = 1;
nodes = (
(129,685,l),
(116,673,l),
(311,673,ls),
(421,673,o),
(488,615,o),
(488,528,cs),
(488,439,o),
(429,374,o),
(320,374,cs),
(116,374,l),
(116,347,l),
(322,347,ls),
(433,347,o),
(508,281,o),
(508,191,cs),
(508,94,o),
(445,27,o),
(312,27,cs),
(116,27,l),
(129,15,l)
);
}
);
width = 598;
},
{
hints = (
{
horizontal = 1;
origin = (0,15);
target = (1,18);
type = Stem;
},
{
horizontal = 1;
origin = (1,11);
target = (1,9);
type = Stem;
},
{
horizontal = 1;
origin = (0,14);
target = (1,2);
type = Stem;
},
{
origin = (1,14);
target = (0,3);
type = Stem;
},
{
origin = (0,15);
target = (1,19);
type = Stem;
}
);
layerId = "413C4000-F51E-49A0-99E6-BF5D502A191B";
shapes = (
{
closed = 1;
nodes = (
(379,0,ls),
(529,0,o),
(627,76,o),
(627,199,cs),
(627,302,o),
(564,370,o),
(461,370,c),
(456,344,l),
(542,344,o),
(599,412,o),
(599,513,cs),
(599,629,o),
(503,700,o),
(353,700,cs),
(52,700,l),
(52,0,l)
);
},
{
closed = 1;
nodes = (
(270,598,l),
(180,530,l),
(325,530,ls),
(358,530,o),
(380,511,o),
(380,482,cs),
(380,453,o),
(358,434,o),
(325,434,cs),
(195,434,l),
(195,276,l),
(356,276,ls),
(387,276,o),
(407,255,o),
(407,224,cs),
(407,193,o),
(381,173,o),
(341,173,cs),
(180,173,l),
(270,102,l)
);
}
);
width = 648;
},
{
hints = (
{
horizontal = 1;
origin = (0,15);
target = (1,18);
type = Stem;
},
{
horizontal = 1;
origin = (1,11);
target = (1,9);
type = Stem;
},
{
horizontal = 1;
origin = (0,14);
target = (1,2);
type = Stem;
},
{
origin = (0,3);
target = (1,14);
type = Stem;
},
{
origin = (1,19);
target = (0,15);
type = Stem;
}
);
layerId = "9E4DF390-DC64-4DFF-9707-6073A03EA565";
shapes = (
{
closed = 1;
nodes = (
(363,0,ls),
(513,0,o),
(607,76,o),
(607,196,cs),
(607,285,o),
(546,369,o),
(424,369,c),
(421,347,l),
(535,347,o),
(578,438,o),
(578,518,cs),
(578,630,o),
(488,700,o),
(344,700,cs),
(70,700,l),
(70,0,l)
);
},
{
closed = 1;
nodes = (
(227,624,l),
(164,569,l),
(324,569,ls),
(381,569,o),
(416,541,o),
(416,496,cs),
(416,448,o),
(382,420,o),
(327,420,cs),
(175,420,l),
(175,295,l),
(349,295,ls),
(410,295,o),
(441,257,o),
(441,211,cs),
(441,161,o),
(401,131,o),
(336,131,cs),
(164,131,l),
(227,76,l)
);
}
);
width = 641;
}
);
unicode = 66;
},
{
glyphname = C;
kernLeft = O;
kernRight = C;
lastChange = "2025-08-05 14:53:38 +0000";
layers = (
{
anchors = (
{
name = bottom;
pos = (388,0);
},
{
name = top;
pos = (419,700);
}
);
layerId = "7A502162-43D8-4289-B728-53226767971B";
shapes = (
{
closed = 1;
nodes = (
(486,-10,o),
(558,12,o),
(612,52,c),
(594,75,l),
(545,39,o),
(479,19,o),
(408,19,cs),
(229,19,o),
(88,148,o),
(88,339,cs),
(88,361,ls),
(88,552,o),
(229,681,o),
(408,681,cs),
(478,681,o),
(545,661,o),
(594,626,c),
(611,649,l),
(558,688,o),
(486,710,o),
(408,710,cs),
(213,710,o),
(58,569,o),
(58,361,cs),
(58,339,ls),
(58,131,o),
(213,-10,o),
(408,-10,cs)
);
}
);
width = 647;
},
{
anchors = (
{
name = bottom;
pos = (348,0);
},
{
name = top;
pos = (398,700);
}
);
hints = (
{
horizontal = 1;
origin = (0,27);
target = (0,6);
type = Stem;
},
{
horizontal = 1;
origin = (0,20);
target = (0,13);
type = Stem;
},
{
origin = (0,24);
target = (0,10);
type = Stem;
}
);
layerId = "413C4000-F51E-49A0-99E6-BF5D502A191B";
shapes = (
{
closed = 1;
nodes = (
(499,-15,o),
(589,26,o),
(659,98,c),
(523,257,l),
(478,213,o),
(439,195,o),
(394,195,cs),
(302,195,o),
(244,258,o),
(244,348,cs),
(244,352,ls),
(244,442,o),
(302,505,o),
(394,505,cs),
(437,505,o),
(473,489,o),
(516,450,c),
(653,608,l),
(584,677,o),
(501,715,o),
(394,715,cs),
(178,715,o),
(23,559,o),
(23,352,cs),
(23,348,ls),
(23,141,o),
(178,-15,o),
(394,-15,cs)
);
}
);
width = 660;
},
{
anchors = (
{
name = bottom;
pos = (362,0);
},
{
name = top;
pos = (406,700);
}
);
hints = (
{
horizontal = 1;
origin = (0,27);
target = (0,6);
type = Stem;
},
{
horizontal = 1;
origin = (0,20);
target = (0,13);
type = Stem;
},
{
origin = (0,24);
target = (0,10);
type = Stem;
}
);
layerId = "9E4DF390-DC64-4DFF-9707-6073A03EA565";
shapes = (
{
closed = 1;
nodes = (
(497,-15,o),
(582,21,o),
(647,83,c),
(544,203,l),
(505,162,o),
(458,141,o),
(400,141,cs),
(282,141,o),
(199,225,o),
(199,345,cs),
(199,355,ls),
(199,475,o),
(282,559,o),
(400,559,cs),
(456,559,o),
(502,539,o),
(539,502,c),
(642,622,l),
(578,682,o),
(498,715,o),
(400,715,cs),
(197,715,o),
(35,566,o),
(35,355,cs),
(35,345,ls),
(35,134,o),
(197,-15,o),
(400,-15,cs)
);
}
);
width = 662;
}
);
unicode = 67;
},
{
glyphname = D;
kernLeft = H;
kernRight = D;
lastChange = "2025-08-05 14:53:29 +0000";
layers = (
{
anchors = (
{
name = center;
pos = (156,360);
},
{
name = top;
pos = (338,700);
}
);
layerId = "7A502162-43D8-4289-B728-53226767971B";
shapes = (
{
closed = 1;
nodes = (
(312,0,ls),
(502,0,o),
(646,147,o),
(646,355,cs),
(646,368,ls),
(646,563,o),
(503,700,o),
(312,700,cs),
(100,700,l),
(100,0,l)
);
},
{
closed = 1;
nodes = (
(129,684,l),
(116,671,l),
(311,671,ls),
(485,671,o),
(617,547,o),
(617,368,cs),
(617,355,ls),
(617,164,o),
(485,29,o),
(311,29,cs),
(116,29,l),
(129,16,l)
);
}
);
width = 704;
},
{
anchors = (
{
name = center;
pos = (181,346);
},
{
name = top;
pos = (359,700);
}
);
hints = (
{
horizontal = 1;
origin = (0,9);
target = (1,10);
type = Stem;
},
{
horizontal = 1;
origin = (0,8);
target = (1,2);
type = Stem;
},
{
origin = (0,9);
target = (1,11);
type = Stem;
},
{
origin = (1,6);
target = (0,4);
type = Stem;
}
);
layerId = "413C4000-F51E-49A0-99E6-BF5D502A191B";
shapes = (
{
closed = 1;
nodes = (
(344,0,ls),
(546,0,o),
(704,140,o),
(704,345,cs),
(704,354,ls),
(704,556,o),
(549,700,o),
(344,700,cs),
(52,700,l),
(52,0,l)
);
},
{
closed = 1;
nodes = (
(270,590,l),
(180,505,l),
(326,505,ls),
(424,505,o),
(482,441,o),
(482,354,cs),
(482,345,ls),
(482,254,o),
(420,195,o),
(326,195,cs),
(180,195,l),
(270,110,l)
);
}
);
width = 728;
},
{
anchors = (
{
name = center;
pos = (184,357);
},
{
name = top;
pos = (356,700);
}
);
hints = (
{
horizontal = 1;
origin = (0,9);
target = (1,10);
type = Stem;
},
{
horizontal = 1;
origin = (0,8);
target = (1,2);
type = Stem;
},
{
origin = (0,9);
target = (1,11);
type = Stem;
},
{
origin = (1,6);
target = (0,4);
type = Stem;
}
);
layerId = "9E4DF390-DC64-4DFF-9707-6073A03EA565";
shapes = (
{
closed = 1;
nodes = (
(338,0,ls),
(536,0,o),
(690,142,o),
(690,344,cs),
(690,354,ls),
(690,558,o),
(539,700,o),
(338,700,cs),
(70,700,l),
(70,0,l)
);
},
{
closed = 1;
nodes = (
(230,618,l),
(164,551,l),
(325,551,ls),
(446,551,o),
(526,473,o),
(526,354,cs),
(526,344,ls),
(526,227,o),
(443,149,o),
(325,149,cs),
(164,149,l),
(230,82,l)
);
}
);
width = 726;
}
);
unicode = 68;
},
{
glyphname = E;
kernLeft = E;
kernRight = E;
lastChange = "2025-08-05 14:53:22 +0000";
layers = (
{
anchors = (
{
name = bottom;
pos = (315,0);
},
{
name = ogonek;
pos = (492,0);
},
{
name = top;
pos = (308,700);
}
);
layerId = "7A502162-43D8-4289-B728-53226767971B";
shapes = (
{
closed = 1;
nodes = (
(492,0,l),
(492,28,l),
(201,28,ls),
(156,28,o),
(123,62,o),
(123,106,cs),
(123,594,ls),
(123,638,o),
(156,672,o),
(201,672,cs),
(492,672,l),
(492,700,l),
(197,700,ls),
(137,700,o),
(94,656,o),
(94,597,cs),
(94,103,ls),
(94,44,o),
(137,0,o),
(197,0,cs)
);
},
{
closed = 1;
nodes = (
(471,336,l),
(471,364,l),
(112,364,l),
(112,336,l)
);
}
);
width = 547;
},
{
anchors = (
{
name = bottom;
pos = (341,0);
},
{
name = ogonek;
pos = (565,0);
},
{
name = top;
pos = (332,700);
}
);
hints = (
{
horizontal = 1;
origin = (0,19);
target = (0,2);
type = Stem;
},
{
horizontal = 1;
origin = (1,3);
target = (1,2);
type = Stem;
},
{
horizontal = 1;
origin = (0,12);
target = (0,10);
type = Stem;
},
{
origin = (0,16);
target = (0,6);
type = Stem;
}
);
layerId = "413C4000-F51E-49A0-99E6-BF5D502A191B";
shapes = (
{
closed = 1;
nodes = (
(565,0,l),
(565,192,l),
(280,192,ls),
(272,192,o),
(266,198,o),
(266,206,cs),
(266,494,ls),
(266,502,o),
(272,508,o),
(280,508,cs),
(565,508,l),
(565,700,l),
(178,700,ls),
(103,700,o),
(48,646,o),
(48,570,cs),
(48,130,ls),
(48,54,o),
(103,0,o),
(178,0,cs)
);
},
{
closed = 1;
nodes = (
(544,265,l),
(544,440,l),
(149,440,l),
(149,265,l)
);
}
);
width = 604;
},
{
anchors = (
{
name = bottom;
pos = (335,0);
},
{
name = ogonek;
pos = (545,0);
},
{
name = top;
pos = (327,700);
}
);
hints = (
{
horizontal = 1;
origin = (0,19);
target = (0,2);
type = Stem;
},
{
horizontal = 1;
origin = (1,3);
target = (1,2);
type = Stem;
},
{
horizontal = 1;
origin = (0,12);
target = (0,10);
type = Stem;
},
{
origin = (0,16);
target = (0,6);
type = Stem;
}
);
layerId = "9E4DF390-DC64-4DFF-9707-6073A03EA565";
shapes = (
{
closed = 1;
nodes = (
(545,0,l),
(545,145,l),
(242,145,ls),
(231,145,o),
(222,154,o),
(222,165,cs),
(222,535,ls),
(222,546,o),
(231,555,o),
(242,555,cs),
(545,555,l),
(545,700,l),
(186,700,ls),
(115,700,o),
(64,649,o),
(64,578,cs),
(64,122,ls),
(64,51,o),
(115,0,o),
(186,0,cs)
);
},
{
closed = 1;
nodes = (
(524,283,l),
(524,421,l),
(140,421,l),
(140,283,l)
);
}
);
width = 595;
}
);
unicode = 69;
},
{
glyphname = F;
lastChange = "2025-08-05 14:53:13 +0000";
layers = (
{
layerId = "7A502162-43D8-4289-B728-53226767971B";
shapes = (
{
closed = 1;
nodes = (
(126,0,l),
(126,594,ls),
(126,638,o),
(160,672,o),
(204,672,cs),
(493,672,l),
(493,700,l),
(200,700,ls),
(140,700,o),
(97,656,o),
(97,597,cs),
(97,0,l)
);
},
{
closed = 1;
nodes = (
(473,320,l),
(473,348,l),
(113,348,l),
(113,320,l)
);
}
);
width = 528;
},
{
hints = (
{
horizontal = 1;
origin = (0,11);
target = up;
type = BottomGhost;
},
{
horizontal = 1;
origin = (1,3);
target = (1,2);
type = Stem;
},
{
horizontal = 1;
origin = (0,7);
target = (0,5);
type = Stem;
},
{
origin = (0,11);
target = (0,1);
type = Stem;
}
);
layerId = "413C4000-F51E-49A0-99E6-BF5D502A191B";
shapes = (
{
closed = 1;
nodes = (
(266,0,l),
(266,491,ls),
(266,499,o),
(272,505,o),
(280,505,cs),
(554,505,l),
(554,700,l),
(180,700,ls),
(104,700,o),
(50,646,o),
(50,570,cs),
(50,0,l)
);
},
{
closed = 1;
nodes = (
(527,212,l),
(527,407,l),
(160,407,l),
(160,212,l)
);
}
);
width = 577;
},
{
hints = (
{
horizontal = 1;
origin = (0,11);
target = up;
type = BottomGhost;
},
{
horizontal = 1;
origin = (1,3);
target = (1,2);
type = Stem;
},
{
horizontal = 1;
origin = (0,7);
target = (0,5);
type = Stem;
},
{
origin = (0,11);
target = (0,1);
type = Stem;
}
);
layerId = "9E4DF390-DC64-4DFF-9707-6073A03EA565";
shapes = (
{
closed = 1;
nodes = (
(228,0,l),
(228,535,ls),
(228,546,o),
(237,555,o),
(248,555,cs),
(540,555,l),
(540,700,l),
(190,700,ls),
(119,700,o),
(68,649,o),
(68,578,cs),
(68,0,l)
);
},
{
closed = 1;
nodes = (
(515,251,l),
(515,394,l),
(150,394,l),
(150,251,l)
);
}
);
width = 570;
}
);
unicode = 70;
},
{
glyphname = G;
kernLeft = O;
kernRight = G;
lastChange = "2025-08-05 14:53:03 +0000";
layers = (
{
anchors = (
{
name = bottom;
pos = (393,0);
},
{
name = top;
pos = (393,700);
}
);
layerId = "7A502162-43D8-4289-B728-53226767971B";
shapes = (
{
closed = 1;
nodes = (
(593,-15,o),
(710,151,o),
(693,348,c),
(454,348,l),
(454,321,l),
(677,321,l),
(664,335,l),
(675,164,o),
(569,14,o),
(397,14,cs),
(216,14,o),
(88,148,o),
(88,339,cs),
(88,360,ls),
(88,552,o),
(219,686,o),
(404,686,cs),
(467,686,o),
(529,668,o),
(579,630,c),
(597,653,l),
(542,694,o),
(474,715,o),
(405,715,cs),
(201,715,o),
(58,569,o),
(58,360,cs),
(58,339,ls),
(58,131,o),
(198,-15,o),
(397,-15,cs)
);
}
);
width = 732;
},
{
anchors = (
{
name = bottom;
pos = (368,0);
},
{
name = top;
pos = (394,700);
}
);
hints = (
{
horizontal = 1;
origin = (0,30);
target = (0,9);
type = Stem;
},
{
horizontal = 1;
origin = (0,5);
target = (0,3);
type = Stem;
},
{
horizontal = 1;
origin = (0,23);
target = (0,16);
type = Stem;
},
{
origin = (0,27);
target = (0,13);
type = Stem;
},
{
origin = (0,6);
target = (0,2);
type = Stem;
}
);
layerId = "413C4000-F51E-49A0-99E6-BF5D502A191B";
shapes = (
{
closed = 1;
nodes = (
(624,-15,o),
(761,141,o),
(728,407,c),
(392,407,l),
(392,242,l),
(605,242,l),
(512,296,l),
(536,220,o),
(477,181,o),
(399,181,cs),
(310,181,o),
(245,248,o),
(245,349,cs),
(245,350,ls),
(245,443,o),
(308,510,o),
(406,510,cs),
(459,510,o),
(508,490,o),
(547,438,c),
(695,583,l),
(622,665,o),
(528,715,o),
(397,715,cs),
(178,715,o),
(23,565,o),
(23,350,cs),
(23,349,ls),
(23,135,o),
(176,-15,o),
(394,-15,cs)
);
}
);
width = 755;
},
{
anchors = (
{
name = bottom;
pos = (377,0);
},
{
name = top;
pos = (395,700);
}
);
hints = (
{
horizontal = 1;
origin = (0,30);
target = (0,9);
type = Stem;
},
{
horizontal = 1;
origin = (0,5);
target = (0,3);
type = Stem;
},
{
horizontal = 1;
origin = (0,23);
target = (0,16);
type = Stem;
},
{
origin = (0,27);
target = (0,13);
type = Stem;
},
{
origin = (0,2);
target = (0,6);
type = Stem;
}
);
layerId = "9E4DF390-DC64-4DFF-9707-6073A03EA565";
shapes = (
{
closed = 1;
nodes = (
(618,-15,o),
(750,146,o),
(718,396,c),
(412,396,l),
(412,266,l),
(628,266,l),
(559,308,l),
(579,208,o),
(506,135,o),
(400,135,cs),
(283,135,o),
(199,222,o),
(199,346,cs),
(199,353,ls),
(199,476,o),
(283,563,o),
(404,563,cs),
(463,563,o),
(514,542,o),
(555,493,c),
(667,604,l),
(600,673,o),
(513,715,o),
(401,715,cs),
(186,715,o),
(35,566,o),
(35,353,cs),
(35,346,ls),
(35,134,o),
(184,-15,o),
(396,-15,cs)
);
}
);
width = 748;
}
);
unicode = 71;
},
{
glyphname = H;
kernLeft = H;
kernRight = H;
lastChange = "2025-08-05 14:52:36 +0000";
layers = (
{
layerId = "7A502162-43D8-4289-B728-53226767971B";
shapes = (
{
closed = 1;
nodes = (
(615,0,l),
(615,700,l),
(586,700,l),
(586,0,l)
);
},
{
closed = 1;
nodes = (
(129,0,l),
(129,700,l),
(100,700,l),
(100,0,l)
);
},
{
closed = 1;
nodes = (
(596,346,l),
(596,374,l),
(119,374,l),
(119,346,l)
);
}
);
width = 715;
},
{
hints = (
{
horizontal = 1;
origin = (1,3);
target = up;
type = BottomGhost;
},
{
horizontal = 1;
origin = (2,3);
target = (2,2);
type = Stem;
},
{
horizontal = 1;
origin = (1,2);
target = down;
type = TopGhost;
},
{
origin = (1,3);
target = (1,1);
type = Stem;
},
{
origin = (0,3);
target = (0,1);
type = Stem;
}
);
layerId = "413C4000-F51E-49A0-99E6-BF5D502A191B";
shapes = (
{
closed = 1;
nodes = (
(691,0,l),
(691,700,l),
(473,700,l),
(473,0,l)
);
},
{
closed = 1;
nodes = (
(270,0,l),
(270,700,l),
(52,700,l),
(52,0,l)
);
},
{
closed = 1;
nodes = (
(558,259,l),
(558,454,l),
(161,454,l),
(161,259,l)
);
}
);
width = 743;
},
{
hints = (
{
horizontal = 1;
origin = (1,3);
target = up;
type = BottomGhost;
},
{
horizontal = 1;
origin = (2,3);
target = (2,2);
type = Stem;
},
{
horizontal = 1;
origin = (1,2);
target = down;
type = TopGhost;
},
{
origin = (1,3);
target = (1,1);
type = Stem;
},
{
origin = (0,3);
target = (0,1);
type = Stem;
}
);
layerId = "9E4DF390-DC64-4DFF-9707-6073A03EA565";
shapes = (
{
closed = 1;
nodes = (
(672,0,l),
(672,700,l),
(511,700,l),
(511,0,l)
);
},
{
closed = 1;
nodes = (
(231,0,l),
(231,700,l),
(70,700,l),
(70,0,l)
);
},
{
closed = 1;
nodes = (
(573,289,l),
(573,434,l),
(152,434,l),
(152,289,l)
);
}
);
width = 742;
}
);
unicode = 72;
},
{
glyphname = Hbar;
kernLeft = H;
kernRight = H;
lastChange = "2025-08-05 14:55:15 +0000";
layers = (
{
layerId = "7A502162-43D8-4289-B728-53226767971B";
shapes = (
{
closed = 1;
nodes = (
(705,512,l),
(705,536,l),
(33,536,l),
(33,512,l)
);
},
{
closed = 1;
nodes = (
(626,0,l),
(626,700,l),
(597,700,l),
(597,0,l)
);
},
{
closed = 1;
nodes = (
(140,0,l),
(140,700,l),
(111,700,l),
(111,0,l)
);
},
{
closed = 1;
nodes = (
(607,314,l),
(607,342,l),
(130,342,l),
(130,314,l)
);
}
);
width = 738;
},
{
hints = (
{
origin = (2,3);
target = (2,1);
type = Stem;
},
{
origin = (1,3);
target = (1,1);
type = Stem;
},
{
horizontal = 1;
origin = (3,3);
target = (3,2);
type = Stem;
},
{
horizontal = 1;
origin = (0,3);
target = (0,2);
type = Stem;
},
{
horizontal = 1;
origin = (2,3);
target = up;
type = BottomGhost;
},
{
horizontal = 1;
origin = (2,2);
target = down;
type = TopGhost;
}
);
layerId = "413C4000-F51E-49A0-99E6-BF5D502A191B";
shapes = (
{
closed = 1;
nodes = (
(796,458,l),
(796,612,l),
(24,612,l),
(24,458,l)
);
},
{
closed = 1;
nodes = (
(730,0,l),
(730,700,l),
(512,700,l),
(512,0,l)
);
},
{
closed = 1;
nodes = (
(309,0,l),
(309,700,l),
(91,700,l),
(91,0,l)
);
},
{
closed = 1;
nodes = (
(597,193,l),
(597,388,l),
(200,388,l),
(200,193,l)
);
}
);
width = 820;
},
{
hints = (
{
origin = (2,3);
target = (2,1);
type = Stem;
},
{
origin = (1,3);
target = (1,1);
type = Stem;
},
{
horizontal = 1;
origin = (3,3);
target = (3,2);
type = Stem;
},
{
horizontal = 1;
origin = (0,3);
target = (0,2);
type = Stem;
},
{
horizontal = 1;
origin = (2,3);
target = up;
type = BottomGhost;
},
{
horizontal = 1;
origin = (2,2);
target = down;
type = TopGhost;
}
);
layerId = "9E4DF390-DC64-4DFF-9707-6073A03EA565";
shapes = (
{
closed = 1;
nodes = (
(770,470,l),
(770,589,l),
(28,589,l),
(28,470,l)
);
},
{
closed = 1;
nodes = (
(700,0,l),
(700,700,l),
(539,700,l),
(539,0,l)
);
},
{
closed = 1;
nodes = (
(259,0,l),
(259,700,l),
(98,700,l),
(98,0,l)
);
},
{
closed = 1;
nodes = (
(601,229,l),
(601,374,l),
(180,374,l),
(180,229,l)
);
}
);
width = 798;
}
);
unicode = 294;
},
{
glyphname = I;
kernLeft = I;
kernRight = I;
lastChange = "2025-08-05 14:52:11 +0000";
layers = (
{
anchors = (
{
name = bottom;
pos = (181,0);
},
{
name = ogonek;
pos = (196,0);
},
{
name = top;
pos = (182,700);
}
);
layerId = "7A502162-43D8-4289-B728-53226767971B";
shapes = (
{
closed = 1;
nodes = (
(196,10,l),
(196,690,l),
(166,690,l),
(166,10,l)
);
},
{
closed = 1;
nodes = (
(330,672,l),
(330,700,l),
(34,700,l),
(34,672,l)
);
},
{
closed = 1;
nodes = (
(330,0,l),
(330,28,l),
(34,28,l),
(34,0,l)
);
}
);
width = 364;
},
{
anchors = (
{
name = bottom;
pos = (249,0);
},
{
name = ogonek;
pos = (357,0);
},
{
name = top;
pos = (249,700);
}
);
hints = (
{
horizontal = 1;
origin = (2,3);
target = (2,2);
type = Stem;
},
{
horizontal = 1;
origin = (1,2);
target = (1,3);
type = Stem;
},
{
origin = (0,3);
target = (0,1);
type = Stem;
}
);
layerId = "413C4000-F51E-49A0-99E6-BF5D502A191B";
shapes = (
{
closed = 1;
nodes = (
(358,67,l),
(358,633,l),
(140,633,l),
(140,67,l)
);
},
{
closed = 1;
nodes = (
(459,505,l),
(459,700,l),
(38,700,l),
(38,505,l)
);
},
{
closed = 1;
nodes = (
(459,0,l),
(459,195,l),
(38,195,l),
(38,0,l)
);
}
);
width = 497;
},
{
anchors = (
{
name = bottom;
pos = (237,0);
},
{
name = ogonek;
pos = (317,0);
},
{
name = top;
pos = (237,700);
}
);
hints = (
{
horizontal = 1;
origin = (2,3);
target = (2,2);
type = Stem;
},
{
horizontal = 1;
origin = (1,2);
target = (1,3);
type = Stem;
},
{
origin = (0,3);
target = (0,1);
type = Stem;
}
);
layerId = "9E4DF390-DC64-4DFF-9707-6073A03EA565";
shapes = (
{
closed = 1;
nodes = (
(317,50,l),
(317,650,l),
(156,650,l),
(156,50,l)
);
},
{
closed = 1;
nodes = (
(428,555,l),
(428,700,l),
(45,700,l),
(45,555,l)
);
},
{
closed = 1;
nodes = (
(428,0,l),
(428,145,l),
(45,145,l),
(45,0,l)
);
}
);
width = 473;
}
);
unicode = 73;
},
{
glyphname = J;
lastChange = "2025-08-05 14:52:04 +0000";
layers = (
{
anchors = (
{
name = top;
pos = (194,700);
}
);
layerId = "7A502162-43D8-4289-B728-53226767971B";
shapes = (
{
closed = 1;
nodes = (
(190,0,ls),
(255,0,o),
(300,45,o),
(300,109,cs),
(300,700,l),
(56,700,l),
(56,672,l),
(283,672,l),
(271,685,l),
(271,108,ls),
(271,62,o),
(236,28,o),
(191,28,cs),
(19,28,l),
(19,0,l)
);
}
);
width = 397;
},
{
anchors = (
{
name = top;
pos = (223,700);
}
);
hints = (
{
horizontal = 1;
origin = (0,14);
target = (0,13);
type = Stem;
},
{
horizontal = 1;
origin = (0,5);
target = (0,7);
type = Stem;
},
{
origin = (0,4);
target = (0,9);
type = Stem;
}
);
layerId = "413C4000-F51E-49A0-99E6-BF5D502A191B";
shapes = (
{
closed = 1;
nodes = (
(118,0,ls),
(307,0,o),
(395,81,o),
(395,256,cs),
(395,700,l),
(54,700,l),
(54,505,l),
(268,505,l),
(177,595,l),
(177,234,ls),
(177,212,o),
(161,195,o),
(139,195,cs),
(27,195,l),
(27,0,l)
);
}
);
width = 442;
},
{
anchors = (
{
name = top;
pos = (219,700);
}
);
hints = (
{
horizontal = 1;
origin = (0,14);
target = (0,13);
type = Stem;
},
{
horizontal = 1;
origin = (0,5);
target = (0,7);
type = Stem;
},
{
origin = (0,4);
target = (0,9);
type = Stem;
}
);
layerId = "9E4DF390-DC64-4DFF-9707-6073A03EA565";
shapes = (
{
closed = 1;
nodes = (
(144,0,ls),
(296,0,o),
(371,70,o),
(371,212,cs),
(371,700,l),
(59,700,l),
(59,555,l),
(277,555,l),
(210,622,l),
(210,196,ls),
(210,167,o),
(188,145,o),
(159,145,cs),
(29,145,l),
(29,0,l)
);
}
);
width = 437;
}
);
unicode = 74;
},
{
glyphname = K;
kernLeft = H;
kernRight = K;
lastChange = "2025-08-05 14:51:58 +0000";
layers = (
{
anchors = (
{
name = bottom;
pos = (309,0);
},
{
name = top;
pos = (309,700);
}
);
layerId = "7A502162-43D8-4289-B728-53226767971B";
shapes = (
{
closed = 1;
nodes = (
(549,700,l),
(513,700,l),
(115,224,l),
(117,184,l)
);
},
{
closed = 1;
nodes = (
(129,0,l),
(129,700,l),
(100,700,l),
(100,0,l)
);
},
{
closed = 1;
nodes = (
(576,0,l),
(282,402,l),
(261,381,l),
(539,0,l)
);
}
);
width = 584;
},
{
anchors = (
{
name = bottom;
pos = (371,0);
},
{
name = top;
pos = (368,700);
}
);
hints = (
{
horizontal = 1;
origin = (2,3);
target = up;
type = BottomGhost;
},
{
horizontal = 1;
origin = (1,2);
target = down;
type = TopGhost;
},
{
origin = (1,3);
target = (1,1);
type = Stem;
}
);
layerId = "413C4000-F51E-49A0-99E6-BF5D502A191B";
shapes = (
{
closed = 1;
nodes = (
(698,700,l),
(449,700,l),
(199,337,l),
(222,45,l)
);
},
{
closed = 1;
nodes = (
(270,0,l),
(270,700,l),
(52,700,l),
(52,0,l)
);
},
{
closed = 1;
nodes = (
(701,0,l),
(442,512,l),
(288,352,l),
(444,0,l)
);
}
);
width = 690;
},
{
anchors = (
{
name = bottom;
pos = (356,0);
},
{
name = top;
pos = (354,700);
}
);
hints = (
{
horizontal = 1;
origin = (2,3);
target = up;
type = BottomGhost;
},
{
horizontal = 1;
origin = (1,2);
target = down;
type = TopGhost;
},
{
origin = (1,3);
target = (1,1);
type = Stem;
}
);
layerId = "9E4DF390-DC64-4DFF-9707-6073A03EA565";
shapes = (
{
closed = 1;
nodes = (
(643,700,l),
(458,700,l),
(149,303,l),
(166,87,l)
);
},
{
closed = 1;
nodes = (
(230,0,l),
(230,700,l),
(70,700,l),
(70,0,l)
);
},
{
closed = 1;
nodes = (
(653,0,l),
(393,479,l),
(279,361,l),
(462,0,l)
);
}
);
width = 651;
}
);
unicode = 75;
},
{
glyphname = L;
kernLeft = L;
kernRight = L;
lastChange = "2025-08-05 14:51:48 +0000";
layers = (
{
anchors = (
{
name = bottom;
pos = (304,0);
},
{
name = center;
pos = (140,351);
},
{
name = top;
pos = (112,700);
},
{
name = topright;
pos = (312,700);
}
);
layerId = "7A502162-43D8-4289-B728-53226767971B";
shapes = (
{
closed = 1;
nodes = (
(480,0,l),
(480,29,l),
(204,29,ls),
(160,29,o),
(126,62,o),
(126,107,cs),
(126,700,l),
(97,700,l),
(97,103,ls),
(97,44,o),
(140,0,o),
(200,0,cs)
);
}
);
width = 493;
},
{
anchors = (
{
name = bottom;
pos = (295,0);
},
{
name = center;
pos = (184,364);
},
{
name = top;
pos = (160,700);
},
{
name = topright;
pos = (316,700);
}
);
hints = (
{
horizontal = 1;
origin = (0,11);
target = (0,2);
type = Stem;
},
{
horizontal = 1;
origin = (0,7);
target = down;
type = TopGhost;
},
{
origin = (0,6);
target = (0,8);
type = Stem;
}
);
layerId = "413C4000-F51E-49A0-99E6-BF5D502A191B";
shapes = (
{
closed = 1;
nodes = (
(548,0,l),
(548,195,l),
(282,195,ls),
(274,195,o),
(268,201,o),
(268,209,cs),
(268,700,l),
(50,700,l),
(50,130,ls),
(50,54,o),
(104,0,o),
(180,0,cs)
);
}
);
width = 559;
},
{
anchors = (
{
name = bottom;
pos = (302,0);
},
{
name = center;
pos = (175,360);
},
{
name = top;
pos = (150,700);
},
{
name = topright;
pos = (319,700);
}
);
hints = (
{
horizontal = 1;
origin = (0,11);
target = (0,2);
type = Stem;
},
{
horizontal = 1;
origin = (0,7);
target = down;
type = TopGhost;
},
{
origin = (0,6);
target = (0,8);
type = Stem;
}
);
layerId = "9E4DF390-DC64-4DFF-9707-6073A03EA565";
shapes = (
{
closed = 1;
nodes = (
(532,0,l),
(532,150,l),
(248,150,ls),
(237,150,o),
(228,159,o),
(228,170,cs),
(228,700,l),
(68,700,l),
(68,122,ls),
(68,51,o),
(119,0,o),
(190,0,cs)
);
}
);
width = 545;
}
);
unicode = 76;
},
{
glyphname = M;
kernLeft = H;
kernRight = H;
lastChange = "2025-08-05 14:51:41 +0000";
layers = (
{
layerId = "7A502162-43D8-4289-B728-53226767971B";
shapes = (
{
closed = 1;
nodes = (
(129,0,l),
(129,668,l),
(123,667,l),
(370,195,l),
(400,195,l),
(647,667,l),
(641,668,l),
(641,0,l),
(670,0,l),
(670,700,l),
(631,700,l),
(379,219,l),
(391,219,l),
(138,700,l),
(100,700,l),
(100,0,l)
);
}
);
width = 770;
},
{
hints = (
{
horizontal = 1;
origin = (0,15);
target = up;
type = BottomGhost;
},
{
horizontal = 1;
origin = (0,14);
target = down;
type = TopGhost;
},
{
origin = (0,15);
target = (0,1);
type = Stem;
},
{
origin = (0,7);
target = (0,9);
type = Stem;
}
);
layerId = "413C4000-F51E-49A0-99E6-BF5D502A191B";
shapes = (
{
closed = 1;
nodes = (
(263,0,l),
(263,610,l),
(182,610,l),
(362,102,l),
(516,102,l),
(696,610,l),
(616,610,l),
(616,0,l),
(826,0,l),
(826,700,l),
(536,700,l),
(388,290,l),
(490,290,l),
(343,700,l),
(52,700,l),
(52,0,l)
);
}
);
width = 878;
},
{
hints = (
{
horizontal = 1;
origin = (0,15);
target = up;
type = BottomGhost;
},
{
horizontal = 1;
origin = (0,14);
target = down;
type = TopGhost;
},
{
origin = (0,15);
target = (0,1);
type = Stem;
},
{
origin = (0,7);
target = (0,9);
type = Stem;
}
);
layerId = "9E4DF390-DC64-4DFF-9707-6073A03EA565";
shapes = (
{
closed = 1;
nodes = (
(226,0,l),
(226,627,l),
(168,627,l),
(368,130,l),
(485,130,l),
(685,627,l),
(627,627,l),
(627,0,l),
(783,0,l),
(783,700,l),
(568,700,l),
(389,269,l),
(464,269,l),
(285,700,l),
(70,700,l),
(70,0,l)
);
}
);
width = 853;
}
);
unicode = 77;
},
{
glyphname = N;
kernLeft = H;
kernRight = H;
lastChange = "2025-08-05 14:51:35 +0000";
layers = (
{
anchors = (
{
name = bottom;
pos = (339,0);
},
{
name = top;
pos = (339,700);
}
);
layerId = "7A502162-43D8-4289-B728-53226767971B";
shapes = (
{
closed = 1;
nodes = (
(129,0,l),
(129,669,l),
(121,667,l),
(542,0,l),
(576,0,l),
(576,700,l),
(547,700,l),
(547,30,l),
(554,33,l),
(132,700,l),
(100,700,l),
(100,0,l)
);
}
);
width = 676;
},
{
anchors = (
{
name = bottom;
pos = (371,0);
},
{
name = top;
pos = (371,700);
}
);
hints = (
{
horizontal = 1;
origin = (0,11);
target = up;
type = BottomGhost;
},
{
horizontal = 1;
origin = (0,10);
target = down;
type = TopGhost;
},
{
origin = (0,11);
target = (0,1);
type = Stem;
},
{
origin = (0,5);
target = (0,7);
type = Stem;
}
);
layerId = "413C4000-F51E-49A0-99E6-BF5D502A191B";
shapes = (
{
closed = 1;
nodes = (
(268,0,l),
(268,458,l),
(182,443,l),
(507,0,l),
(691,0,l),
(691,700,l),
(475,700,l),
(475,233,l),
(570,247,l),
(243,700,l),
(52,700,l),
(52,0,l)
);
}
);
width = 743;
},
{
anchors = (
{
name = bottom;
pos = (365,0);
},
{
name = top;
pos = (365,700);
}
);
hints = (
{
horizontal = 1;
origin = (0,11);
target = up;
type = BottomGhost;
},
{
horizontal = 1;
origin = (0,10);
target = down;
type = TopGhost;
},
{
origin = (0,11);
target = (0,1);
type = Stem;
},
{
origin = (0,5);
target = (0,7);
type = Stem;
}
);
layerId = "9E4DF390-DC64-4DFF-9707-6073A03EA565";
shapes = (
{
closed = 1;
nodes = (
(230,0,l),
(230,521,l),
(167,510,l),
(521,0,l),
(660,0,l),
(660,700,l),
(500,700,l),
(500,172,l),
(569,183,l),
(213,700,l),
(70,700,l),
(70,0,l)
);
}
);
width = 730;
}
);
unicode = 78;
},
{
glyphname = Eng;
kernLeft = H;
kernRight = H;
lastChange = "2025-08-05 14:51:29 +0000";
layers = (
{
layerId = "7A502162-43D8-4289-B728-53226767971B";
shapes = (
{
closed = 1;
nodes = (
(558,25,l),
(132,700,l),
(100,700,l),
(100,0,l),
(129,0,l),
(129,669,l),
(122,666,l),
(558,-26,l)
);
},
{
closed = 1;
nodes = (
(466,-200,ls),
(531,-200,o),
(576,-155,o),
(576,-91,cs),
(576,700,l),
(547,700,l),
(547,-92,ls),
(547,-138,o),
(512,-172,o),
(467,-172,cs),
(390,-172,l),
(390,-200,l)
);
}
);
width = 676;
},
{
hints = (
{
horizontal = 1;
origin = (1,11);
target = (1,10);
type = Stem;
},
{
horizontal = 1;
origin = (0,4);
target = up;
type = BottomGhost;
},
{
horizontal = 1;
origin = (1,5);
target = down;
type = TopGhost;
},
{
origin = (0,3);
target = (0,5);
type = Stem;
},
{
origin = (1,6);
target = (1,4);
type = Stem;
}
);
layerId = "413C4000-F51E-49A0-99E6-BF5D502A191B";
shapes = (
{
closed = 1;
nodes = (
(533,302,l),
(243,700,l),
(52,700,l),
(52,0,l),
(268,0,l),
(268,439,l),
(196,425,l),
(533,-37,l)
);
},
{
closed = 1;
nodes = (
(424,-200,ls),
(613,-200,o),
(691,-119,o),
(691,56,cs),
(691,700,l),
(475,700,l),
(475,34,ls),
(475,12,o),
(457,-5,o),
(435,-5,cs),
(325,-5,l),
(325,-200,l)
);
}
);
width = 743;
},
{
hints = (
{
horizontal = 1;
origin = (1,11);
target = (1,10);
type = Stem;
},
{
horizontal = 1;
origin = (0,4);
target = up;
type = BottomGhost;
},
{
horizontal = 1;
origin = (1,5);
target = down;
type = TopGhost;
},
{
origin = (0,3);
target = (0,5);
type = Stem;
},
{
origin = (1,6);
target = (1,4);
type = Stem;
}
);
layerId = "9E4DF390-DC64-4DFF-9707-6073A03EA565";
shapes = (
{
closed = 1;
nodes = (
(544,219,l),
(213,700,l),
(70,700,l),
(70,0,l),
(230,0,l),
(230,508,l),
(177,497,l),
(544,-34,l)
);
},
{
closed = 1;
nodes = (
(433,-200,ls),
(585,-200,o),
(660,-130,o),
(660,12,cs),
(660,700,l),
(500,700,l),
(500,-4,ls),
(500,-33,o),
(477,-55,o),
(448,-55,cs),
(348,-55,l),
(348,-200,l)
);
}
);
width = 730;
}
);
unicode = 330;
},
{
glyphname = O;
kernLeft = O;
kernRight = O;
lastChange = "2025-08-05 14:51:22 +0000";
layers = (
{
anchors = (
{
name = bottom;
pos = (387,-1);
},
{
name = center;
pos = (387,350);
},
{
name = tail.Q;
pos = (387,0);
},
{
name = top;
pos = (387,700);
},
{
name = topright;
pos = (449,700);
}
);
layerId = "7A502162-43D8-4289-B728-53226767971B";
shapes = (
{
closed = 1;
nodes = (
(580,-10,o),
(716,138,o),
(716,350,cs),
(716,360,ls),
(716,566,o),
(580,710,o),
(387,710,cs),
(194,710,o),
(58,566,o),
(58,360,cs),
(58,350,ls),
(58,138,o),
(194,-10,o),
(387,-10,cs)
);
},
{
closed = 1;
nodes = (
(212,19,o),
(88,154,o),
(88,350,cs),
(88,360,ls),
(88,549,o),
(212,681,o),
(387,681,cs),
(562,681,o),
(686,549,o),
(686,360,cs),
(686,350,ls),
(686,154,o),
(562,19,o),
(387,19,cs)
);
}
);
width = 774;
},
{
anchors = (
{
name = bottom;
pos = (389,-1);
},
{
name = center;
pos = (389,350);
},
{
name = tail.Q;
pos = (389,0);
},
{
name = top;
pos = (389,700);
},
{
name = topright;
pos = (451,700);
}
);
hints = (
{
horizontal = 1;
origin = (0,13);
target = (1,13);
type = Stem;
},
{
horizontal = 1;
origin = (0,6);
target = (1,6);
type = Stem;
},
{
origin = (0,10);
target = (1,3);
type = Stem;
},
{
origin = (1,10);
target = (0,3);
type = Stem;
}
);
layerId = "413C4000-F51E-49A0-99E6-BF5D502A191B";
shapes = (
{
closed = 1;
nodes = (
(592,-15,o),
(753,127,o),
(753,344,cs),
(753,350,ls),
(753,572,o),
(592,715,o),
(389,715,cs),
(186,715,o),
(24,572,o),
(24,350,cs),
(24,344,ls),
(24,127,o),
(186,-15,o),
(389,-15,cs)
);
},
{
closed = 1;
nodes = (
(303,193,o),
(245,253,o),
(245,344,cs),
(245,350,ls),
(245,444,o),
(303,507,o),
(389,507,cs),
(475,507,o),
(532,444,o),
(532,350,cs),
(532,344,ls),
(532,253,o),
(475,193,o),
(389,193,cs)
);
}
);
width = 777;
},
{
anchors = (
{
name = bottom;
pos = (387,-1);
},
{
name = center;
pos = (387,350);
},
{
name = tail.Q;
pos = (387,0);
},
{
name = top;
pos = (387,700);
},
{
name = topright;
pos = (449,700);
}
);
hints = (
{
horizontal = 1;
origin = (0,13);
target = (1,13);
type = Stem;
},
{
horizontal = 1;
origin = (0,6);
target = (1,6);
type = Stem;
},
{
origin = (0,10);
target = (1,3);
type = Stem;
},
{
origin = (1,10);
target = (0,3);
type = Stem;
}
);
layerId = "9E4DF390-DC64-4DFF-9707-6073A03EA565";
shapes = (
{
closed = 1;
nodes = (
(587,-15,o),
(737,130,o),
(737,346,cs),
(737,353,ls),
(737,570,o),
(587,715,o),
(387,715,cs),
(187,715,o),
(36,570,o),
(36,353,cs),
(36,346,ls),
(36,130,o),
(187,-15,o),
(387,-15,cs)
);
},
{
closed = 1;
nodes = (
(278,141,o),
(200,216,o),
(200,346,cs),
(200,353,ls),
(200,483,o),
(278,559,o),
(387,559,cs),
(495,559,o),
(573,483,o),
(573,353,cs),
(573,346,ls),
(573,216,o),
(495,141,o),
(387,141,cs)
);
}
);
width = 773;
}
);
unicode = 79;
},
{
color = 8;
glyphname = Ohorn;
kernLeft = O;
kernRight = Ohorn;
lastChange = "2025-08-05 14:51:16 +0000";
layers = (
{
anchors = (
{
name = bottom;
pos = (387,0);
},
{
name = top;
pos = (387,700);
}
);
layerId = "7A502162-43D8-4289-B728-53226767971B";
shapes = (
{
closed = 1;
nodes = (
(580,-10,o),
(716,138,o),
(716,350,cs),
(716,360,ls),
(716,494,o),
(657,603,o),
(564,661,c),
(557,656,l),
(575,653,o),
(589,653,o),
(593,653,cs),
(674,653,o),
(711,705,o),
(700,788,c),
(672,788,l),
(681,719,o),
(654,680,o),
(589,680,cs),
(534,680,o),
(455,710,o),
(387,710,cs),
(194,710,o),
(58,566,o),
(58,360,cs),
(58,350,ls),
(58,138,o),
(194,-10,o),
(387,-10,cs)
);
},
{
closed = 1;
nodes = (
(212,19,o),
(88,154,o),
(88,350,cs),
(88,360,ls),
(88,549,o),
(212,681,o),
(387,681,cs),
(562,681,o),
(686,549,o),
(686,360,cs),
(686,350,ls),
(686,154,o),
(562,19,o),
(387,19,cs)
);
}
);
width = 776;
},
{
anchors = (
{
name = bottom;
pos = (389,0);
},
{
name = top;
pos = (389,700);
}
);
hints = (
{
horizontal = 1;
origin = (0,27);
target = (1,13);
type = Stem;
},
{
horizontal = 1;
origin = (0,20);
target = (1,6);
type = Stem;
},
{
origin = (0,24);
target = (1,3);
type = Stem;
},
{
origin = (1,10);
target = (0,3);
type = Stem;
}
);
layerId = "413C4000-F51E-49A0-99E6-BF5D502A191B";
shapes = (
{
closed = 1;
nodes = (
(592,-15,o),
(753,127,o),
(753,344,cs),
(753,350,ls),
(753,457,o),
(718,542,o),
(635,609,c),
(564,562,l),
(575,556,o),
(596,551,o),
(613,551,cs),
(779,551,o),
(825,649,o),
(792,788,c),
(601,788,l),
(623,706,o),
(605,680,o),
(570,680,cs),
(533,680,o),
(490,715,o),
(389,715,cs),
(186,715,o),
(24,572,o),
(24,350,cs),
(24,344,ls),
(24,127,o),
(186,-15,o),
(389,-15,cs)
);
},
{
closed = 1;
nodes = (
(303,193,o),
(245,253,o),
(245,344,cs),
(245,350,ls),
(245,444,o),
(303,507,o),
(389,507,cs),
(475,507,o),
(532,444,o),
(532,350,cs),
(532,344,ls),
(532,253,o),
(475,193,o),
(389,193,cs)
);
}
);
width = 796;
},
{
anchors = (
{
name = bottom;
pos = (387,0);
},
{
name = top;
pos = (387,700);
}
);
hints = (
{
horizontal = 1;
origin = (0,27);
target = (1,13);
type = Stem;
},
{
horizontal = 1;
origin = (0,20);
target = (1,6);
type = Stem;
},
{
origin = (0,24);
target = (1,3);
type = Stem;
},
{
origin = (1,10);
target = (0,3);
type = Stem;
}
);
layerId = "9E4DF390-DC64-4DFF-9707-6073A03EA565";
shapes = (
{
closed = 1;
nodes = (
(587,-15,o),
(737,130,o),
(737,346,cs),
(737,353,ls),
(737,463,o),
(698,556,o),
(630,617,c),
(584,579,l),
(598,575,o),
(612,573,o),
(619,573,cs),
(738,573,o),
(779,660,o),
(749,788,c),
(614,788,l),
(628,732,o),
(635,680,o),
(571,680,cs),
(527,680,o),
(504,715,o),
(387,715,cs),
(187,715,o),
(36,570,o),
(36,353,cs),
(36,346,ls),
(36,130,o),
(187,-15,o),
(387,-15,cs)
);
},
{
closed = 1;
nodes = (
(278,141,o),
(200,216,o),
(200,346,cs),
(200,353,ls),
(200,483,o),
(278,559,o),
(387,559,cs),
(495,559,o),
(573,483,o),
(573,353,cs),
(573,346,ls),
(573,216,o),
(495,141,o),
(387,141,cs)
);
}
);
width = 784;
}
);
unicode = 416;
},
{
glyphname = OE;
kernRight = E;
lastChange = "2025-08-05 14:51:08 +0000";
layers = (
{
layerId = "7A502162-43D8-4289-B728-53226767971B";
shapes = (
{
closed = 1;
nodes = (
(935,0,l),
(935,28,l),
(447,28,ls),
(212,28,o),
(88,157,o),
(88,356,cs),
(88,548,o),
(212,672,o),
(447,672,cs),
(935,672,l),
(935,700,l),
(447,700,ls),
(194,700,o),
(58,565,o),
(58,356,cs),
(58,139,o),
(194,0,o),
(447,0,cs)
);
},
{
closed = 1;
nodes = (
(576,13,l),
(576,686,l),
(547,686,l),
(547,13,l)
);
},
{
closed = 1;
nodes = (
(914,336,l),
(914,364,l),
(562,364,l),
(562,336,l)
);
}
);
width = 990;
},
{
background = {
shapes = (
{
closed = 1;
nodes = (
(969,0,l),
(969,192,l),
(388,192,ls),
(292,192,o),
(243,263,o),
(243,352,cs),
(243,439,o),
(292,508,o),
(388,508,cs),
(969,508,l),
(969,700,l),
(401,700,ls),
(178,700,o),
(22,566,o),
(22,352,cs),
(22,135,o),
(178,0,o),
(401,0,cs)
);
},
{
closed = 1;
nodes = (
(679,76,l),
(679,612,l),
(462,612,l),
(462,76,l)
);
},
{
closed = 1;
nodes = (
(948,265,l),
(948,440,l),
(567,440,l),
(567,265,l)
);
}
);
};
hints = (
{
horizontal = 1;
origin = (0,17);
target = (0,2);
type = Stem;
},
{
horizontal = 1;
origin = (2,3);
target = (2,2);
type = Stem;
},
{
horizontal = 1;
origin = (0,11);
target = (0,9);
type = Stem;
},
{
origin = (0,14);
target = (0,5);
type = Stem;
},
{
origin = (1,3);
target = (1,1);
type = Stem;
}
);
layerId = "413C4000-F51E-49A0-99E6-BF5D502A191B";
shapes = (
{
closed = 1;
nodes = (
(971,0,l),
(971,192,l),
(390,192,ls),
(294,192,o),
(245,263,o),
(245,352,cs),
(245,439,o),
(294,508,o),
(390,508,cs),
(971,508,l),
(971,700,l),
(403,700,ls),
(180,700,o),
(24,566,o),
(24,352,cs),
(24,135,o),
(180,0,o),
(403,0,cs)
);
},
{
closed = 1;
nodes = (
(681,76,l),
(681,612,l),
(464,612,l),
(464,76,l)
);
},
{
closed = 1;
nodes = (
(950,265,l),
(950,440,l),
(569,440,l),
(569,265,l)
);
}
);
width = 1010;
},
{
hints = (
{
horizontal = 1;
origin = (0,17);
target = (0,2);
type = Stem;
},
{
horizontal = 1;
origin = (2,3);
target = (2,2);
type = Stem;
},
{
horizontal = 1;
origin = (0,11);
target = (0,9);
type = Stem;
},
{
origin = (0,14);
target = (0,5);
type = Stem;
},
{
origin = (1,3);
target = (1,1);
type = Stem;
}
);
layerId = "9E4DF390-DC64-4DFF-9707-6073A03EA565";
shapes = (
{
closed = 1;
nodes = (
(962,0,l),
(962,145,l),
(409,145,ls),
(271,145,o),
(200,231,o),
(200,353,cs),
(200,472,o),
(271,555,o),
(409,555,cs),
(962,555,l),
(962,700,l),
(397,700,ls),
(172,700,o),
(36,566,o),
(36,353,cs),
(36,136,o),
(172,0,o),
(397,0,cs)
);
},
{
closed = 1;
nodes = (
(651,57,l),
(651,634,l),
(491,634,l),
(491,57,l)
);
},
{
closed = 1;
nodes = (
(941,283,l),
(941,421,l),
(569,421,l),
(569,283,l)
);
}
);
width = 1012;
}
);
unicode = 338;
},
{
glyphname = P;
kernLeft = H;
lastChange = "2025-08-05 14:51:01 +0000";
layers = (
{
layerId = "7A502162-43D8-4289-B728-53226767971B";
shapes = (
{
closed = 1;
nodes = (
(129,0,l),
(129,685,l),
(116,672,l),
(291,672,ls),
(399,672,o),
(477,610,o),
(477,503,cs),
(477,396,o),
(399,333,o),
(291,333,cs),
(114,333,l),
(114,306,l),
(290,306,ls),
(417,306,o),
(506,378,o),
(506,503,cs),
(506,628,o),
(417,700,o),
(290,700,cs),
(100,700,l),
(100,0,l)
);
}
);
width = 543;
},
{
hints = (
{
horizontal = 1;
origin = (0,20);
target = up;
type = BottomGhost;
},
{
horizontal = 1;
origin = (0,12);
target = (0,10);
type = Stem;
},
{
horizontal = 1;
origin = (0,19);
target = (0,3);
type = Stem;
},
{
origin = (0,20);
target = (0,1);
type = Stem;
},
{
origin = (0,6);
target = (0,15);
type = Stem;
}
);
layerId = "413C4000-F51E-49A0-99E6-BF5D502A191B";
shapes = (
{
closed = 1;
nodes = (
(270,0,l),
(270,591,l),
(180,505,l),
(327,505,ls),
(374,505,o),
(395,473,o),
(395,443,cs),
(395,413,o),
(374,380,o),
(327,380,cs),
(152,380,l),
(152,189,l),
(332,189,ls),
(502,189,o),
(608,290,o),
(608,443,cs),
(608,594,o),
(502,700,o),
(332,700,cs),
(52,700,l),
(52,0,l)
);
}
);
width = 621;
},
{
hints = (
{
horizontal = 1;
origin = (0,20);
target = up;
type = BottomGhost;
},
{
horizontal = 1;
origin = (0,12);
target = (0,10);
type = Stem;
},
{
horizontal = 1;
origin = (0,19);
target = (0,3);
type = Stem;
},
{
origin = (0,20);
target = (0,1);
type = Stem;
},
{
origin = (0,6);
target = (0,15);
type = Stem;
}
);
layerId = "9E4DF390-DC64-4DFF-9707-6073A03EA565";
shapes = (
{
closed = 1;
nodes = (
(230,0,l),
(230,626,l),
(164,565,l),
(331,565,ls),
(389,565,o),
(423,524,o),
(423,471,cs),
(423,418,o),
(389,376,o),
(331,376,cs),
(144,376,l),
(144,244,l),
(323,244,ls),
(480,244,o),
(581,329,o),
(581,471,cs),
(581,614,o),
(480,700,o),
(323,700,cs),
(70,700,l),
(70,0,l)
);
}
);
width = 601;
}
);
unicode = 80;
},
{
glyphname = Thorn;
kernLeft = H;
lastChange = "2025-08-05 14:22:25 +0000";
layers = (
{
layerId = "7A502162-43D8-4289-B728-53226767971B";
shapes = (
{
closed = 1;
nodes = (
(290,153,ls),
(417,153,o),
(506,225,o),
(506,350,cs),
(506,475,o),
(417,547,o),
(290,547,cs),
(114,547,l),
(114,520,l),
(291,520,ls),
(399,520,o),
(477,457,o),
(477,350,cs),
(477,243,o),
(399,180,o),
(291,180,cs),
(114,180,l),
(114,153,l)
);
},
{
closed = 1;
nodes = (
(129,0,l),
(129,700,l),
(100,700,l),
(100,0,l)
);
}
);
width = 557;
},
{
hints = (
{
horizontal = 1;
origin = (1,3);
target = up;
type = BottomGhost;
},
{
horizontal = 1;
origin = (0,17);
target = (0,16);
type = Stem;
},
{
horizontal = 1;
origin = (0,9);
target = (0,7);
type = Stem;
},
{
horizontal = 1;
origin = (1,2);
target = down;
type = TopGhost;
},
{
origin = (1,3);
target = (1,1);
type = Stem;
},
{
origin = (0,12);
target = (0,3);
type = Stem;
}
);
layerId = "413C4000-F51E-49A0-99E6-BF5D502A191B";
shapes = (
{
closed = 1;
nodes = (
(332,95,ls),
(502,95,o),
(608,185,o),
(608,349,cs),
(608,509,o),
(502,601,o),
(332,601,cs),
(152,601,l),
(152,410,l),
(328,410,ls),
(376,410,o),
(395,378,o),
(395,349,cs),
(395,319,o),
(376,286,o),
(328,286,cs),
(152,286,l),
(152,95,l)
);
},
{
closed = 1;
nodes = (
(268,0,l),
(268,700,l),
(52,700,l),
(52,0,l)
);
}
);
width = 629;
},
{
hints = (
{
horizontal = 1;
origin = (1,3);
target = up;
type = BottomGhost;
},
{
horizontal = 1;
origin = (0,17);
target = (0,16);
type = Stem;
},
{
horizontal = 1;
origin = (0,9);
target = (0,7);
type = Stem;
},
{
horizontal = 1;
origin = (1,2);
target = down;
type = TopGhost;
},
{
origin = (1,3);
target = (1,1);
type = Stem;
},
{
origin = (0,12);
target = (0,3);
type = Stem;
}
);
layerId = "9E4DF390-DC64-4DFF-9707-6073A03EA565";
shapes = (
{
closed = 1;
nodes = (
(323,122,ls),
(480,122,o),
(581,207,o),
(581,349,cs),
(581,492,o),
(480,578,o),
(323,578,cs),
(144,578,l),
(144,443,l),
(331,443,ls),
(389,443,o),
(423,402,o),
(423,349,cs),
(423,296,o),
(389,254,o),
(331,254,cs),
(144,254,l),
(144,122,l)
);
},
{
closed = 1;
nodes = (
(230,0,l),
(230,700,l),
(70,700,l),
(70,0,l)
);
}
);
width = 611;
}
);
unicode = 222;
},
{
glyphname = R;
kernLeft = H;
kernRight = R;
lastChange = "2025-08-05 14:22:18 +0000";
layers = (
{
anchors = (
{
name = bottom;
pos = (289,0);
},
{
name = top;
pos = (266,700);
}
);
layerId = "7A502162-43D8-4289-B728-53226767971B";
shapes = (
{
closed = 1;
nodes = (
(129,0,l),
(129,685,l),
(116,672,l),
(287,672,ls),
(402,672,o),
(478,617,o),
(478,506,cs),
(478,386,o),
(402,342,o),
(287,342,cs),
(114,342,l),
(114,314,l),
(287,314,ls),
(420,314,o),
(508,368,o),
(508,506,cs),
(508,635,o),
(420,700,o),
(287,700,cs),
(100,700,l),
(100,0,l)
);
},
{
closed = 1;
nodes = (
(529,0,l),
(297,327,l),
(260,327,l),
(492,0,l)
);
}
);
width = 573;
},
{
anchors = (
{
name = bottom;
pos = (338,0);
},
{
name = top;
pos = (330,700);
}
);
hints = (
{
horizontal = 1;
origin = (1,3);
target = up;
type = BottomGhost;
},
{
horizontal = 1;
origin = (0,12);
target = (0,10);
type = Stem;
},
{
horizontal = 1;
origin = (0,19);
target = (0,3);
type = Stem;
},
{
origin = (0,20);
target = (0,1);
type = Stem;
},
{
origin = (0,6);
target = (0,15);
type = Stem;
}
);
layerId = "413C4000-F51E-49A0-99E6-BF5D502A191B";
shapes = (
{
closed = 1;
nodes = (
(270,0,l),
(270,601,l),
(180,515,l),
(341,515,ls),
(384,515,o),
(413,491,o),
(413,455,cs),
(413,415,o),
(384,389,o),
(341,389,cs),
(150,389,l),
(150,204,l),
(362,204,ls),
(524,204,o),
(634,298,o),
(634,455,cs),
(634,611,o),
(524,700,o),
(362,700,cs),
(52,700,l),
(52,0,l)
);
},
{
closed = 1;
nodes = (
(655,0,l),
(511,277,l),
(283,277,l),
(408,0,l)
);
}
);
width = 665;
},
{
anchors = (
{
name = bottom;
pos = (327,0);
},
{
name = top;
pos = (314,700);
}
);
hints = (
{
horizontal = 1;
origin = (1,3);
target = up;
type = BottomGhost;
},
{
horizontal = 1;
origin = (0,12);
target = (0,10);
type = Stem;
},
{
horizontal = 1;
origin = (0,19);
target = (0,3);
type = Stem;
},
{
origin = (0,20);
target = (0,1);
type = Stem;
},
{
origin = (0,6);
target = (0,15);
type = Stem;
}
);
layerId = "9E4DF390-DC64-4DFF-9707-6073A03EA565";
shapes = (
{
closed = 1;
nodes = (
(230,0,l),
(230,626,l),
(164,566,l),
(338,566,ls),
(396,566,o),
(436,524,o),
(436,467,cs),
(436,410,o),
(396,370,o),
(338,370,cs),
(143,370,l),
(143,237,l),
(346,237,ls),
(499,237,o),
(600,319,o),
(600,470,cs),
(600,618,o),
(499,700,o),
(346,700,cs),
(70,700,l),
(70,0,l)
);
},
{
closed = 1;
nodes = (
(621,0,l),
(458,306,l),
(286,306,l),
(439,0,l)
);
}
);
width = 646;
}
);
unicode = 82;
},
{
glyphname = S;
kernLeft = S;
kernRight = S;
lastChange = "2025-08-05 14:22:12 +0000";
layers = (
{
anchors = (
{
name = bottom;
pos = (253,0);
},
{
name = top;
pos = (288,700);
}
);
layerId = "7A502162-43D8-4289-B728-53226767971B";
shapes = (
{
closed = 1;
nodes = (
(384,-10,o),
(475,64,o),
(475,187,cs),
(475,442,o),
(91,307,o),
(91,523,cs),
(91,618,o),
(165,683,o),
(279,683,cs),
(343,683,o),
(393,663,o),
(430,625,c),
(449,646,l),
(411,687,o),
(353,710,o),
(280,710,cs),
(148,710,o),
(62,635,o),
(62,520,cs),
(62,280,o),
(445,410,o),
(445,184,cs),
(445,84,o),
(371,17,o),
(254,17,cs),
(176,17,o),
(110,47,o),
(68,100,c),
(49,79,l),
(93,23,o),
(165,-10,o),
(253,-10,cs)
);
}
);
width = 523;
},
{
anchors = (
{
name = bottom;
pos = (296,0);
},
{
name = top;
pos = (301,700);
}
);
hints = (
{
horizontal = 1;
origin = (0,31);
target = (0,24);
type = Stem;
},
{
horizontal = 1;
origin = (0,15);
target = (0,8);
type = Stem;
},
{
origin = (0,18);
target = (0,5);
type = Stem;
},
{
origin = (0,21);
target = (0,2);
type = Stem;
}
);
layerId = "413C4000-F51E-49A0-99E6-BF5D502A191B";
shapes = (
{
closed = 1;
nodes = (
(460,-15,o),
(567,83,o),
(567,227,cs),
(567,478,o),
(252,422,o),
(252,502,cs),
(252,523,o),
(271,537,o),
(303,537,cs),
(348,537,o),
(387,522,o),
(450,470,c),
(568,608,l),
(514,667,o),
(415,715,o),
(300,715,cs),
(138,715,o),
(31,628,o),
(31,483,cs),
(31,228,o),
(346,285,o),
(346,198,cs),
(346,177,o),
(326,163,o),
(295,163,cs),
(250,163,o),
(208,175,o),
(133,239,c),
(6,103,l),
(71,28,o),
(163,-15,o),
(288,-15,cs)
);
}
);
width = 589;
},
{
anchors = (
{
name = bottom;
pos = (284,0);
},
{
name = top;
pos = (298,700);
}
);
hints = (
{
horizontal = 1;
origin = (0,31);
target = (0,24);
type = Stem;
},
{
horizontal = 1;
origin = (0,15);
target = (0,8);
type = Stem;
},
{
origin = (0,18);
target = (0,5);
type = Stem;
},
{
origin = (0,21);
target = (0,2);
type = Stem;
}
);
layerId = "9E4DF390-DC64-4DFF-9707-6073A03EA565";
shapes = (
{
closed = 1;
nodes = (
(431,-15,o),
(540,77,o),
(540,215,cs),
(540,467,o),
(200,382,o),
(200,509,cs),
(200,553,o),
(238,581,o),
(295,581,cs),
(344,581,o),
(381,560,o),
(423,517,c),
(525,618,l),
(474,676,o),
(392,715,o),
(295,715,cs),
(142,715,o),
(41,630,o),
(41,494,cs),
(41,250,o),
(376,326,o),
(376,191,cs),
(376,149,o),
(340,119,o),
(277,119,cs),
(225,119,o),
(181,139,o),
(123,195,c),
(24,97,l),
(82,30,o),
(160,-15,o),
(271,-15,cs)
);
}
);
width = 570;
}
);
unicode = 83;
},
{
glyphname = Germandbls;
lastChange = "2025-08-05 14:22:05 +0000";
layers = (
{
layerId = "7A502162-43D8-4289-B728-53226767971B";
shapes = (
{
closed = 1;
nodes = (
(521,-10,o),
(601,69,o),
(601,180,cs),
(601,267,o),
(543,337,o),
(473,366,c),
(473,354,l),
(579,579,l),
(533,662,o),
(445,710,o),
(343,710,cs),
(198,710,o),
(93,614,o),
(93,453,cs),
(93,0,l),
(121,0,l),
(121,453,ls),
(121,596,o),
(215,682,o),
(343,682,cs),
(432,682,o),
(509,639,o),
(551,567,c),
(550,585,l),
(441,352,l),
(515,325,o),
(573,260,o),
(573,181,cs),
(573,86,o),
(505,19,o),
(398,19,cs),
(349,19,o),
(299,33,o),
(263,59,c),
(250,35,l),
(284,11,o),
(341,-10,o),
(402,-10,cs)
);
}
);
width = 658;
},
{
hints = (
{
horizontal = 1;
origin = (0,37);
target = (0,30);
type = Stem;
},
{
horizontal = 1;
origin = (0,10);
target = (0,19);
type = Stem;
},
{
horizontal = 1;
origin = (0,15);
target = (0,14);
type = Stem;
},
{
origin = (0,14);
target = (0,16);
type = Stem;
},
{
origin = (0,27);
target = (0,2);
type = Stem;
}
);
layerId = "413C4000-F51E-49A0-99E6-BF5D502A191B";
shapes = (
{
closed = 1;
nodes = (
(588,-10,o),
(685,76,o),
(685,209,cs),
(685,285,o),
(652,338,o),
(566,379,c),
(575,345,l),
(682,560,l),
(598,670,o),
(492,715,o),
(370,715,cs),
(186,715,o),
(45,608,o),
(45,410,cs),
(45,0,l),
(260,0,l),
(260,409,ls),
(260,474,o),
(298,518,o),
(362,518,cs),
(397,518,o),
(433,504,o),
(457,479,c),
(445,536,l),
(335,299,l),
(437,269,o),
(464,254,o),
(464,219,cs),
(464,193,o),
(440,184,o),
(416,184,cs),
(397,184,o),
(365,190,o),
(334,203,c),
(282,20,l),
(313,4,o),
(370,-10,o),
(434,-10,cs)
);
}
);
width = 712;
},
{
hints = (
{
horizontal = 1;
origin = (0,37);
target = (0,30);
type = Stem;
},
{
horizontal = 1;
origin = (0,10);
target = (0,19);
type = Stem;
},
{
horizontal = 1;
origin = (0,15);
target = (0,34);
type = Stem;
},
{
origin = (0,14);
target = (0,16);
type = Stem;
},
{
origin = (0,27);
target = (0,2);
type = Stem;
}
);
layerId = "9E4DF390-DC64-4DFF-9707-6073A03EA565";
shapes = (
{
closed = 1;
nodes = (
(551,-10,o),
(646,71,o),
(646,199,cs),
(646,274,o),
(607,336,o),
(540,374,c),
(540,348,l),
(645,560,l),
(569,666,o),
(475,715,o),
(363,715,cs),
(191,715,o),
(63,611,o),
(63,423,cs),
(63,0,l),
(223,0,l),
(223,422,ls),
(223,525,o),
(278,567,o),
(353,567,cs),
(404,567,o),
(448,543,o),
(477,499,c),
(468,545,l),
(361,315,l),
(450,285,o),
(482,248,o),
(482,203,cs),
(482,157,o),
(447,138,o),
(403,138,cs),
(375,138,o),
(342,146,o),
(313,160,c),
(267,28,l),
(305,5,o),
(351,-10,o),
(412,-10,cs)
);
}
);
width = 687;
}
);
unicode = 7838;
},
{
glyphname = T;
kernLeft = T;
kernRight = T;
lastChange = "2025-08-05 14:22:00 +0000";
layers = (
{
anchors = (
{
name = bottom;
pos = (256,0);
},
{
name = center;
pos = (256,368);
},
{
name = top;
pos = (256,700);
}
);
layerId = "7A502162-43D8-4289-B728-53226767971B";
shapes = (
{
closed = 1;
nodes = (
(271,0,l),
(271,686,l),
(241,686,l),
(241,0,l)
);
},
{
closed = 1;
nodes = (
(499,672,l),
(499,700,l),
(13,700,l),
(13,672,l)
);
}
);
width = 512;
},
{
anchors = (
{
name = bottom;
pos = (291,0);
},
{
name = center;
pos = (291,325);
},
{
name = top;
pos = (293,700);
}
);
hints = (
{
horizontal = 1;
origin = (0,3);
target = up;
type = BottomGhost;
},
{
horizontal = 1;
origin = (1,2);
target = (1,3);
type = Stem;
},
{
origin = (0,3);
target = (0,1);
type = Stem;
}
);
layerId = "413C4000-F51E-49A0-99E6-BF5D502A191B";
shapes = (
{
closed = 1;
nodes = (
(400,0,l),
(400,610,l),
(181,610,l),
(181,0,l)
);
},
{
closed = 1;
nodes = (
(574,505,l),
(574,700,l),
(11,700,l),
(11,505,l)
);
}
);
width = 585;
},
{
anchors = (
{
name = bottom;
pos = (283,0);
},
{
name = center;
pos = (283,338);
},
{
name = top;
pos = (284,700);
}
);
hints = (
{
horizontal = 1;
origin = (0,3);
target = up;
type = BottomGhost;
},
{
horizontal = 1;
origin = (1,2);
target = (1,3);
type = Stem;
},
{
origin = (0,3);
target = (0,1);
type = Stem;
}
);
layerId = "9E4DF390-DC64-4DFF-9707-6073A03EA565";
shapes = (
{
closed = 1;
nodes = (
(363,0,l),
(363,633,l),
(202,633,l),
(202,0,l)
);
},
{
closed = 1;
nodes = (
(554,555,l),
(554,700,l),
(14,700,l),
(14,555,l)
);
}
);
width = 568;
}
);
unicode = 84;
},
{
glyphname = U;
kernLeft = U;
kernRight = U;
lastChange = "2025-08-05 14:21:27 +0000";
layers = (
{
anchors = (
{
name = bottom;
pos = (339,0);
},
{
name = ogonek;
pos = (410,0);
},
{
name = top;
pos = (340,700);
},
{
name = topright;
pos = (557,700);
}
);
layerId = "7A502162-43D8-4289-B728-53226767971B";
shapes = (
{
closed = 1;
nodes = (
(490,-10,o),
(585,80,o),
(585,228,cs),
(585,700,l),
(557,700,l),
(557,229,ls),
(557,99,o),
(472,18,o),
(339,18,cs),
(207,18,o),
(122,99,o),
(122,229,cs),
(122,700,l),
(94,700,l),
(94,228,ls),
(94,80,o),
(189,-10,o),
(339,-10,cs)
);
}
);
width = 679;
},
{
anchors = (
{
name = bottom;
pos = (357,0);
},
{
name = ogonek;
pos = (458,0);
},
{
name = top;
pos = (358,700);
},
{
name = topright;
pos = (449,700);
}
);
hints = (
{
horizontal = 1;
origin = (0,17);
target = (0,8);
type = Stem;
},
{
horizontal = 1;
origin = (0,13);
target = down;
type = TopGhost;
},
{
origin = (0,12);
target = (0,14);
type = Stem;
},
{
origin = (0,3);
target = (0,5);
type = Stem;
}
);
layerId = "413C4000-F51E-49A0-99E6-BF5D502A191B";
shapes = (
{
closed = 1;
nodes = (
(544,-15,o),
(667,86,o),
(667,257,cs),
(667,700,l),
(449,700,l),
(449,279,ls),
(449,227,o),
(410,193,o),
(357,193,cs),
(303,193,o),
(264,227,o),
(264,279,cs),
(264,700,l),
(46,700,l),
(46,257,ls),
(46,86,o),
(169,-15,o),
(357,-15,cs)
);
}
);
width = 713;
},
{
anchors = (
{
name = bottom;
pos = (346,0);
},
{
name = ogonek;
pos = (438,0);
},
{
name = top;
pos = (347,700);
},
{
name = topright;
pos = (467,700);
}
);
hints = (
{
horizontal = 1;
origin = (0,17);
target = (0,8);
type = Stem;
},
{
horizontal = 1;
origin = (0,13);
target = down;
type = TopGhost;
},
{
origin = (0,12);
target = (0,14);
type = Stem;
},
{
origin = (0,3);
target = (0,5);
type = Stem;
}
);
layerId = "9E4DF390-DC64-4DFF-9707-6073A03EA565";
shapes = (
{
closed = 1;
nodes = (
(515,-15,o),
(628,67,o),
(628,248,cs),
(628,700,l),
(467,700,l),
(467,261,ls),
(467,170,o),
(419,133,o),
(346,133,cs),
(273,133,o),
(225,170,o),
(225,261,cs),
(225,700,l),
(64,700,l),
(64,248,ls),
(64,67,o),
(175,-15,o),
(346,-15,cs)
);
}
);
width = 692;
}
);
unicode = 85;
},
{
color = 8;
glyphname = Uhorn;
kernLeft = U;
kernRight = Uhorn;
lastChange = "2025-08-05 14:21:09 +0000";
layers = (
{
anchors = (
{
name = bottom;
pos = (339,0);
},
{
name = top;
pos = (340,700);
}
);
layerId = "7A502162-43D8-4289-B728-53226767971B";
shapes = (
{
closed = 1;
nodes = (
(490,-10,o),
(585,80,o),
(585,228,cs),
(585,689,l),
(574,676,l),
(667,673,o),
(707,722,o),
(695,808,c),
(667,808,l),
(676,739,o),
(649,700,o),
(584,700,cs),
(557,700,l),
(557,229,ls),
(557,99,o),
(472,18,o),
(339,18,cs),
(207,18,o),
(122,99,o),
(122,229,cs),
(122,700,l),
(94,700,l),
(94,228,ls),
(94,80,o),
(189,-10,o),
(339,-10,cs)
);
}
);
width = 688;
},
{
anchors = (
{
name = bottom;
pos = (357,0);
},
{
name = top;
pos = (358,700);
}
);
hints = (
{
horizontal = 1;
origin = (0,25);
target = (0,16);
type = Stem;
},
{
horizontal = 1;
origin = (0,21);
target = down;
type = TopGhost;
},
{
origin = (0,20);
target = (0,22);
type = Stem;
},
{
origin = (0,3);
target = (0,13);
type = Stem;
}
);
layerId = "413C4000-F51E-49A0-99E6-BF5D502A191B";
shapes = (
{
closed = 1;
nodes = (
(544,-15,o),
(667,86,o),
(667,257,cs),
(667,689,l),
(600,576,l),
(729,602,o),
(762,681,o),
(732,808,c),
(541,808,l),
(563,726,o),
(545,700,o),
(480,700,cs),
(449,700,l),
(449,279,ls),
(449,227,o),
(410,193,o),
(357,193,cs),
(303,193,o),
(264,227,o),
(264,279,cs),
(264,700,l),
(46,700,l),
(46,257,ls),
(46,86,o),
(169,-15,o),
(357,-15,cs)
);
}
);
width = 732;
},
{
anchors = (
{
name = bottom;
pos = (346,0);
},
{
name = top;
pos = (347,700);
}
);
hints = (
{
horizontal = 1;
origin = (0,25);
target = (0,16);
type = Stem;
},
{
horizontal = 1;
origin = (0,21);
target = down;
type = TopGhost;
},
{
origin = (0,20);
target = (0,22);
type = Stem;
},
{
origin = (0,3,0,7);
stem = 1000;
target = (0,13);
type = Stem;
}
);
layerId = "9E4DF390-DC64-4DFF-9707-6073A03EA565";
shapes = (
{
closed = 1;
nodes = (
(515,-15,o),
(628,67,o),
(628,248,cs),
(628,685,l),
(575,604,l),
(697,621,o),
(732,694,o),
(706,808,c),
(564,808,l),
(583,731,o),
(563,700,o),
(497,700,cs),
(467,700,l),
(467,261,ls),
(467,170,o),
(419,133,o),
(346,133,cs),
(273,133,o),
(225,170,o),
(225,261,cs),
(225,700,l),
(64,700,l),
(64,248,ls),
(64,67,o),
(175,-15,o),
(346,-15,cs)
);
}
);
width = 709;
}
);
unicode = 431;
},
{
glyphname = V;
lastChange = "2025-08-05 14:21:17 +0000";
layers = (
{
layerId = "7A502162-43D8-4289-B728-53226767971B";
shapes = (
{
closed = 1;
nodes = (
(319,0,l),
(588,700,l),
(557,700,l),
(300,26,l),
(308,26,l),
(51,700,l),
(20,700,l),
(288,0,l)
);
}
);
width = 608;
},
{
hints = (
{
horizontal = 1;
origin = (0,7);
target = up;
type = BottomGhost;
},
{
horizontal = 1;
origin = (0,6);
target = down;
type = TopGhost;
}
);
layerId = "413C4000-F51E-49A0-99E6-BF5D502A191B";
shapes = (
{
closed = 1;
nodes = (
(467,0,l),
(710,700,l),
(479,700,l),
(312,160,l),
(391,160,l),
(223,700,l),
(-7,700,l),
(234,0,l)
);
}
);
width = 702;
},
{
hints = (
{
horizontal = 1;
origin = (0,7);
target = up;
type = BottomGhost;
},
{
horizontal = 1;
origin = (0,6);
target = down;
type = TopGhost;
}
);
layerId = "9E4DF390-DC64-4DFF-9707-6073A03EA565";
shapes = (
{
closed = 1;
nodes = (
(422,0,l),
(673,700,l),
(502,700,l),
(308,120,l),
(366,120,l),
(171,700,l),
(1,700,l),
(250,0,l)
);
}
);
width = 673;
}
);
unicode = 86;
},
{
glyphname = W;
kernLeft = W;
kernRight = W;
lastChange = "2025-08-05 14:08:43 +0000";
layers = (
{
anchors = (
{
name = top;
pos = (485,700);
}
);
layerId = "7A502162-43D8-4289-B728-53226767971B";
shapes = (
{
closed = 1;
nodes = (
(273,0,l),
(489,670,l),
(480,670,l),
(697,0,l),
(726,0,l),
(944,700,l),
(914,700,l),
(708,29,l),
(716,29,l),
(500,700,l),
(469,700,l),
(253,28,l),
(262,28,l),
(55,700,l),
(25,700,l),
(243,0,l)
);
}
);
width = 969;
},
{
anchors = (
{
name = top;
pos = (514,700);
}
);
hints = (
{
horizontal = 1;
origin = (0,15);
target = up;
type = BottomGhost;
},
{
horizontal = 1;
origin = (0,14);
target = down;
type = TopGhost;
}
);
layerId = "413C4000-F51E-49A0-99E6-BF5D502A191B";
shapes = (
{
closed = 1;
nodes = (
(401,0,l),
(544,546,l),
(484,546,l),
(626,0,l),
(850,0,l),
(1026,700,l),
(808,700,l),
(696,169,l),
(783,169,l),
(635,700,l),
(394,700,l),
(244,169,l),
(330,169,l),
(220,700,l),
(0,700,l),
(177,0,l)
);
}
);
width = 1026;
},
{
anchors = (
{
name = top;
pos = (507,700);
}
);
hints = (
{
horizontal = 1;
origin = (0,15);
target = up;
type = BottomGhost;
},
{
horizontal = 1;
origin = (0,14);
target = down;
type = TopGhost;
}
);
layerId = "9E4DF390-DC64-4DFF-9707-6073A03EA565";
shapes = (
{
closed = 1;
nodes = (
(364,0,l),
(529,583,l),
(484,583,l),
(649,0,l),
(814,0,l),
(1003,700,l),
(841,700,l),
(701,127,l),
(764,127,l),
(596,700,l),
(418,700,l),
(248,127,l),
(311,127,l),
(172,700,l),
(9,700,l),
(198,0,l)
);
}
);
width = 1012;
}
);
unicode = 87;
},
{
glyphname = X;
lastChange = "2025-08-05 14:08:36 +0000";
layers = (
{
layerId = "7A502162-43D8-4289-B728-53226767971B";
shapes = (
{
closed = 1;
nodes = (
(54,0,l),
(295,327,l),
(536,0,l),
(570,0,l),
(315,349,l),
(561,700,l),
(526,700,l),
(295,372,l),
(65,700,l),
(29,700,l),
(275,349,l),
(20,0,l)
);
}
);
width = 590;
},
{
hints = (
{
horizontal = 1;
origin = (0,11);
target = up;
type = BottomGhost;
},
{
horizontal = 1;
origin = (0,9);
target = down;
type = TopGhost;
}
);
layerId = "413C4000-F51E-49A0-99E6-BF5D502A191B";
shapes = (
{
closed = 1;
nodes = (
(239,0,l),
(352,210,l),
(468,0,l),
(713,0,l),
(505,359,l),
(713,700,l),
(453,700,l),
(352,509,l),
(251,700,l),
(-6,700,l),
(200,359,l),
(-8,0,l)
);
}
);
width = 706;
},
{
hints = (
{
horizontal = 1;
origin = (0,11);
target = up;
type = BottomGhost;
},
{
horizontal = 1;
origin = (0,9);
target = down;
type = TopGhost;
}
);
layerId = "9E4DF390-DC64-4DFF-9707-6073A03EA565";
shapes = (
{
closed = 1;
nodes = (
(186,0,l),
(338,245,l),
(491,0,l),
(673,0,l),
(451,356,l),
(670,700,l),
(478,700,l),
(338,468,l),
(198,700,l),
(7,700,l),
(225,356,l),
(3,0,l)
);
}
);
width = 676;
}
);
unicode = 88;
},
{
glyphname = Y;
kernLeft = Y;
kernRight = Y;
lastChange = "2025-08-05 14:08:18 +0000";
layers = (
{
anchors = (
{
name = bottom;
pos = (300,0);
},
{
name = top;
pos = (300,700);
}
);
layerId = "7A502162-43D8-4289-B728-53226767971B";
shapes = (
{
closed = 1;
nodes = (
(314,0,l),
(314,305,l),
(582,700,l),
(548,700,l),
(293,324,l),
(306,324,l),
(50,700,l),
(17,700,l),
(285,305,l),
(285,0,l)
);
}
);
width = 599;
},
{
anchors = (
{
name = bottom;
pos = (329,0);
},
{
name = top;
pos = (329,700);
}
);
hints = (
{
horizontal = 1;
origin = (0,0);
target = up;
type = BottomGhost;
},
{
horizontal = 1;
origin = (0,3);
target = down;
type = TopGhost;
},
{
origin = (0,9);
target = (0,1);
type = Stem;
}
);
layerId = "413C4000-F51E-49A0-99E6-BF5D502A191B";
shapes = (
{
closed = 1;
nodes = (
(437,0,l),
(437,275,l),
(666,700,l),
(434,700,l),
(286,413,l),
(370,413,l),
(223,700,l),
(-10,700,l),
(219,275,l),
(219,0,l)
);
}
);
width = 656;
},
{
anchors = (
{
name = bottom;
pos = (319,0);
},
{
name = top;
pos = (319,700);
}
);
hints = (
{
horizontal = 1;
origin = (0,0);
target = up;
type = BottomGhost;
},
{
horizontal = 1;
origin = (0,3);
target = down;
type = TopGhost;
},
{
origin = (0,9);
target = (0,1);
type = Stem;
}
);
layerId = "9E4DF390-DC64-4DFF-9707-6073A03EA565";
shapes = (
{
closed = 1;
nodes = (
(399,0,l),
(399,284,l),
(640,700,l),
(467,700,l),
(287,386,l),
(350,386,l),
(170,700,l),
(-3,700,l),
(238,284,l),
(238,0,l)
);
}
);
width = 637;
}
);
unicode = 89;
},
{
glyphname = Z;
kernLeft = Z;
kernRight = Z;
lastChange = "2025-08-05 14:08:11 +0000";
layers = (
{
anchors = (
{
name = top;
pos = (282,700);
}
);
layerId = "7A502162-43D8-4289-B728-53226767971B";
shapes = (
{
closed = 1;
nodes = (
(523,0,l),
(523,28,l),
(57,28,l),
(63,19,l),
(523,674,l),
(523,700,l),
(40,700,l),
(40,672,l),
(497,672,l),
(492,681,l),
(30,26,l),
(30,0,l)
);
}
);
width = 557;
},
{
anchors = (
{
name = top;
pos = (308,700);
}
);
hints = (
{
horizontal = 1;
origin = (0,11);
target = (0,2);
type = Stem;
},
{
horizontal = 1;
origin = (0,6);
target = (0,8);
type = Stem;
}
);
layerId = "413C4000-F51E-49A0-99E6-BF5D502A191B";
shapes = (
{
closed = 1;
nodes = (
(579,0,l),
(579,187,l),
(199,187,l),
(228,118,l),
(574,520,l),
(574,700,l),
(42,700,l),
(42,513,l),
(389,513,l),
(357,584,l),
(26,189,l),
(26,0,l)
);
}
);
width = 609;
},
{
anchors = (
{
name = top;
pos = (306,700);
}
);
hints = (
{
horizontal = 1;
origin = (0,11);
target = (0,2);
type = Stem;
},
{
horizontal = 1;
origin = (0,6);
target = (0,8);
type = Stem;
}
);
layerId = "9E4DF390-DC64-4DFF-9707-6073A03EA565";
shapes = (
{
closed = 1;
nodes = (
(568,0,l),
(568,139,l),
(162,139,l),
(184,88,l),
(564,566,l),
(564,700,l),
(47,700,l),
(47,561,l),
(427,561,l),
(403,613,l),
(33,140,l),
(33,0,l)
);
}
);
width = 605;
}
);
unicode = 90;
},
{
glyphname = a;
kernLeft = a;
kernRight = a;
lastChange = "2025-08-05 14:56:26 +0000";
layers = (
{
anchors = (
{
name = bottom;
pos = (240,0);
},
{
name = ogonek;
pos = (410,0);
},
{
name = top;
pos = (239,472);
}
);
layerId = "7A502162-43D8-4289-B728-53226767971B";
shapes = (
{
closed = 1;
nodes = (
(410,0,l),
(408,54,o),
(407,107,o),
(407,161,cs),
(407,309,ls),
(407,427,o),
(341,482,o),
(239,482,cs),
(176,482,o),
(109,461,o),
(66,410,c),
(83,389,l),
(122,437,o),
(183,454,o),
(239,454,cs),
(326,454,o),
(378,410,o),
(378,309,cs),
(378,161,l),
(380,157,l),
(383,0,l)
);
},
{
closed = 1;
nodes = (
(340,-10,o),
(397,45,o),
(397,128,c),
(400,128,l),
(400,207,o),
(340,260,o),
(228,260,cs),
(115,260,o),
(47,205,o),
(47,126,cs),
(47,44,o),
(117,-10,o),
(227,-10,cs)
);
},
{
closed = 1;
nodes = (
(134,15,o),
(77,62,o),
(77,126,cs),
(77,191,o),
(134,235,o),
(230,235,cs),
(326,235,o),
(378,191,o),
(378,125,cs),
(378,61,o),
(327,15,o),
(231,15,cs)
);
}
);
width = 489;
},
{
anchors = (
{
name = bottom;
pos = (252,0);
},
{
name = ogonek;
pos = (514,0);
},
{
name = top;
pos = (266,502);
}
);
hints = (
{
horizontal = 1;
origin = (2,5);
target = (1,6);
type = Stem;
},
{
horizontal = 1;
origin = (0,7);
target = (0,14);
type = Stem;
},
{
horizontal = 1;
origin = (1,12);
target = (2,11);
type = Stem;
},
{
origin = (1,9);
target = (2,2);
type = Stem;
},
{
origin = (2,8);
target = (0,0);
type = Stem;
}
);
layerId = "413C4000-F51E-49A0-99E6-BF5D502A191B";
shapes = (
{
closed = 1;
nodes = (
(514,0,l),
(511,50,o),
(511,101,o),
(511,153,cs),
(511,319,ls),
(511,440,o),
(408,512,o),
(266,512,cs),
(164,512,o),
(70,475,o),
(24,428,c),
(102,301,l),
(140,329,o),
(202,350,o),
(251,350,cs),
(291,350,o),
(311,335,o),
(311,305,cs),
(311,208,l),
(335,208,l),
(335,0,l)
);
},
{
closed = 1;
nodes = (
(309,-10,o),
(356,47,o),
(356,149,c),
(420,149,l),
(420,238,o),
(363,297,o),
(231,297,cs),
(89,297,o),
(12,235,o),
(12,140,cs),
(12,52,o),
(88,-10,o),
(200,-10,cs)
);
},
{
closed = 1;
nodes = (
(235,117,o),
(215,132,o),
(215,153,cs),
(215,173,o),
(235,188,o),
(262,188,cs),
(291,188,o),
(312,173,o),
(312,153,cs),
(312,132,o),
(291,117,o),
(262,117,cs)
);
}
);
width = 549;
},
{
anchors = (
{
name = bottom;
pos = (246,0);
},
{
name = ogonek;
pos = (476,0);
},
{
name = top;
pos = (256,493);
}
);
hints = (
{
horizontal = 1;
origin = (2,5);
target = (1,6);
type = Stem;
},
{
horizontal = 1;
origin = (0,7);
target = (0,14);
type = Stem;
},
{
horizontal = 1;
origin = (1,12);
target = (2,11);
type = Stem;
},
{
origin = (1,9);
target = (2,2);
type = Stem;
},
{
place = (334,139);
target = (0,3);
type = Stem;
}
);
layerId = "9E4DF390-DC64-4DFF-9707-6073A03EA565";
shapes = (
{
closed = 1;
nodes = (
(476,0,l),
(473,52,o),
(473,103,o),
(473,155,cs),
(473,316,ls),
(473,436,o),
(383,503,o),
(256,503,cs),
(168,503,o),
(84,470,o),
(40,423,c),
(106,324,l),
(144,355,o),
(200,374,o),
(246,374,cs),
(290,374,o),
(325,356,o),
(325,307,cs),
(325,202,l),
(343,145,l),
(343,0,l)
);
},
{
closed = 1;
nodes = (
(315,-10,o),
(364,46,o),
(364,145,c),
(408,145,l),
(408,231,o),
(351,288,o),
(230,288,cs),
(99,288,o),
(27,226,o),
(27,136,cs),
(27,50,o),
(99,-10,o),
(208,-10,cs)
);
},
{
closed = 1;
nodes = (
(208,98,o),
(177,117,o),
(177,145,cs),
(177,172,o),
(208,191,o),
(251,191,cs),
(295,191,o),
(326,172,o),
(326,145,cs),
(326,117,o),
(295,98,o),
(251,98,cs)
);
}
);
width = 527;
},
{
anchors = (
{
name = bottom;
pos = (243,0);
},
{
name = ogonek;
pos = (438,0);
},
{
name = top;
pos = (246,481);
}
);
associatedMasterId = "7A502162-43D8-4289-B728-53226767971B";
attr = {
coordinates = (
400
);
};
background = {
shapes = (
{
closed = 1;
nodes = (
(439,0,l),
(436,53,o),
(436,105,o),
(436,158,cs),
(436,312,ls),
(436,431,o),
(359,491,o),
(247,491,cs),
(173,491,o),
(101,464,o),
(55,416,c),
(93,359,l),
(135,398,o),
(194,418,o),
(244,418,cs),
(319,418,o),
(356,383,o),
(356,311,cs),
(356,209,l),
(366,182,l),
(366,0,l)
);
},
{
closed = 1;
nodes = (
(336,-10,o),
(392,45,o),
(392,144,c),
(408,144,l),
(408,227,o),
(344,281,o),
(233,281,cs),
(109,281,o),
(39,214,o),
(39,132,cs),
(39,47,o),
(110,-10,o),
(224,-10,cs)
);
},
{
closed = 1;
nodes = (
(167,51,o),
(120,83,o),
(120,134,cs),
(120,184,o),
(166,216,o),
(239,216,cs),
(312,216,o),
(356,184,o),
(356,134,cs),
(356,83,o),
(311,51,o),
(239,51,cs)
);
}
);
};
layerId = "93D6000C-A7A8-4D44-ABEB-E28AB807E583";
name = "4. Aug. 25, 16:19";
shapes = (
{
closed = 1;
nodes = (
(438,0,l),
(436,52,o),
(435,105,o),
(435,158,cs),
(435,312,ls),
(435,431,o),
(359,491,o),
(246,491,cs),
(173,491,o),
(98,465,o),
(55,416,c),
(93,359,l),
(131,399,o),
(190,418,o),
(242,418,cs),
(311,418,o),
(355,387,o),
(355,308,cs),
(355,179,l),
(364,152,l),
(366,0,l)
);
},
{
closed = 1;
nodes = (
(329,-10,o),
(394,45,o),
(394,140,c),
(409,140,l),
(409,224,o),
(345,281,o),
(229,281,cs),
(120,281,o),
(38,218,o),
(38,134,cs),
(38,49,o),
(109,-10,o),
(219,-10,cs)
);
},
{
closed = 1;
nodes = (
(166,51,o),
(120,86,o),
(120,134,cs),
(120,183,o),
(166,216,o),
(239,216,cs),
(313,216,o),
(356,183,o),
(356,134,cs),
(356,85,o),
(313,51,o),
(240,51,cs)
);
}
);
width = 505;
}
);
unicode = 97;
},
{
glyphname = ae;
kernLeft = a;
kernRight = e;
lastChange = "2025-08-05 15:05:18 +0000";
layers = (
{
anchors = (
{
name = bottom;
pos = (398,0);
},
{
name = top;
pos = (398,472);
}
);
layerId = "7A502162-43D8-4289-B728-53226767971B";
shapes = (
{
closed = 1;
nodes = (
(649,-10,o),
(705,9,o),
(738,38,c),
(722,61,l),
(693,36,o),
(644,18,o),
(592,18,cs),
(474,18,o),
(392,106,o),
(392,234,cs),
(392,245,ls),
(392,367,o),
(465,454,o),
(573,454,cs),
(675,454,o),
(741,371,o),
(730,250,c),
(744,262,l),
(382,262,l),
(382,235,l),
(758,235,l),
(774,380,o),
(696,482,o),
(574,482,cs),
(481,482,o),
(406,425,o),
(379,335,c),
(390,335,l),
(388,430,o),
(331,482,o),
(235,482,cs),
(175,482,o),
(108,462,o),
(66,410,c),
(82,388,l),
(119,435,o),
(181,454,o),
(234,454,cs),
(316,454,o),
(364,409,o),
(364,327,cs),
(364,235,ls),
(364,91,o),
(457,-10,o),
(591,-10,cs)
);
},
{
closed = 1;
nodes = (
(328,-10,o),
(398,44,o),
(398,128,c),
(396,128,l),
(396,209,o),
(331,260,o),
(226,260,cs),
(115,260,o),
(48,205,o),
(48,126,cs),
(48,44,o),
(118,-10,o),
(224,-10,cs)
);
},
{
closed = 1;
nodes = (
(134,15,o),
(78,62,o),
(78,126,cs),
(78,191,o),
(133,235,o),
(227,235,cs),
(316,235,o),
(372,192,o),
(372,126,cs),
(372,58,o),
(315,15,o),
(227,15,cs)
);
}
);
width = 806;
},
{
anchors = (
{
name = bottom;
pos = (407,0);
},
{
name = top;
pos = (407,502);
}
);
hints = (
{
origin = (1,9);
target = (2,2);
type = Stem;
},
{
place = (593,193);
target = (0,20);
type = Stem;
},
{
horizontal = 1;
origin = (0,19);
target = (0,18);
type = Stem;
},
{
horizontal = 1;
origin = (0,44);
target = (0,6);
type = Stem;
},
{
horizontal = 1;
origin = (0,23);
target = (0,13);
type = Stem;
},
{
origin = (2,8);
target = (0,10);
type = Stem;
}
);
layerId = "413C4000-F51E-49A0-99E6-BF5D502A191B";
shapes = (
{
closed = 1;
nodes = (
(637,-10,o),
(721,12,o),
(775,68,c),
(665,194,l),
(633,168,o),
(607,155,o),
(566,155,cs),
(512,155,o),
(491,203,o),
(491,241,cs),
(491,257,ls),
(491,317,o),
(495,366,o),
(547,366,cs),
(587,366,o),
(614,319,o),
(581,223,c),
(682,306,l),
(443,306,l),
(443,207,l),
(786,207,l),
(804,395,o),
(707,512,o),
(546,512,cs),
(473,512,o),
(419,490,o),
(373,449,c),
(448,449,l),
(400,493,o),
(331,512,o),
(256,512,cs),
(160,512,o),
(69,475,o),
(24,428,c),
(102,300,l),
(137,325,o),
(195,350,o),
(243,350,cs),
(276,350,o),
(296,335,o),
(296,309,cs),
(296,247,ls),
(296,89,o),
(402,-10,o),
(555,-10,cs)
);
},
{
closed = 1;
nodes = (
(307,-10,o),
(405,43,o),
(405,149,c),
(398,149,l),
(398,237,o),
(347,297,o),
(222,297,cs),
(86,297,o),
(13,235,o),
(13,139,cs),
(13,53,o),
(87,-10,o),
(197,-10,cs)
);
},
{
closed = 1;
nodes = (
(231,117,o),
(211,132,o),
(211,153,cs),
(211,173,o),
(231,188,o),
(257,188,cs),
(282,188,o),
(300,173,o),
(300,153,cs),
(300,132,o),
(282,117,o),
(257,117,cs)
);
}
);
width = 806;
},
{
anchors = (
{
name = bottom;
pos = (408,0);
},
{
name = top;
pos = (408,493);
}
);
hints = (
{
origin = (1,9);
target = (2,2);
type = Stem;
},
{
place = (637,142);
target = (0,20);
type = Stem;
},
{
horizontal = 1;
origin = (0,19);
target = (0,18);
type = Stem;
},
{
horizontal = 1;
origin = (0,44);
target = (0,6);
type = Stem;
},
{
horizontal = 1;
origin = (0,23);
target = (0,13);
type = Stem;
},
{
origin = (0,41);
target = (0,10);
type = Stem;
}
);
layerId = "9E4DF390-DC64-4DFF-9707-6073A03EA565";
shapes = (
{
closed = 1;
nodes = (
(649,-10,o),
(717,14,o),
(759,71,c),
(674,158,l),
(648,130,o),
(623,115,o),
(577,115,cs),
(504,115,o),
(468,178,o),
(468,243,cs),
(468,253,ls),
(468,328,o),
(493,387,o),
(559,387,cs),
(617,387,o),
(655,330,o),
(629,231,c),
(704,297,l),
(428,297,l),
(428,200,l),
(779,200,l),
(803,384,o),
(711,503,o),
(558,503,cs),
(479,503,o),
(418,470,o),
(378,423,c),
(434,423,l),
(400,474,o),
(334,503,o),
(253,503,cs),
(168,503,o),
(84,471,o),
(40,423,c),
(106,324,l),
(142,354,o),
(197,374,o),
(243,374,cs),
(286,374,o),
(320,356,o),
(320,307,cs),
(320,243,ls),
(320,90,o),
(421,-10,o),
(569,-10,cs)
);
},
{
closed = 1;
nodes = (
(321,-10,o),
(410,46,o),
(410,145,c),
(403,145,l),
(403,231,o),
(347,288,o),
(228,288,cs),
(98,288,o),
(27,226,o),
(27,136,cs),
(27,50,o),
(103,-10,o),
(211,-10,cs)
);
},
{
closed = 1;
nodes = (
(207,98,o),
(177,117,o),
(177,145,cs),
(177,172,o),
(207,191,o),
(249,191,cs),
(291,191,o),
(321,172,o),
(321,145,cs),
(321,117,o),
(291,98,o),
(249,98,cs)
);
}
);
width = 812;
},
{
anchors = (
{
name = bottom;
pos = (402,0);
},
{
name = top;
pos = (402,481);
}
);
associatedMasterId = "7A502162-43D8-4289-B728-53226767971B";
attr = {
coordinates = (
400
);
};
background = {
shapes = (
{
closed = 1;
nodes = (
(645,-10,o),
(709,11,o),
(746,52,c),
(700,107,l),
(673,81,o),
(634,64,o),
(584,64,cs),
(485,64,o),
(423,132,o),
(423,233,cs),
(423,248,ls),
(423,350,o),
(476,421,o),
(564,421,cs),
(649,421,o),
(703,355,o),
(686,242,c),
(725,286,l),
(400,286,l),
(400,220,l),
(766,220,l),
(785,382,o),
(701,491,o),
(566,491,cs),
(479,491,o),
(410,444,o),
(377,373,c),
(407,373,l),
(392,449,o),
(331,491,o),
(241,491,cs),
(171,491,o),
(96,466,o),
(53,416,c),
(90,361,l),
(127,400,o),
(187,418,o),
(235,418,cs),
(302,418,o),
(344,384,o),
(344,317,cs),
(344,238,ls),
(344,91,o),
(437,-10,o),
(580,-10,cs)
);
},
{
closed = 1;
nodes = (
(340,-10,o),
(415,54,o),
(415,144,c),
(406,144,l),
(406,227,o),
(342,281,o),
(231,281,cs),
(107,281,o),
(47,213,o),
(47,134,cs),
(47,45,o),
(123,-10,o),
(227,-10,cs)
);
},
{
closed = 1;
nodes = (
(170,51,o),
(128,83,o),
(128,134,cs),
(128,184,o),
(164,216,o),
(237,216,cs),
(311,216,o),
(354,183,o),
(354,135,cs),
(354,85,o),
(307,51,o),
(237,51,cs)
);
}
);
};
layerId = "EBCB1000-4CB6-4553-8A06-3DD1DD59877C";
name = "4. Aug. 25, 16:21";
shapes = (
{
closed = 1;
nodes = (
(649,-10,o),
(711,12,o),
(747,52,c),
(701,107,l),
(674,81,o),
(635,64,o),
(586,64,cs),
(487,64,o),
(425,137,o),
(425,238,cs),
(425,248,ls),
(425,350,o),
(477,421,o),
(567,421,cs),
(650,421,o),
(704,353,o),
(687,242,c),
(727,286,l),
(402,286,l),
(402,220,l),
(767,220,l),
(786,381,o),
(702,491,o),
(567,491,cs),
(480,491,o),
(411,444,o),
(379,373,c),
(409,373,l),
(393,450,o),
(332,491,o),
(243,491,cs),
(172,491,o),
(97,465,o),
(55,416,c),
(92,361,l),
(128,400,o),
(188,418,o),
(238,418,cs),
(303,418,o),
(345,386,o),
(345,318,cs),
(345,238,ls),
(345,91,o),
(442,-10,o),
(582,-10,cs)
);
},
{
closed = 1;
nodes = (
(330,-10,o),
(412,47,o),
(412,140,c),
(399,140,l),
(399,225,o),
(338,281,o),
(227,281,cs),
(108,281,o),
(39,221,o),
(39,134,cs),
(39,49,o),
(112,-10,o),
(218,-10,cs)
);
},
{
closed = 1;
nodes = (
(165,51,o),
(120,86,o),
(120,134,cs),
(120,183,o),
(165,216,o),
(236,216,cs),
(305,216,o),
(350,183,o),
(350,134,cs),
(350,83,o),
(305,51,o),
(236,51,cs)
);
}
);
width = 809;
}
);
unicode = 230;
},
{
glyphname = b;
kernLeft = h;
kernRight = b;
lastChange = "2025-08-05 15:05:39 +0000";
layers = (
{
layerId = "7A502162-43D8-4289-B728-53226767971B";
shapes = (
{
closed = 1;
nodes = (
(442,-10,o),
(531,91,o),
(531,235,cs),
(531,244,ls),
(531,383,o),
(442,482,o),
(312,482,cs),
(218,482,o),
(144,425,o),
(113,337,c),
(117,331,l),
(117,730,l),
(88,730,l),
(88,0,l),
(116,0,l),
(116,141,l),
(112,136,l),
(143,47,o),
(217,-10,o),
(312,-10,cs)
);
},
{
closed = 1;
nodes = (
(198,17,o),
(116,107,o),
(116,236,cs),
(116,364,o),
(198,454,o),
(310,454,cs),
(424,454,o),
(502,367,o),
(502,244,cs),
(502,235,ls),
(502,107,o),
(424,17,o),
(310,17,cs)
);
}
);
width = 583;
},
{
hints = (
{
origin = (0,12);
target = (0,11);
type = Stem;
},
{
origin = (1,9);
target = (0,2);
type = Stem;
},
{
horizontal = 1;
origin = (0,6);
target = (1,5);
type = Stem;
},
{
horizontal = 1;
origin = (0,19);
target = (1,12);
type = Stem;
}
);
layerId = "413C4000-F51E-49A0-99E6-BF5D502A191B";
shapes = (
{
closed = 1;
nodes = (
(505,-10,o),
(591,93,o),
(591,244,cs),
(591,254,ls),
(591,407,o),
(504,512,o),
(364,512,cs),
(306,512,o),
(255,493,o),
(235,467,c),
(244,418,l),
(244,730,l),
(42,730,l),
(42,0,l),
(223,0,l),
(223,104,l),
(213,60,l),
(233,16,o),
(294,-10,o),
(363,-10,cs)
);
},
{
closed = 1;
nodes = (
(263,172,o),
(230,206,o),
(230,250,cs),
(230,295,o),
(263,330,o),
(311,330,cs),
(356,330,o),
(389,297,o),
(389,254,cs),
(389,244,ls),
(389,203,o),
(356,172,o),
(311,172,cs)
);
}
);
width = 611;
},
{
hints = (
{
origin = (0,12);
target = (0,11);
type = Stem;
},
{
origin = (1,9);
target = (0,2);
type = Stem;
},
{
horizontal = 1;
origin = (0,6);
target = (1,5);
type = Stem;
},
{
horizontal = 1;
origin = (0,19);
target = (1,12);
type = Stem;
}
);
layerId = "9E4DF390-DC64-4DFF-9707-6073A03EA565";
shapes = (
{
closed = 1;
nodes = (
(471,-10,o),
(572,89,o),
(572,241,cs),
(572,251,ls),
(572,401,o),
(468,503,o),
(337,503,cs),
(271,503,o),
(215,475,o),
(177,428,c),
(208,392,l),
(208,730,l),
(58,730,l),
(58,0,l),
(193,0,l),
(193,115,l),
(164,83,l),
(203,24,o),
(265,-10,o),
(338,-10,cs)
);
},
{
closed = 1;
nodes = (
(248,121,o),
(198,166,o),
(198,246,cs),
(198,327,o),
(248,372,o),
(313,372,cs),
(371,372,o),
(422,329,o),
(422,251,cs),
(422,241,ls),
(422,164,o),
(371,121,o),
(313,121,cs)
);
}
);
width = 603;
}
);
unicode = 98;
},
{
glyphname = c;
kernLeft = o;
kernRight = c;
lastChange = "2025-08-05 15:05:56 +0000";
layers = (
{
anchors = (
{
name = bottom;
pos = (271,0);
},
{
name = top;
pos = (291,472);
}
);
layerId = "7A502162-43D8-4289-B728-53226767971B";
shapes = (
{
closed = 1;
nodes = (
(355,-10,o),
(407,12,o),
(447,53,c),
(428,73,l),
(392,37,o),
(347,18,o),
(287,18,cs),
(167,18,o),
(81,105,o),
(81,229,cs),
(81,243,ls),
(81,367,o),
(166,454,o),
(287,454,cs),
(347,454,o),
(392,434,o),
(428,399,c),
(447,419,l),
(407,460,o),
(355,482,o),
(288,482,cs),
(150,482,o),
(52,383,o),
(52,243,cs),
(52,229,ls),
(52,88,o),
(150,-10,o),
(288,-10,cs)
);
}
);
width = 486;
},
{
anchors = (
{
name = bottom;
pos = (294,0);
},
{
name = top;
pos = (289,502);
}
);
hints = (
{
horizontal = 1;
origin = (0,27);
target = (0,6);
type = Stem;
},
{
horizontal = 1;
origin = (0,20);
target = (0,13);
type = Stem;
},
{
origin = (0,24);
target = (0,10);
type = Stem;
}
);
layerId = "413C4000-F51E-49A0-99E6-BF5D502A191B";
shapes = (
{
closed = 1;
nodes = (
(365,-10,o),
(447,27,o),
(490,86,c),
(368,210,l),
(345,185,o),
(321,174,o),
(295,174,cs),
(251,174,o),
(218,206,o),
(218,248,cs),
(218,256,ls),
(218,298,o),
(252,328,o),
(297,328,cs),
(324,328,o),
(347,318,o),
(366,296,c),
(487,415,l),
(442,476,o),
(365,512,o),
(282,512,cs),
(137,512,o),
(18,407,o),
(18,256,cs),
(18,248,ls),
(18,101,o),
(133,-10,o),
(281,-10,cs)
);
}
);
width = 492;
},
{
anchors = (
{
name = bottom;
pos = (289,0);
},
{
name = top;
pos = (292,493);
}
);
hints = (
{
horizontal = 1;
origin = (0,27);
target = (0,6);
type = Stem;
},
{
horizontal = 1;
origin = (0,20);
target = (0,13);
type = Stem;
},
{
origin = (0,24);
target = (0,10);
type = Stem;
}
);
layerId = "9E4DF390-DC64-4DFF-9707-6073A03EA565";
shapes = (
{
closed = 1;
nodes = (
(365,-10,o),
(439,24,o),
(478,78,c),
(389,167,l),
(361,138,o),
(326,127,o),
(294,127,cs),
(231,127,o),
(180,170,o),
(180,242,cs),
(180,252,ls),
(180,324,o),
(229,366,o),
(292,366,cs),
(326,366,o),
(361,353,o),
(384,324,c),
(475,415,l),
(436,469,o),
(365,503,o),
(291,503,cs),
(143,503,o),
(30,402,o),
(30,252,cs),
(30,242,ls),
(30,94,o),
(141,-10,o),
(291,-10,cs)
);
}
);
width = 494;
}
);
unicode = 99;
},
{
glyphname = d;
kernLeft = d;
kernRight = d;
lastChange = "2025-08-05 15:06:07 +0000";
layers = (
{
anchors = (
{
name = center;
pos = (462,600);
},
{
name = topright;
pos = (593,730);
}
);
layerId = "7A502162-43D8-4289-B728-53226767971B";
shapes = (
{
closed = 1;
nodes = (
(366,-10,o),
(440,47,o),
(472,136,c),
(468,141,l),
(468,0,l),
(496,0,l),
(496,730,l),
(467,730,l),
(467,331,l),
(471,337,l),
(439,425,o),
(366,482,o),
(272,482,cs),
(142,482,o),
(52,383,o),
(52,244,cs),
(52,235,ls),
(52,91,o),
(141,-10,o),
(272,-10,cs)
);
},
{
closed = 1;
nodes = (
(159,17,o),
(81,107,o),
(81,235,cs),
(81,244,ls),
(81,367,o),
(159,454,o),
(273,454,cs),
(386,454,o),
(468,364,o),
(468,236,cs),
(468,107,o),
(386,17,o),
(273,17,cs)
);
}
);
width = 584;
},
{
anchors = (
{
name = center;
pos = (460,600);
},
{
name = topright;
pos = (614,730);
}
);
background = {
anchors = (
{
name = center;
pos = (458,600);
},
{
name = topright;
pos = (612,730);
}
);
shapes = (
{
closed = 1;
nodes = (
(314,-10,o),
(363,13,o),
(406,64,c),
(387,105,l),
(387,0,l),
(566,0,l),
(566,730,l),
(364,730,l),
(364,418,l),
(387,458,l),
(347,496,o),
(304,512,o),
(250,512,cs),
(119,512,o),
(17,409,o),
(17,255,cs),
(17,245,ls),
(17,88,o),
(115,-10,o),
(249,-10,cs)
);
},
{
closed = 1;
nodes = (
(260,172,o),
(219,194,o),
(219,245,cs),
(219,255,ls),
(219,306,o),
(260,330,o),
(297,330,cs),
(339,330,o),
(378,304,o),
(378,251,cs),
(378,197,o),
(339,172,o),
(297,172,cs)
);
}
);
};
hints = (
{
horizontal = 1;
origin = (0,19);
target = (1,12);
type = Stem;
},
{
horizontal = 1;
origin = (0,12);
target = (1,6);
type = Stem;
},
{
origin = (0,16);
target = (1,2);
type = Stem;
},
{
origin = (0,7);
target = (0,6);
type = Stem;
}
);
layerId = "413C4000-F51E-49A0-99E6-BF5D502A191B";
shapes = (
{
closed = 1;
nodes = (
(316,-10,o),
(365,13,o),
(408,64,c),
(389,105,l),
(389,0,l),
(568,0,l),
(568,730,l),
(366,730,l),
(366,418,l),
(389,458,l),
(349,496,o),
(306,512,o),
(252,512,cs),
(121,512,o),
(19,409,o),
(19,255,cs),
(19,245,ls),
(19,88,o),
(117,-10,o),
(251,-10,cs)
);
},
{
closed = 1;
nodes = (
(262,172,o),
(221,194,o),
(221,245,cs),
(221,255,ls),
(221,306,o),
(262,330,o),
(299,330,cs),
(341,330,o),
(380,304,o),
(380,251,cs),
(380,197,o),
(341,172,o),
(299,172,cs)
);
}
);
width = 610;
},
{
anchors = (
{
name = center;
pos = (456,600);
},
{
name = topright;
pos = (606,730);
}
);
hints = (
{
horizontal = 1;
origin = (0,19);
target = (1,12);
type = Stem;
},
{
horizontal = 1;
origin = (0,12);
target = (1,6);
type = Stem;
},
{
origin = (0,16);
target = (1,2);
type = Stem;
},
{
origin = (0,7);
target = (0,6);
type = Stem;
}
);
layerId = "9E4DF390-DC64-4DFF-9707-6073A03EA565";
shapes = (
{
closed = 1;
nodes = (
(339,-10,o),
(400,24,o),
(440,85,c),
(411,116,l),
(411,0,l),
(545,0,l),
(545,730,l),
(395,730,l),
(395,392,l),
(426,428,l),
(388,475,o),
(332,503,o),
(266,503,cs),
(135,503,o),
(31,401,o),
(31,251,cs),
(31,241,ls),
(31,89,o),
(132,-10,o),
(265,-10,cs)
);
},
{
closed = 1;
nodes = (
(232,121,o),
(181,164,o),
(181,241,cs),
(181,251,ls),
(181,329,o),
(232,372,o),
(290,372,cs),
(355,372,o),
(405,327,o),
(405,246,cs),
(405,166,o),
(355,121,o),
(290,121,cs)
);
}
);
width = 603;
}
);
unicode = 100;
},
{
glyphname = eth;
lastChange = "2025-08-05 15:06:22 +0000";
layers = (
{
layerId = "7A502162-43D8-4289-B728-53226767971B";
shapes = (
{
closed = 1;
nodes = (
(405,-10,o),
(496,89,o),
(496,232,cs),
(496,363,o),
(438,459,o),
(299,588,cs),
(132,743,l),
(112,722,l),
(278,569,ls),
(372,483,o),
(418,424,o),
(448,351,c),
(456,354,l),
(422,431,o),
(356,480,o),
(271,480,cs),
(140,480,o),
(52,383,o),
(52,235,cs),
(52,91,o),
(143,-10,o),
(274,-10,cs)
);
},
{
closed = 1;
nodes = (
(160,17,o),
(80,106,o),
(80,234,cs),
(80,366,o),
(158,453,o),
(274,453,cs),
(385,453,o),
(468,359,o),
(468,231,cs),
(468,105,o),
(388,17,o),
(274,17,cs)
);
},
{
closed = 1;
nodes = (
(376,686,l),
(364,710,l),
(83,542,l),
(94,518,l)
);
}
);
width = 549;
},
{
hints = (
{
horizontal = 1;
origin = (0,21);
target = (1,11);
type = Stem;
},
{
horizontal = 1;
origin = (1,5);
target = (0,15);
type = Stem;
},
{
horizontal = 1;
origin = (2,1);
target = down;
type = TopGhost;
},
{
horizontal = 1;
origin = (0,6);
target = down;
type = TopGhost;
},
{
origin = (0,18);
target = (1,2);
type = Stem;
},
{
origin = (1,8);
target = (0,2);
type = Stem;
}
);
layerId = "413C4000-F51E-49A0-99E6-BF5D502A191B";
shapes = (
{
closed = 1;
nodes = (
(456,-10,o),
(563,96,o),
(563,259,cs),
(563,389,o),
(496,516,o),
(341,645,cs),
(218,745,l),
(46,635,l),
(188,529,ls),
(298,443,o),
(365,375,o),
(374,304,c),
(402,341,l),
(362,434,o),
(314,467,o),
(236,467,cs),
(119,467,o),
(18,393,o),
(18,249,cs),
(18,92,o),
(125,-10,o),
(289,-10,cs)
);
},
{
closed = 1;
nodes = (
(248,166,o),
(220,195,o),
(220,238,cs),
(220,279,o),
(248,307,o),
(291,307,cs),
(334,307,o),
(363,279,o),
(363,238,cs),
(363,195,o),
(334,166,o),
(291,166,cs)
);
},
{
closed = 1;
nodes = (
(485,589,l),
(447,715,l),
(38,584,l),
(77,456,l)
);
}
);
width = 582;
},
{
hints = (
{
horizontal = 1;
origin = (0,21);
target = (1,11);
type = Stem;
},
{
horizontal = 1;
origin = (1,5);
target = (0,15);
type = Stem;
},
{
horizontal = 1;
origin = (2,1);
target = down;
type = TopGhost;
},
{
horizontal = 1;
origin = (0,6);
target = down;
type = TopGhost;
},
{
origin = (0,18);
target = (1,2);
type = Stem;
},
{
origin = (1,8);
target = (0,2);
type = Stem;
}
);
layerId = "9E4DF390-DC64-4DFF-9707-6073A03EA565";
shapes = (
{
closed = 1;
nodes = (
(446,-10,o),
(546,94,o),
(546,251,cs),
(546,381,o),
(481,499,o),
(331,628,cs),
(195,745,l),
(91,645,l),
(218,541,ls),
(323,455,o),
(384,389,o),
(399,318,c),
(419,348,l),
(381,436,o),
(327,474,o),
(247,474,cs),
(126,474,o),
(31,390,o),
(31,252,cs),
(31,92,o),
(136,-10,o),
(290,-10,cs)
);
},
{
closed = 1;
nodes = (
(223,121,o),
(181,166,o),
(181,237,cs),
(181,307,o),
(223,351,o),
(289,351,cs),
(356,351,o),
(397,306,o),
(397,236,cs),
(397,166,o),
(355,121,o),
(289,121,cs)
);
},
{
closed = 1;
nodes = (
(442,605,l),
(412,708,l),
(55,577,l),
(85,472,l)
);
}
);
width = 577;
}
);
unicode = 240;
},
{
glyphname = e;
kernLeft = o;
kernRight = e;
lastChange = "2025-08-05 15:06:40 +0000";
layers = (
{
anchors = (
{
name = bottom;
pos = (263,0);
},
{
name = top;
pos = (264,472);
}
);
layerId = "7A502162-43D8-4289-B728-53226767971B";
shapes = (
{
closed = 1;
nodes = (
(345,-10,o),
(401,9,o),
(435,38,c),
(418,60,l),
(387,34,o),
(337,18,o),
(285,18,cs),
(165,18,o),
(81,107,o),
(81,235,cs),
(81,245,ls),
(81,368,o),
(156,454,o),
(266,454,cs),
(370,454,o),
(439,370,o),
(426,246,c),
(438,261,l),
(73,261,l),
(73,235,l),
(455,235,l),
(470,380,o),
(391,482,o),
(266,482,cs),
(139,482,o),
(52,384,o),
(52,245,cs),
(52,235,ls),
(52,91,o),
(148,-10,o),
(285,-10,cs)
);
}
);
width = 502;
},
{
anchors = (
{
name = bottom;
pos = (264,0);
},
{
name = top;
pos = (276,502);
}
);
hints = (
{
horizontal = 1;
origin = (0,30);
target = (0,6);
type = Stem;
},
{
horizontal = 1;
origin = (0,20);
target = (0,18);
type = Stem;
},
{
horizontal = 1;
origin = (0,23);
target = (0,13);
type = Stem;
},
{
origin = (0,27);
target = (0,9);
type = Stem;
},
{
origin = (0,16);
target = (0,20);
type = Stem;
}
);
layerId = "413C4000-F51E-49A0-99E6-BF5D502A191B";
shapes = (
{
closed = 1;
nodes = (
(368,-10,o),
(450,14,o),
(503,68,c),
(393,193,l),
(364,168,o),
(340,155,o),
(298,155,cs),
(240,155,o),
(218,177,o),
(218,245,cs),
(218,257,ls),
(218,317,o),
(225,366,o),
(274,366,cs),
(309,366,o),
(338,331,o),
(320,250,c),
(404,306,l),
(165,306,l),
(165,207,l),
(510,207,l),
(538,386,o),
(440,512,o),
(273,512,cs),
(120,512,o),
(19,396,o),
(19,257,cs),
(19,247,ls),
(19,89,o),
(126,-10,o),
(284,-10,cs)
);
}
);
width = 532;
},
{
anchors = (
{
name = bottom;
pos = (264,0);
},
{
name = top;
pos = (273,493);
}
);
hints = (
{
horizontal = 1;
origin = (0,30);
target = (0,6);
type = Stem;
},
{
horizontal = 1;
origin = (0,20);
target = (0,18);
type = Stem;
},
{
horizontal = 1;
origin = (0,23);
target = (0,13);
type = Stem;
},
{
origin = (0,27);
target = (0,9,0,20);
type = Stem;
},
{
origin = (0,16);
target = (0,20);
type = Stem;
}
);
layerId = "9E4DF390-DC64-4DFF-9707-6073A03EA565";
shapes = (
{
closed = 1;
nodes = (
(366,-10,o),
(433,16,o),
(474,71,c),
(389,158,l),
(363,131,o),
(338,115,o),
(290,115,cs),
(215,115,o),
(178,158,o),
(178,223,cs),
(178,253,ls),
(178,328,o),
(204,387,o),
(271,387,cs),
(327,387,o),
(364,338,o),
(348,249,c),
(415,297,l),
(138,297,l),
(138,200,l),
(494,200,l),
(518,384,o),
(425,503,o),
(270,503,cs),
(125,503,o),
(30,392,o),
(30,253,cs),
(30,243,ls),
(30,90,o),
(132,-10,o),
(282,-10,cs)
);
}
);
width = 527;
},
{
anchors = (
{
name = bottom;
pos = (263,0);
},
{
name = top;
pos = (268,481);
}
);
associatedMasterId = "7A502162-43D8-4289-B728-53226767971B";
attr = {
coordinates = (
400
);
};
background = {
shapes = (
{
closed = 1;
nodes = (
(354,-10,o),
(415,12,o),
(452,52,c),
(406,102,l),
(377,76,o),
(338,64,o),
(288,64,cs),
(186,64,o),
(123,137,o),
(123,238,cs),
(123,248,ls),
(123,351,o),
(177,421,o),
(269,421,cs),
(352,421,o),
(407,356,o),
(393,247,c),
(429,282,l),
(101,282,l),
(101,216,l),
(472,216,l),
(491,382,o),
(406,491,o),
(268,491,cs),
(133,491,o),
(43,387,o),
(43,248,cs),
(43,238,ls),
(43,91,o),
(141,-10,o),
(284,-10,cs)
);
}
);
};
layerId = "819E4603-84CA-4C7D-A39A-6AE72C25F86F";
name = "4. Aug. 25, 16:22";
shapes = (
{
closed = 1;
nodes = (
(354,-10,o),
(415,12,o),
(452,52,c),
(406,102,l),
(376,75,o),
(337,64,o),
(287,64,cs),
(186,64,o),
(123,139,o),
(123,230,cs),
(123,248,ls),
(123,351,o),
(177,421,o),
(268,421,cs),
(352,421,o),
(407,355,o),
(393,247,c),
(428,282,l),
(101,282,l),
(101,216,l),
(472,216,l),
(491,383,o),
(406,491,o),
(268,491,cs),
(133,491,o),
(43,387,o),
(43,248,cs),
(43,238,ls),
(43,91,o),
(141,-10,o),
(284,-10,cs)
);
}
);
width = 513;
}
);
unicode = 101;
},
{
glyphname = eogonek;
kernLeft = o;
kernRight = e;
lastChange = "2025-08-05 15:06:52 +0000";
layers = (
{
anchors = (
{
name = top;
pos = (264,472);
}
);
layerId = "7A502162-43D8-4289-B728-53226767971B";
shapes = (
{
closed = 1;
nodes = (
(403,-200,l),
(403,-175,l),
(364,-175,ls),
(339,-175,o),
(326,-157,o),
(326,-138,cs),
(326,-121,o),
(335,-104,o),
(347,-87,cs),
(435,38,l),
(418,60,l),
(387,34,o),
(337,18,o),
(285,18,cs),
(165,18,o),
(81,107,o),
(81,235,cs),
(81,245,ls),
(81,368,o),
(156,454,o),
(266,454,cs),
(369,454,o),
(437,372,o),
(427,250,c),
(441,261,l),
(73,261,l),
(73,235,l),
(455,235,l),
(470,380,o),
(391,482,o),
(266,482,cs),
(139,482,o),
(52,384,o),
(52,245,cs),
(52,235,ls),
(52,91,o),
(148,-10,o),
(285,-10,cs),
(327,-10,o),
(368,0,o),
(401,17,c),
(395,22,l),
(327,-73,ls),
(309,-97,o),
(299,-117,o),
(299,-140,cs),
(299,-172,o),
(318,-200,o),
(361,-200,cs)
);
}
);
width = 502;
},
{
anchors = (
{
name = top;
pos = (276,502);
}
);
background = {
anchors = (
{
name = top;
pos = (272,502);
}
);
shapes = (
{
closed = 1;
nodes = (
(451,-215,l),
(451,-82,l),
(423,-82,ls),
(406,-82,o),
(404,-72,o),
(404,-66,cs),
(404,-60,o),
(406,-55,o),
(419,-38,cs),
(499,67,l),
(390,193,l),
(360,168,o),
(332,155,o),
(296,155,cs),
(232,155,o),
(214,184,o),
(214,242,cs),
(214,257,ls),
(214,317,o),
(222,366,o),
(270,366,cs),
(310,366,o),
(341,319,o),
(308,223,c),
(404,306,l),
(161,306,l),
(161,207,l),
(506,207,l),
(534,386,o),
(434,512,o),
(267,512,cs),
(114,512,o),
(15,396,o),
(15,257,cs),
(15,247,ls),
(15,89,o),
(120,-10,o),
(276,-10,cs),
(320,-10,o),
(375,1,o),
(429,54,c),
(309,56,l),
(289,28,ls),
(246,-32,o),
(228,-54,o),
(228,-103,cs),
(228,-171,o),
(280,-215,o),
(359,-215,cs)
);
}
);
};
hints = (
{
origin = (0,33);
target = (0,17);
type = Stem;
},
{
origin = (0,23);
target = (0,27);
type = Stem;
},
{
horizontal = 1;
origin = (0,30);
target = (0,20);
type = Stem;
},
{
horizontal = 1;
origin = (0,37);
target = (0,13);
type = Stem;
},
{
horizontal = 1;
origin = (0,0);
target = (0,1);
type = Stem;
},
{
horizontal = 1;
origin = (0,27);
target = (0,25);
type = Stem;
}
);
layerId = "413C4000-F51E-49A0-99E6-BF5D502A191B";
shapes = (
{
closed = 1;
nodes = (
(455,-215,l),
(455,-82,l),
(427,-82,ls),
(410,-82,o),
(408,-72,o),
(408,-66,cs),
(408,-60,o),
(410,-55,o),
(423,-38,cs),
(503,67,l),
(394,193,l),
(364,168,o),
(336,155,o),
(300,155,cs),
(236,155,o),
(218,184,o),
(218,242,cs),
(218,257,ls),
(218,317,o),
(226,366,o),
(274,366,cs),
(314,366,o),
(345,319,o),
(312,223,c),
(408,306,l),
(165,306,l),
(165,207,l),
(510,207,l),
(538,386,o),
(438,512,o),
(271,512,cs),
(118,512,o),
(19,396,o),
(19,257,cs),
(19,247,ls),
(19,89,o),
(124,-10,o),
(280,-10,cs),
(324,-10,o),
(379,1,o),
(433,54,c),
(313,56,l),
(293,28,ls),
(250,-32,o),
(232,-54,o),
(232,-103,cs),
(232,-171,o),
(284,-215,o),
(363,-215,cs)
);
}
);
width = 530;
},
{
anchors = (
{
name = top;
pos = (273,493);
}
);
hints = (
{
origin = (0,33);
target = (0,17);
type = Stem;
},
{
origin = (0,23);
target = (0,27);
type = Stem;
},
{
horizontal = 1;
origin = (0,30);
target = (0,20);
type = Stem;
},
{
horizontal = 1;
origin = (0,37);
target = (0,13);
type = Stem;
},
{
horizontal = 1;
origin = (0,0);
target = (0,1);
type = Stem;
}
);
layerId = "9E4DF390-DC64-4DFF-9707-6073A03EA565";
shapes = (
{
closed = 1;
nodes = (
(427,-200,l),
(427,-99,l),
(409,-99,ls),
(389,-99,o),
(384,-87,o),
(384,-77,cs),
(384,-68,o),
(388,-60,o),
(395,-49,cs),
(474,71,l),
(389,158,l),
(363,131,o),
(338,115,o),
(290,115,cs),
(215,115,o),
(178,158,o),
(178,223,cs),
(178,253,ls),
(178,328,o),
(204,387,o),
(271,387,cs),
(331,387,o),
(370,330,o),
(344,231,c),
(419,297,l),
(138,297,l),
(138,200,l),
(494,200,l),
(518,384,o),
(425,503,o),
(270,503,cs),
(125,503,o),
(30,392,o),
(30,253,cs),
(30,243,ls),
(30,90,o),
(132,-10,o),
(282,-10,cs),
(326,-10,o),
(377,1,o),
(424,43,c),
(336,43,l),
(307,8,ls),
(269,-37,o),
(253,-62,o),
(253,-104,cs),
(253,-161,o),
(295,-200,o),
(363,-200,cs)
);
}
);
width = 527;
},
{
anchors = (
{
name = top;
pos = (268,481);
}
);
associatedMasterId = "7A502162-43D8-4289-B728-53226767971B";
attr = {
coordinates = (
400
);
};
background = {
shapes = (
{
closed = 1;
nodes = (
(414,-200,l),
(414,-142,l),
(384,-142,ls),
(360,-142,o),
(351,-127,o),
(351,-112,cs),
(351,-98,o),
(358,-86,o),
(368,-71,cs),
(452,52,l),
(406,102,l),
(377,76,o),
(338,64,o),
(288,64,cs),
(186,64,o),
(123,137,o),
(123,238,cs),
(123,248,ls),
(123,351,o),
(177,421,o),
(269,421,cs),
(353,421,o),
(409,354,o),
(392,242,c),
(432,282,l),
(101,282,l),
(101,216,l),
(472,216,l),
(491,382,o),
(406,491,o),
(268,491,cs),
(133,491,o),
(43,387,o),
(43,248,cs),
(43,238,ls),
(43,91,o),
(141,-10,o),
(284,-10,cs),
(327,-10,o),
(372,0,o),
(411,28,c),
(370,31,l),
(318,-38,ls),
(293,-72,o),
(279,-93,o),
(279,-125,cs),
(279,-167,o),
(309,-200,o),
(362,-200,cs)
);
}
);
};
layerId = "2B4516B4-8F42-43ED-AAF7-8222B28A13BD";
name = "4. Aug. 25, 16:24";
shapes = (
{
closed = 1;
nodes = (
(413,-200,l),
(413,-142,l),
(383,-142,ls),
(360,-142,o),
(351,-127,o),
(351,-112,cs),
(351,-98,o),
(358,-85,o),
(368,-71,cs),
(452,52,l),
(406,102,l),
(376,75,o),
(337,64,o),
(287,64,cs),
(194,64,o),
(123,135,o),
(123,230,cs),
(123,248,ls),
(123,351,o),
(177,421,o),
(268,421,cs),
(353,421,o),
(408,355,o),
(391,242,c),
(432,282,l),
(101,282,l),
(101,216,l),
(472,216,l),
(491,383,o),
(406,491,o),
(268,491,cs),
(133,491,o),
(43,387,o),
(43,248,cs),
(43,238,ls),
(43,91,o),
(141,-10,o),
(284,-10,cs),
(327,-10,o),
(373,1,o),
(411,28,c),
(370,31,l),
(318,-38,ls),
(291,-72,o),
(279,-93,o),
(279,-125,cs),
(279,-167,o),
(308,-200,o),
(362,-200,cs)
);
}
);
width = 513;
}
);
unicode = 281;
},
{
glyphname = f;
kernLeft = f;
lastChange = "2025-08-05 15:07:05 +0000";
layers = (
{
layerId = "7A502162-43D8-4289-B728-53226767971B";
shapes = (
{
closed = 1;
nodes = (
(144,0,l),
(144,625,ls),
(144,670,o),
(177,703,o),
(222,703,cs),
(298,703,l),
(298,730,l),
(222,730,ls),
(160,730,o),
(115,686,o),
(115,624,cs),
(115,0,l)
);
},
{
closed = 1;
nodes = (
(298,444,l),
(298,472,l),
(19,472,l),
(19,444,l)
);
}
);
width = 316;
},
{
hints = (
{
horizontal = 1;
origin = (0,11);
target = up;
type = BottomGhost;
},
{
horizontal = 1;
origin = (1,2);
target = (1,3);
type = Stem;
},
{
horizontal = 1;
origin = (0,7);
target = (0,5);
type = Stem;
},
{
origin = (0,11);
target = (0,1);
type = Stem;
}
);
layerId = "413C4000-F51E-49A0-99E6-BF5D502A191B";
shapes = (
{
closed = 1;
nodes = (
(296,0,l),
(296,550,ls),
(296,558,o),
(302,564,o),
(310,564,cs),
(383,564,l),
(383,730,l),
(294,730,ls),
(169,730,o),
(94,666,o),
(94,551,cs),
(94,0,l)
);
},
{
closed = 1;
nodes = (
(383,334,l),
(383,502,l),
(23,502,l),
(23,334,l)
);
}
);
width = 395;
},
{
hints = (
{
horizontal = 1;
origin = (0,11);
target = up;
type = BottomGhost;
},
{
horizontal = 1;
origin = (1,2);
target = (1,3);
type = Stem;
},
{
horizontal = 1;
origin = (0,7);
target = (0,5);
type = Stem;
},
{
origin = (0,11);
target = (0,1);
type = Stem;
}
);
layerId = "9E4DF390-DC64-4DFF-9707-6073A03EA565";
shapes = (
{
closed = 1;
nodes = (
(254,0,l),
(254,586,ls),
(254,597,o),
(263,606,o),
(274,606,cs),
(361,606,l),
(361,730,l),
(276,730,ls),
(170,730,o),
(104,672,o),
(104,573,cs),
(104,0,l)
);
},
{
closed = 1;
nodes = (
(361,367,l),
(361,493,l),
(25,493,l),
(25,367,l)
);
}
);
width = 376;
}
);
unicode = 102;
},
{
glyphname = g;
kernLeft = g;
kernRight = g;
lastChange = "2025-08-05 15:07:17 +0000";
layers = (
{
layerId = "7A502162-43D8-4289-B728-53226767971B";
shapes = (
{
closed = 1;
nodes = (
(300,-200,ls),
(383,-200,o),
(435,-153,o),
(435,-80,cs),
(435,-11,o),
(383,31,o),
(301,31,cs),
(164,31,ls),
(107,31,o),
(111,76,o),
(126,104,cs),
(163,175,l),
(137,184,l),
(97,107,ls),
(75,63,o),
(85,5,o),
(160,5,cs),
(299,5,ls),
(365,5,o),
(407,-28,o),
(407,-80,cs),
(407,-138,o),
(365,-174,o),
(299,-174,cs),
(24,-174,l),
(24,-200,l)
);
},
{
closed = 1;
nodes = (
(354,148,o),
(433,217,o),
(433,314,cs),
(433,326,ls),
(433,417,o),
(354,482,o),
(242,482,cs),
(129,482,o),
(50,416,o),
(50,322,cs),
(50,314,ls),
(50,217,o),
(129,148,o),
(242,148,cs)
);
},
{
closed = 1;
nodes = (
(172,175,o),
(78,208,o),
(78,321,cs),
(78,402,o),
(145,455,o),
(242,455,cs),
(337,455,o),
(405,401,o),
(405,321,cs),
(405,207,o),
(315,175,o),
(242,175,cs)
);
},
{
closed = 1;
nodes = (
(299,461,l),
(366,591,l),
(337,591,l),
(271,461,l)
);
}
);
width = 477;
},
{
hints = (
{
horizontal = 1;
origin = (0,25);
target = (0,24);
type = Stem;
},
{
horizontal = 1;
origin = (0,17);
target = (0,8);
type = Stem;
},
{
horizontal = 1;
origin = (1,13);
target = (2,11);
type = Stem;
},
{
horizontal = 1;
origin = (2,5);
target = (3,2);
type = Stem;
},
{
origin = (1,9);
target = (2,2);
type = Stem;
},
{
origin = (2,8);
target = (1,2);
type = Stem;
}
);
layerId = "413C4000-F51E-49A0-99E6-BF5D502A191B";
shapes = (
{
closed = 1;
nodes = (
(360,-200,ls),
(464,-200,o),
(524,-136,o),
(524,-39,cs),
(524,50,o),
(458,110,o),
(360,110,cs),
(266,110,ls),
(260,110,o),
(257,115,o),
(260,122,cs),
(295,199,l),
(126,228,l),
(75,128,ls),
(32,44,o),
(72,-37,o),
(172,-37,cs),
(333,-37,ls),
(343,-37,o),
(349,-42,o),
(349,-49,cs),
(349,-57,o),
(343,-63,o),
(333,-63,cs),
(25,-63,l),
(25,-200,l)
);
},
{
closed = 1;
nodes = (
(408,133,o),
(506,207,o),
(506,319,cs),
(506,327,ls),
(506,438,o),
(408,512,o),
(261,512,cs),
(115,512,o),
(17,439,o),
(17,329,cs),
(17,319,ls),
(17,207,o),
(115,133,o),
(261,133,cs)
);
},
{
closed = 1;
nodes = (
(233,279,o),
(214,297,o),
(214,325,cs),
(214,350,o),
(233,367,o),
(261,367,cs),
(290,367,o),
(309,350,o),
(309,325,cs),
(309,297,o),
(290,279,o),
(261,279,cs)
);
},
{
closed = 1;
nodes = (
(371,416,l),
(483,607,l),
(280,607,l),
(200,416,l)
);
}
);
width = 527;
},
{
hints = (
{
horizontal = 1;
origin = (0,25);
target = (0,24);
type = Stem;
},
{
horizontal = 1;
origin = (0,17);
target = (0,7);
type = Stem;
},
{
horizontal = 1;
origin = (1,13);
target = (2,11);
type = Stem;
},
{
horizontal = 1;
origin = (2,5);
target = (3,2);
type = Stem;
},
{
origin = (1,9);
target = (2,2);
type = Stem;
},
{
origin = (2,8);
target = (1,2);
type = Stem;
}
);
layerId = "9E4DF390-DC64-4DFF-9707-6073A03EA565";
shapes = (
{
closed = 1;
nodes = (
(349,-200,ls),
(436,-200,o),
(498,-138,o),
(498,-56,cs),
(498,44,o),
(439,86,o),
(356,86,cs),
(211,86,ls),
(208,86,o),
(206,88,o),
(208,92,cs),
(254,185,l),
(128,215,l),
(76,108,ls),
(42,39,o),
(74,-30,o),
(151,-30,cs),
(333,-30,ls),
(352,-30,o),
(358,-37,o),
(358,-54,cs),
(358,-70,o),
(352,-77,o),
(333,-77,cs),
(30,-77,l),
(30,-200,l)
);
},
{
closed = 1;
nodes = (
(386,127,o),
(479,203,o),
(479,312,cs),
(479,322,ls),
(479,428,o),
(386,503,o),
(254,503,cs),
(122,503,o),
(29,428,o),
(29,322,cs),
(29,312,ls),
(29,203,o),
(122,127,o),
(254,127,cs)
);
},
{
closed = 1;
nodes = (
(217,239,o),
(176,258,o),
(176,315,cs),
(176,356,o),
(208,384,o),
(254,384,cs),
(300,384,o),
(332,356,o),
(332,315,cs),
(332,258,o),
(291,239,o),
(254,239,cs)
);
},
{
closed = 1;
nodes = (
(341,409,l),
(443,592,l),
(292,592,l),
(209,409,l)
);
}
);
width = 514;
}
);
unicode = 103;
},
{
glyphname = h;
kernLeft = h;
kernRight = n;
lastChange = "2025-08-05 15:08:57 +0000";
layers = (
{
anchors = (
{
name = center;
pos = (122,600);
},
{
name = top;
pos = (102,700);
}
);
layerId = "7A502162-43D8-4289-B728-53226767971B";
shapes = (
{
closed = 1;
nodes = (
(117,0,l),
(117,271,ls),
(117,392,o),
(197,454,o),
(289,454,cs),
(378,454,o),
(446,401,o),
(446,270,cs),
(446,0,l),
(475,0,l),
(475,272,ls),
(475,418,o),
(398,482,o),
(292,482,cs),
(225,482,o),
(138,446,o),
(107,348,c),
(115,348,l),
(115,730,l),
(88,730,l),
(88,0,l)
);
}
);
width = 555;
},
{
anchors = (
{
name = center;
pos = (156,600);
},
{
name = top;
pos = (130,700);
}
);
hints = (
{
horizontal = 1;
origin = (0,4);
target = (0,13);
type = Stem;
},
{
origin = (0,20);
target = (0,0);
type = Stem;
},
{
origin = (0,8);
target = (0,9);
type = Stem;
},
{
horizontal = 1;
place = (0,21);
target = up;
type = BottomGhost;
}
);
layerId = "413C4000-F51E-49A0-99E6-BF5D502A191B";
shapes = (
{
closed = 1;
nodes = (
(244,0,l),
(244,264,ls),
(244,308,o),
(268,330,o),
(304,330,cs),
(337,330,o),
(359,308,o),
(359,264,cs),
(359,0,l),
(561,0,l),
(561,318,ls),
(561,442,o),
(485,512,o),
(373,512,cs),
(282,512,o),
(206,450,o),
(198,358,c),
(238,358,l),
(238,730,l),
(42,730,l),
(42,0,l)
);
}
);
width = 599;
},
{
anchors = (
{
name = center;
pos = (148,600);
},
{
name = top;
pos = (124,700);
}
);
hints = (
{
horizontal = 1;
origin = (0,4);
target = (0,13);
type = Stem;
},
{
origin = (0,20);
target = (0,0);
type = Stem;
},
{
origin = (0,8);
target = (0,9);
type = Stem;
},
{
horizontal = 1;
origin = (0,8);
target = up;
type = BottomGhost;
}
);
layerId = "9E4DF390-DC64-4DFF-9707-6073A03EA565";
shapes = (
{
closed = 1;
nodes = (
(208,0,l),
(208,268,ls),
(208,332,o),
(244,367,o),
(294,367,cs),
(340,367,o),
(369,338,o),
(369,272,cs),
(369,0,l),
(519,0,l),
(519,297,ls),
(519,425,o),
(448,503,o),
(338,503,cs),
(281,503,o),
(189,480,o),
(163,355,c),
(203,355,l),
(203,730,l),
(58,730,l),
(58,0,l)
);
}
);
width = 572;
}
);
unicode = 104;
},
{
glyphname = idotless;
kernLeft = i;
kernRight = i;
lastChange = "2025-08-05 15:28:04 +0000";
layers = (
{
anchors = (
{
name = bottom;
pos = (134,0);
},
{
name = ogonek;
pos = (148,0);
},
{
name = top;
pos = (133,472);
}
);
layerId = "7A502162-43D8-4289-B728-53226767971B";
shapes = (
{
closed = 1;
nodes = (
(148,0,l),
(148,472,l),
(18,472,l),
(18,444,l),
(132,444,l),
(119,457,l),
(119,0,l)
);
}
);
width = 236;
},
{
anchors = (
{
name = bottom;
pos = (193,0);
},
{
name = ogonek;
pos = (294,0);
},
{
name = top;
pos = (195,502);
}
);
hints = (
{
horizontal = 1;
origin = (0,6);
target = up;
type = BottomGhost;
},
{
horizontal = 1;
origin = (0,2);
target = (0,4);
type = Stem;
},
{
origin = (0,6);
target = (0,1);
type = Stem;
}
);
layerId = "413C4000-F51E-49A0-99E6-BF5D502A191B";
shapes = (
{
closed = 1;
nodes = (
(294,0,l),
(294,502,l),
(17,502,l),
(17,334,l),
(182,334,l),
(92,424,l),
(92,0,l)
);
}
);
width = 336;
},
{
anchors = (
{
name = bottom;
pos = (179,0);
},
{
name = ogonek;
pos = (254,0);
},
{
name = top;
pos = (180,493);
}
);
hints = (
{
horizontal = 1;
origin = (0,6);
target = up;
type = BottomGhost;
},
{
horizontal = 1;
origin = (0,2);
target = (0,4);
type = Stem;
},
{
origin = (0,6);
target = (0,1);
type = Stem;
}
);
layerId = "9E4DF390-DC64-4DFF-9707-6073A03EA565";
shapes = (
{
closed = 1;
nodes = (
(254,0,l),
(254,493,l),
(21,493,l),
(21,367,l),
(171,367,l),
(104,434,l),
(104,0,l)
);
}
);
width = 312;
}
);
unicode = 305;
},
{
glyphname = jdotless;
kernLeft = i;
kernRight = i;
lastChange = "2025-08-05 15:28:16 +0000";
layers = (
{
anchors = (
{
name = top;
pos = (133,472);
}
);
layerId = "7A502162-43D8-4289-B728-53226767971B";
shapes = (
{
closed = 1;
nodes = (
(40,-200,ls),
(103,-200,o),
(148,-156,o),
(148,-93,cs),
(148,472,l),
(18,472,l),
(18,444,l),
(132,444,l),
(119,457,l),
(119,-95,ls),
(119,-140,o),
(86,-173,o),
(41,-173,cs),
(-6,-173,l),
(-6,-200,l)
);
}
);
width = 236;
},
{
anchors = (
{
name = top;
pos = (199,502);
}
);
hints = (
{
horizontal = 1;
origin = (0,14);
target = (0,13);
type = Stem;
},
{
horizontal = 1;
origin = (0,5);
target = (0,7);
type = Stem;
},
{
origin = (0,4);
target = (0,9);
type = Stem;
}
);
layerId = "413C4000-F51E-49A0-99E6-BF5D502A191B";
shapes = (
{
closed = 1;
nodes = (
(69,-200,ls),
(209,-200,o),
(294,-127,o),
(294,3,cs),
(294,502,l),
(17,502,l),
(17,334,l),
(182,334,l),
(92,424,l),
(92,-20,ls),
(92,-28,o),
(86,-34,o),
(78,-34,cs),
(27,-34,l),
(27,-200,l)
);
}
);
width = 336;
},
{
anchors = (
{
name = top;
pos = (183,493);
}
);
hints = (
{
horizontal = 1;
origin = (0,14);
target = (0,13);
type = Stem;
},
{
horizontal = 1;
origin = (0,5);
target = (0,7);
type = Stem;
},
{
origin = (0,4);
target = (0,9);
type = Stem;
}
);
layerId = "9E4DF390-DC64-4DFF-9707-6073A03EA565";
shapes = (
{
closed = 1;
nodes = (
(64,-200,ls),
(181,-200,o),
(254,-136,o),
(254,-26,cs),
(254,493,l),
(21,493,l),
(21,367,l),
(171,367,l),
(104,434,l),
(104,-56,ls),
(104,-67,o),
(95,-76,o),
(84,-76,cs),
(21,-76,l),
(21,-200,l)
);
}
);
width = 312;
}
);
unicode = 567;
},
{
glyphname = k;
kernLeft = h;
kernRight = k;
lastChange = "2025-08-05 15:30:05 +0000";
layers = (
{
anchors = (
{
name = bottom;
pos = (249,0);
}
);
layerId = "7A502162-43D8-4289-B728-53226767971B";
shapes = (
{
closed = 1;
nodes = (
(434,472,l),
(397,472,l),
(99,182,l),
(101,148,l)
);
},
{
closed = 1;
nodes = (
(117,0,l),
(117,730,l),
(88,730,l),
(88,0,l)
);
},
{
closed = 1;
nodes = (
(459,0,l),
(232,293,l),
(212,273,l),
(422,0,l)
);
}
);
width = 467;
},
{
anchors = (
{
name = bottom;
pos = (299,0);
}
);
hints = (
{
horizontal = 1;
origin = (2,3);
target = up;
type = BottomGhost;
},
{
horizontal = 1;
origin = (0,1);
target = down;
type = TopGhost;
},
{
horizontal = 1;
origin = (1,2);
target = down;
type = TopGhost;
},
{
origin = (1,3);
target = (1,1);
type = Stem;
}
);
layerId = "413C4000-F51E-49A0-99E6-BF5D502A191B";
shapes = (
{
closed = 1;
nodes = (
(592,502,l),
(345,502,l),
(190,309,l),
(208,54,l)
);
},
{
closed = 1;
nodes = (
(244,0,l),
(244,730,l),
(42,730,l),
(42,0,l)
);
},
{
closed = 1;
nodes = (
(584,0,l),
(380,392,l),
(223,257,l),
(337,0,l)
);
}
);
width = 575;
},
{
anchors = (
{
name = bottom;
pos = (286,0);
}
);
hints = (
{
horizontal = 1;
origin = (2,3);
target = up;
type = BottomGhost;
},
{
horizontal = 1;
origin = (0,1);
target = down;
type = TopGhost;
},
{
horizontal = 1;
origin = (1,2);
target = down;
type = TopGhost;
},
{
origin = (1,3);
target = (1,1);
type = Stem;
}
);
layerId = "9E4DF390-DC64-4DFF-9707-6073A03EA565";
shapes = (
{
closed = 1;
nodes = (
(537,493,l),
(353,493,l),
(131,241,l),
(141,51,l)
);
},
{
closed = 1;
nodes = (
(208,0,l),
(208,730,l),
(58,730,l),
(58,0,l)
);
},
{
closed = 1;
nodes = (
(539,0,l),
(328,362,l),
(212,262,l),
(355,0,l)
);
}
);
width = 540;
}
);
unicode = 107;
},
{
glyphname = l;
kernLeft = l;
kernRight = l;
lastChange = "2025-08-05 15:30:23 +0000";
layers = (
{
anchors = (
{
name = bottom;
pos = (160,0);
},
{
name = center;
pos = (106,365);
},
{
name = top;
pos = (100,730);
},
{
name = topright;
pos = (221,730);
}
);
layerId = "7A502162-43D8-4289-B728-53226767971B";
shapes = (
{
closed = 1;
nodes = (
(230,0,l),
(230,27,l),
(193,27,ls),
(148,27,o),
(115,60,o),
(115,105,cs),
(115,730,l),
(-14,730,l),
(-14,703,l),
(99,703,l),
(86,716,l),
(86,105,ls),
(86,44,o),
(130,0,o),
(192,0,cs)
);
}
);
width = 245;
},
{
anchors = (
{
name = bottom;
pos = (190,0);
},
{
name = center;
pos = (152,365);
},
{
name = top;
pos = (145,730);
},
{
name = topright;
pos = (286,730);
}
);
hints = (
{
horizontal = 1;
origin = (0,14);
target = (0,2);
type = Stem;
},
{
horizontal = 1;
origin = (0,7);
target = (0,9);
type = Stem;
},
{
origin = (0,6);
target = (0,11);
type = Stem;
}
);
layerId = "413C4000-F51E-49A0-99E6-BF5D502A191B";
shapes = (
{
closed = 1;
nodes = (
(305,0,l),
(305,168,l),
(258,168,ls),
(250,168,o),
(244,174,o),
(244,182,cs),
(244,730,l),
(-19,730,l),
(-19,562,l),
(132,562,l),
(42,652,l),
(42,165,ls),
(42,58,o),
(112,0,o),
(227,0,cs)
);
}
);
width = 328;
},
{
anchors = (
{
name = bottom;
pos = (184,0);
},
{
name = center;
pos = (141,365);
},
{
name = top;
pos = (134,730);
},
{
name = topright;
pos = (269,730);
}
);
hints = (
{
horizontal = 1;
origin = (0,14);
target = (0,2);
type = Stem;
},
{
horizontal = 1;
origin = (0,7);
target = (0,9);
type = Stem;
},
{
origin = (0,6);
target = (0,11);
type = Stem;
}
);
layerId = "9E4DF390-DC64-4DFF-9707-6073A03EA565";
shapes = (
{
closed = 1;
nodes = (
(285,0,l),
(285,124,l),
(228,124,ls),
(217,124,o),
(208,133,o),
(208,144,cs),
(208,730,l),
(-15,730,l),
(-15,604,l),
(125,604,l),
(58,671,l),
(58,147,ls),
(58,54,o),
(120,0,o),
(219,0,cs)
);
}
);
width = 311;
}
);
unicode = 108;
},
{
glyphname = m;
kernLeft = n;
kernRight = n;
lastChange = "2025-08-05 15:30:53 +0000";
layers = (
{
anchors = (
{
name = bottom;
pos = (442,0);
},
{
name = top;
pos = (442,472);
}
);
layerId = "7A502162-43D8-4289-B728-53226767971B";
shapes = (
{
closed = 1;
nodes = (
(116,0,l),
(116,272,ls),
(116,392,o),
(188,454,o),
(279,454,cs),
(368,454,o),
(428,401,o),
(428,271,cs),
(428,0,l),
(456,0,l),
(456,272,ls),
(456,392,o),
(528,454,o),
(619,454,cs),
(708,454,o),
(768,401,o),
(768,271,cs),
(768,0,l),
(795,0,l),
(795,272,ls),
(795,418,o),
(727,482,o),
(622,482,cs),
(553,482,o),
(473,445,o),
(443,343,c),
(451,343,l),
(431,439,o),
(369,482,o),
(283,482,cs),
(217,482,o),
(142,448,o),
(110,357,c),
(115,355,l),
(115,472,l),
(88,472,l),
(88,0,l)
);
}
);
width = 875;
},
{
anchors = (
{
name = bottom;
pos = (454,0);
},
{
name = top;
pos = (454,502);
}
);
hints = (
{
origin = (0,0);
target = (0,36);
type = Stem;
},
{
origin = (0,8);
target = (0,9);
type = Stem;
},
{
origin = (0,17);
target = (0,18);
type = Stem;
},
{
horizontal = 1;
origin = (0,13);
target = (0,22);
type = Stem;
},
{
horizontal = 1;
place = (0,21);
target = up;
type = BottomGhost;
}
);
layerId = "413C4000-F51E-49A0-99E6-BF5D502A191B";
shapes = (
{
closed = 1;
nodes = (
(244,0,l),
(244,264,ls),
(244,308,o),
(265,330,o),
(301,330,cs),
(334,330,o),
(353,308,o),
(353,264,cs),
(353,0,l),
(555,0,l),
(555,264,ls),
(555,308,o),
(576,330,o),
(612,330,cs),
(645,330,o),
(664,308,o),
(664,264,cs),
(664,0,l),
(866,0,l),
(866,318,ls),
(866,442,o),
(793,512,o),
(681,512,cs),
(599,512,o),
(531,468,o),
(506,395,c),
(543,395,l),
(517,473,o),
(455,512,o),
(370,512,cs),
(297,512,o),
(234,470,o),
(210,410,c),
(238,410,l),
(238,502,l),
(42,502,l),
(42,0,l)
);
}
);
width = 904;
},
{
anchors = (
{
name = bottom;
pos = (430,0);
},
{
name = top;
pos = (430,493);
}
);
hints = (
{
origin = (0,36);
target = (0,0);
type = Stem;
},
{
origin = (0,8);
target = (0,9);
type = Stem;
},
{
origin = (0,17);
target = (0,18);
type = Stem;
},
{
horizontal = 1;
origin = (0,22);
target = (0,13);
type = Stem;
},
{
horizontal = 1;
origin = (0,8);
target = up;
type = BottomGhost;
}
);
layerId = "9E4DF390-DC64-4DFF-9707-6073A03EA565";
shapes = (
{
closed = 1;
nodes = (
(207,0,l),
(207,282,ls),
(207,334,o),
(239,367,o),
(285,367,cs),
(328,367,o),
(355,340,o),
(355,282,cs),
(355,0,l),
(505,0,l),
(505,282,ls),
(505,334,o),
(536,367,o),
(581,367,cs),
(625,367,o),
(653,340,o),
(653,282,cs),
(653,0,l),
(802,0,l),
(802,305,ls),
(802,433,o),
(726,503,o),
(621,503,cs),
(569,503,o),
(474,484,o),
(434,378,c),
(493,378,l),
(472,460,o),
(413,503,o),
(334,503,cs),
(270,503,o),
(187,476,o),
(161,354,c),
(202,354,l),
(202,493,l),
(58,493,l),
(58,0,l)
);
}
);
width = 855;
}
);
unicode = 109;
},
{
glyphname = n;
kernLeft = n;
kernRight = n;
lastChange = "2025-08-05 15:31:08 +0000";
layers = (
{
anchors = (
{
name = bottom;
pos = (280,0);
},
{
name = top;
pos = (280,472);
}
);
layerId = "7A502162-43D8-4289-B728-53226767971B";
shapes = (
{
closed = 1;
nodes = (
(117,0,l),
(117,271,ls),
(117,392,o),
(197,454,o),
(289,454,cs),
(378,454,o),
(446,401,o),
(446,270,cs),
(446,0,l),
(475,0,l),
(475,272,ls),
(475,418,o),
(398,482,o),
(292,482,cs),
(225,482,o),
(138,446,o),
(107,348,c),
(115,348,l),
(115,472,l),
(88,472,l),
(88,0,l)
);
}
);
width = 555;
},
{
anchors = (
{
name = bottom;
pos = (299,0);
},
{
name = top;
pos = (303,502);
}
);
hints = (
{
horizontal = 1;
origin = (0,8);
target = up;
type = BottomGhost;
},
{
origin = (0,20);
target = (0,0);
type = Stem;
},
{
origin = (0,8);
target = (0,9);
type = Stem;
},
{
horizontal = 1;
origin = (0,13);
target = (0,4);
type = Stem;
}
);
layerId = "413C4000-F51E-49A0-99E6-BF5D502A191B";
shapes = (
{
closed = 1;
nodes = (
(244,0,l),
(244,264,ls),
(244,308,o),
(268,330,o),
(304,330,cs),
(337,330,o),
(359,308,o),
(359,264,cs),
(359,0,l),
(561,0,l),
(561,318,ls),
(561,442,o),
(485,512,o),
(373,512,cs),
(282,512,o),
(206,450,o),
(198,358,c),
(238,358,l),
(238,502,l),
(42,502,l),
(42,0,l)
);
}
);
width = 599;
},
{
anchors = (
{
name = bottom;
pos = (287,0);
},
{
name = top;
pos = (290,493);
}
);
hints = (
{
horizontal = 1;
origin = (0,8);
target = up;
type = BottomGhost;
},
{
origin = (0,20);
target = (0,0);
type = Stem;
},
{
origin = (0,8);
target = (0,9);
type = Stem;
},
{
horizontal = 1;
origin = (0,13);
target = (0,4);
type = Stem;
}
);
layerId = "9E4DF390-DC64-4DFF-9707-6073A03EA565";
shapes = (
{
closed = 1;
nodes = (
(208,0,l),
(208,268,ls),
(208,332,o),
(244,367,o),
(294,367,cs),
(340,367,o),
(369,338,o),
(369,272,cs),
(369,0,l),
(519,0,l),
(519,297,ls),
(519,425,o),
(448,503,o),
(338,503,cs),
(281,503,o),
(189,480,o),
(163,355,c),
(203,355,l),
(203,493,l),
(58,493,l),
(58,0,l)
);
}
);
width = 572;
}
);
unicode = 110;
},
{
glyphname = eng;
kernLeft = n;
kernRight = n;
lastChange = "2025-08-05 15:33:32 +0000";
layers = (
{
layerId = "7A502162-43D8-4289-B728-53226767971B";
shapes = (
{
closed = 1;
nodes = (
(367,-200,ls),
(430,-200,o),
(475,-156,o),
(475,-93,cs),
(475,272,ls),
(475,418,o),
(398,482,o),
(292,482,cs),
(225,482,o),
(138,446,o),
(107,348,c),
(115,348,l),
(115,472,l),
(88,472,l),
(88,0,l),
(117,0,l),
(117,271,ls),
(117,392,o),
(197,454,o),
(289,454,cs),
(378,454,o),
(446,401,o),
(446,270,cs),
(446,-95,ls),
(446,-140,o),
(413,-173,o),
(369,-173,cs),
(321,-173,l),
(321,-200,l)
);
}
);
width = 555;
},
{
hints = (
{
origin = (0,15);
target = (0,14);
type = Stem;
},
{
origin = (0,23);
target = (0,3);
type = Stem;
},
{
horizontal = 1;
origin = (0,19);
target = (0,7);
type = Stem;
},
{
horizontal = 1;
origin = (0,28);
target = (0,27);
type = Stem;
}
);
layerId = "413C4000-F51E-49A0-99E6-BF5D502A191B";
shapes = (
{
closed = 1;
nodes = (
(336,-200,ls),
(476,-200,o),
(561,-127,o),
(561,3,cs),
(561,318,ls),
(561,442,o),
(485,512,o),
(373,512,cs),
(282,512,o),
(206,450,o),
(198,358,c),
(238,358,l),
(238,502,l),
(42,502,l),
(42,0,l),
(244,0,l),
(244,264,ls),
(244,308,o),
(268,330,o),
(304,330,cs),
(337,330,o),
(359,308,o),
(359,264,cs),
(359,-20,ls),
(359,-28,o),
(353,-34,o),
(345,-34,cs),
(294,-34,l),
(294,-200,l)
);
}
);
width = 599;
},
{
hints = (
{
origin = (0,14);
target = (0,15);
type = Stem;
},
{
origin = (0,22);
target = (0,4);
type = Stem;
},
{
horizontal = 1;
origin = (0,7);
target = (0,19);
type = Stem;
},
{
horizontal = 1;
origin = (0,28);
target = (0,27);
type = Stem;
}
);
layerId = "9E4DF390-DC64-4DFF-9707-6073A03EA565";
shapes = (
{
closed = 1;
nodes = (
(329,-200,ls),
(446,-200,o),
(519,-136,o),
(519,-26,cs),
(519,297,ls),
(519,425,o),
(448,503,o),
(338,503,cs),
(281,503,o),
(189,480,o),
(163,355,c),
(203,355,l),
(203,493,l),
(58,493,l),
(58,0,l),
(208,0,l),
(208,268,ls),
(208,332,o),
(244,367,o),
(294,367,cs),
(340,367,o),
(369,338,o),
(369,272,cs),
(369,-56,ls),
(369,-67,o),
(360,-76,o),
(349,-76,cs),
(286,-76,l),
(286,-200,l)
);
}
);
width = 572;
}
);
unicode = 331;
},
{
glyphname = o;
kernLeft = o;
kernRight = o;
lastChange = "2025-08-05 15:34:00 +0000";
layers = (
{
anchors = (
{
name = bottom;
pos = (274,0);
},
{
name = center;
pos = (275,236);
},
{
name = top;
pos = (275,472);
},
{
name = topright;
pos = (328,472);
}
);
layerId = "7A502162-43D8-4289-B728-53226767971B";
shapes = (
{
closed = 1;
nodes = (
(405,-10,o),
(497,91,o),
(497,235,cs),
(497,246,ls),
(497,384,o),
(405,482,o),
(275,482,cs),
(145,482,o),
(52,383,o),
(52,243,cs),
(52,235,ls),
(52,91,o),
(145,-10,o),
(275,-10,cs)
);
},
{
closed = 1;
nodes = (
(162,18,o),
(81,107,o),
(81,235,cs),
(81,243,ls),
(81,367,o),
(162,454,o),
(275,454,cs),
(389,454,o),
(468,369,o),
(468,246,cs),
(468,235,ls),
(468,107,o),
(389,18,o),
(275,18,cs)
);
}
);
width = 549;
},
{
anchors = (
{
name = bottom;
pos = (296,0);
},
{
name = center;
pos = (295,252);
},
{
name = top;
pos = (295,502);
},
{
name = topright;
pos = (325,502);
}
);
hints = (
{
horizontal = 1;
origin = (0,13);
target = (1,13);
type = Stem;
},
{
horizontal = 1;
origin = (0,6);
target = (1,6);
type = Stem;
},
{
origin = (0,10);
target = (1,3);
type = Stem;
},
{
origin = (1,10);
target = (0,3);
type = Stem;
}
);
layerId = "413C4000-F51E-49A0-99E6-BF5D502A191B";
shapes = (
{
closed = 1;
nodes = (
(451,-10,o),
(574,95,o),
(574,245,cs),
(574,255,ls),
(574,405,o),
(451,512,o),
(296,512,cs),
(141,512,o),
(18,406,o),
(18,256,cs),
(18,245,ls),
(18,95,o),
(141,-10,o),
(296,-10,cs)
);
},
{
closed = 1;
nodes = (
(250,172,o),
(219,204,o),
(219,245,cs),
(219,256,ls),
(219,298,o),
(250,330,o),
(296,330,cs),
(343,330,o),
(374,297,o),
(374,255,cs),
(374,245,ls),
(374,204,o),
(343,172,o),
(296,172,cs)
);
}
);
width = 592;
},
{
anchors = (
{
name = bottom;
pos = (292,0);
},
{
name = center;
pos = (291,247);
},
{
name = top;
pos = (291,493);
},
{
name = topright;
pos = (328,493);
}
);
hints = (
{
horizontal = 1;
origin = (0,13);
target = (1,13);
type = Stem;
},
{
horizontal = 1;
origin = (0,6);
target = (1,6);
type = Stem;
},
{
origin = (0,10);
target = (1,3);
type = Stem;
},
{
origin = (1,10);
target = (0,3);
type = Stem;
}
);
layerId = "9E4DF390-DC64-4DFF-9707-6073A03EA565";
shapes = (
{
closed = 1;
nodes = (
(439,-10,o),
(553,94,o),
(553,242,cs),
(553,252,ls),
(553,399,o),
(439,503,o),
(292,503,cs),
(144,503,o),
(30,399,o),
(30,252,cs),
(30,242,ls),
(30,94,o),
(144,-10,o),
(292,-10,cs)
);
},
{
closed = 1;
nodes = (
(226,121,o),
(180,171,o),
(180,242,cs),
(180,252,ls),
(180,322,o),
(226,372,o),
(292,372,cs),
(358,372,o),
(403,322,o),
(403,252,cs),
(403,242,ls),
(403,171,o),
(358,121,o),
(292,121,cs)
);
}
);
width = 583;
}
);
unicode = 111;
},
{
color = 8;
glyphname = ohorn;
kernLeft = o;
kernRight = ohorn;
lastChange = "2025-08-05 15:34:03 +0000";
layers = (
{
anchors = (
{
name = bottom;
pos = (274,0);
},
{
name = top;
pos = (275,472);
}
);
background = {
anchors = (
{
name = bottom;
pos = (274,0);
},
{
name = top;
pos = (275,472);
}
);
shapes = (
{
closed = 1;
nodes = (
(405,-10,o),
(497,91,o),
(497,235,cs),
(497,246,ls),
(497,326,o),
(467,392,o),
(415,434,c),
(410,429,l),
(491,430,o),
(521,475,o),
(514,554,c),
(487,554,l),
(495,486,o),
(468,454,o),
(412,454,cs),
(376,454,o),
(348,482,o),
(275,482,cs),
(145,482,o),
(52,383,o),
(52,243,cs),
(52,235,ls),
(52,91,o),
(145,-10,o),
(275,-10,cs)
);
},
{
closed = 1;
nodes = (
(162,17,o),
(81,107,o),
(81,235,cs),
(81,243,ls),
(81,367,o),
(162,454,o),
(275,454,cs),
(389,454,o),
(468,369,o),
(468,246,cs),
(468,235,ls),
(468,107,o),
(389,17,o),
(275,17,cs)
);
}
);
};
layerId = "7A502162-43D8-4289-B728-53226767971B";
shapes = (
{
closed = 1;
nodes = (
(405,-10,o),
(497,91,o),
(497,235,cs),
(497,246,ls),
(497,326,o),
(467,392,o),
(415,434,c),
(410,429,l),
(491,430,o),
(521,475,o),
(514,554,c),
(487,554,l),
(495,486,o),
(468,454,o),
(412,454,cs),
(376,454,o),
(348,482,o),
(275,482,cs),
(145,482,o),
(52,383,o),
(52,243,cs),
(52,235,ls),
(52,91,o),
(145,-10,o),
(275,-10,cs)
);
},
{
closed = 1;
nodes = (
(162,17,o),
(81,107,o),
(81,235,cs),
(81,243,ls),
(81,367,o),
(162,454,o),
(275,454,cs),
(389,454,o),
(468,369,o),
(468,246,cs),
(468,235,ls),
(468,107,o),
(389,17,o),
(275,17,cs)
);
}
);
width = 556;
},
{
anchors = (
{
name = bottom;
pos = (296,0);
},
{
name = top;
pos = (295,502);
}
);
background = {
anchors = (
{
name = bottom;
pos = (294,0);
},
{
name = top;
pos = (293,502);
}
);
shapes = (
{
closed = 1;
nodes = (
(449,-10,o),
(572,95,o),
(572,245,cs),
(572,255,ls),
(572,330,o),
(542,392,o),
(491,440,c),
(464,368,l),
(596,390,o),
(632,472,o),
(612,599,c),
(440,599,l),
(447,533,o),
(451,496,o),
(397,496,cs),
(379,496,o),
(348,512,o),
(294,512,cs),
(139,512,o),
(16,406,o),
(16,256,cs),
(16,245,ls),
(16,95,o),
(139,-10,o),
(294,-10,cs)
);
},
{
closed = 1;
nodes = (
(248,172,o),
(217,204,o),
(217,245,cs),
(217,256,ls),
(217,298,o),
(248,330,o),
(294,330,cs),
(341,330,o),
(372,297,o),
(372,255,cs),
(372,245,ls),
(372,204,o),
(341,172,o),
(294,172,cs)
);
}
);
};
hints = (
{
horizontal = 1;
origin = (0,24);
target = (1,13);
type = Stem;
},
{
horizontal = 1;
origin = (0,17);
target = (1,6);
type = Stem;
},
{
origin = (0,21);
target = (1,3);
type = Stem;
},
{
origin = (1,10);
target = (0,3);
type = Stem;
}
);
layerId = "413C4000-F51E-49A0-99E6-BF5D502A191B";
shapes = (
{
closed = 1;
nodes = (
(451,-10,o),
(574,95,o),
(574,245,cs),
(574,255,ls),
(574,330,o),
(544,392,o),
(493,440,c),
(466,368,l),
(598,390,o),
(634,472,o),
(614,599,c),
(452,599,l),
(459,533,o),
(453,496,o),
(399,496,cs),
(381,496,o),
(350,512,o),
(296,512,cs),
(141,512,o),
(18,406,o),
(18,256,cs),
(18,245,ls),
(18,95,o),
(141,-10,o),
(296,-10,cs)
);
},
{
closed = 1;
nodes = (
(250,172,o),
(219,204,o),
(219,245,cs),
(219,256,ls),
(219,298,o),
(250,330,o),
(296,330,cs),
(343,330,o),
(374,297,o),
(374,255,cs),
(374,245,ls),
(374,204,o),
(343,172,o),
(296,172,cs)
);
}
);
width = 608;
},
{
anchors = (
{
name = bottom;
pos = (292,0);
},
{
name = top;
pos = (291,493);
}
);
background = {
anchors = (
{
name = bottom;
pos = (292,0);
},
{
name = top;
pos = (291,493);
}
);
shapes = (
{
closed = 1;
nodes = (
(439,-10,o),
(553,94,o),
(553,242,cs),
(553,252,ls),
(553,318,o),
(530,374,o),
(492,419,c),
(467,374,l),
(580,381,o),
(603,460,o),
(575,571,c),
(451,571,l),
(468,504,o),
(466,473,o),
(433,473,cs),
(403,473,o),
(376,503,o),
(292,503,cs),
(144,503,o),
(30,399,o),
(30,252,cs),
(30,242,ls),
(30,94,o),
(144,-10,o),
(292,-10,cs)
);
},
{
closed = 1;
nodes = (
(226,121,o),
(180,171,o),
(180,242,cs),
(180,252,ls),
(180,322,o),
(226,372,o),
(292,372,cs),
(358,372,o),
(404,322,o),
(404,252,cs),
(404,242,ls),
(404,171,o),
(358,121,o),
(292,121,cs)
);
}
);
};
hints = (
{
horizontal = 1;
origin = (0,24);
target = (1,13);
type = Stem;
},
{
horizontal = 1;
origin = (0,17);
target = (1,6);
type = Stem;
},
{
origin = (0,21);
target = (1,3);
type = Stem;
},
{
origin = (1,10);
target = (0,3);
type = Stem;
}
);
layerId = "9E4DF390-DC64-4DFF-9707-6073A03EA565";
shapes = (
{
closed = 1;
nodes = (
(439,-10,o),
(553,94,o),
(553,242,cs),
(553,252,ls),
(553,318,o),
(530,374,o),
(492,419,c),
(467,374,l),
(580,381,o),
(603,460,o),
(575,571,c),
(451,571,l),
(468,504,o),
(466,473,o),
(433,473,cs),
(403,473,o),
(376,503,o),
(292,503,cs),
(144,503,o),
(30,399,o),
(30,252,cs),
(30,242,ls),
(30,94,o),
(144,-10,o),
(292,-10,cs)
);
},
{
closed = 1;
nodes = (
(226,121,o),
(180,171,o),
(180,242,cs),
(180,252,ls),
(180,322,o),
(226,372,o),
(292,372,cs),
(358,372,o),
(404,322,o),
(404,252,cs),
(404,242,ls),
(404,171,o),
(358,121,o),
(292,121,cs)
);
}
);
width = 595;
}
);
unicode = 417;
},
{
glyphname = oslash;
kernLeft = o;
kernRight = o;
lastChange = "2025-08-05 15:38:23 +0000";
layers = (
{
layerId = "7A502162-43D8-4289-B728-53226767971B";
shapes = (
{
closed = 1;
nodes = (
(138,54,l),
(147,64,l),
(432,393,l),
(442,404,l),
(503,473,l),
(484,490,l),
(423,421,l),
(415,410,l),
(128,79,l),
(119,69,l),
(56,0,l),
(74,-17,l)
);
},
{
closed = 1;
nodes = (
(410,-10,o),
(502,91,o),
(502,235,cs),
(502,246,ls),
(502,384,o),
(410,482,o),
(280,482,cs),
(150,482,o),
(57,383,o),
(57,243,cs),
(57,235,ls),
(57,91,o),
(150,-10,o),
(280,-10,cs)
);
},
{
closed = 1;
nodes = (
(167,17,o),
(86,107,o),
(86,235,cs),
(86,243,ls),
(86,367,o),
(167,454,o),
(280,454,cs),
(394,454,o),
(473,369,o),
(473,246,cs),
(473,235,ls),
(473,107,o),
(394,17,o),
(280,17,cs)
);
}
);
width = 559;
},
{
hints = (
{
horizontal = 1;
origin = (1,13);
target = (2,13);
type = Stem;
},
{
horizontal = 1;
origin = (1,6);
target = (2,6);
type = Stem;
},
{
origin = (1,10);
target = (2,3);
type = Stem;
},
{
origin = (2,10);
target = (1,3);
type = Stem;
}
);
layerId = "413C4000-F51E-49A0-99E6-BF5D502A191B";
shapes = (
{
closed = 1;
nodes = (
(185,37,l),
(276,145,l),
(398,276,l),
(521,398,l),
(572,453,l),
(473,543,l),
(406,471,l),
(314,360,l),
(188,228,l),
(71,109,l),
(19,51,l),
(116,-38,l)
);
},
{
closed = 1;
nodes = (
(452,-10,o),
(575,95,o),
(575,245,cs),
(575,255,ls),
(575,405,o),
(452,512,o),
(297,512,cs),
(142,512,o),
(19,406,o),
(19,256,cs),
(19,245,ls),
(19,95,o),
(142,-10,o),
(297,-10,cs)
);
},
{
closed = 1;
nodes = (
(238,152,o),
(200,191,o),
(200,244,cs),
(200,257,ls),
(200,311,o),
(238,350,o),
(297,350,cs),
(357,350,o),
(395,310,o),
(395,256,cs),
(395,244,ls),
(395,191,o),
(357,152,o),
(297,152,cs)
);
}
);
width = 594;
},
{
hints = (
{
horizontal = 1;
origin = (1,13);
target = (2,13);
type = Stem;
},
{
horizontal = 1;
origin = (1,6);
target = (2,6);
type = Stem;
},
{
origin = (1,10);
target = (2,3);
type = Stem;
},
{
origin = (2,10);
target = (1,3);
type = Stem;
}
);
layerId = "9E4DF390-DC64-4DFF-9707-6073A03EA565";
shapes = (
{
closed = 1;
nodes = (
(173,42,l),
(239,121,l),
(410,311,l),
(499,400,l),
(553,459,l),
(478,527,l),
(413,456,l),
(346,375,l),
(172,183,l),
(87,97,l),
(32,36,l),
(105,-32,l)
);
},
{
closed = 1;
nodes = (
(441,-10,o),
(555,94,o),
(555,242,cs),
(555,252,ls),
(555,399,o),
(441,503,o),
(294,503,cs),
(146,503,o),
(32,399,o),
(32,252,cs),
(32,242,ls),
(32,94,o),
(146,-10,o),
(294,-10,cs)
);
},
{
closed = 1;
nodes = (
(228,121,o),
(182,171,o),
(182,242,cs),
(182,252,ls),
(182,322,o),
(228,372,o),
(294,372,cs),
(360,372,o),
(406,322,o),
(406,252,cs),
(406,242,ls),
(406,171,o),
(360,121,o),
(294,121,cs)
);
}
);
width = 587;
}
);
unicode = 248;
},
{
glyphname = oe;
kernLeft = o;
kernRight = e;
lastChange = "2025-08-05 15:39:09 +0000";
layers = (
{
anchors = (
{
name = bottom;
pos = (468,0);
},
{
name = top;
pos = (471,472);
}
);
layerId = "7A502162-43D8-4289-B728-53226767971B";
shapes = (
{
closed = 1;
nodes = (
(376,-10,o),
(453,57,o),
(478,160,c),
(472,160,l),
(499,56,o),
(584,-10,o),
(691,-10,cs),
(751,-10,o),
(807,10,o),
(839,38,c),
(822,60,l),
(793,35,o),
(744,18,o),
(691,18,cs),
(572,18,o),
(490,106,o),
(490,233,cs),
(490,245,ls),
(490,368,o),
(563,454,o),
(672,454,cs),
(774,454,o),
(841,372,o),
(831,250,c),
(844,261,l),
(482,261,l),
(482,235,l),
(859,235,l),
(874,380,o),
(796,482,o),
(672,482,cs),
(570,482,o),
(496,416,o),
(471,319,c),
(477,319,l),
(452,418,o),
(375,482,o),
(272,482,cs),
(144,482,o),
(52,383,o),
(52,243,cs),
(52,235,ls),
(52,91,o),
(144,-10,o),
(272,-10,cs)
);
},
{
closed = 1;
nodes = (
(160,17,o),
(81,107,o),
(81,235,cs),
(81,243,ls),
(81,367,o),
(160,454,o),
(272,454,cs),
(385,454,o),
(460,369,o),
(460,246,cs),
(460,235,ls),
(460,107,o),
(385,17,o),
(272,17,cs)
);
}
);
width = 906;
},
{
anchors = (
{
name = bottom;
pos = (454,0);
},
{
name = top;
pos = (453,502);
}
);
background = {
anchors = (
{
name = bottom;
pos = (451,0);
},
{
name = top;
pos = (450,502);
}
);
shapes = (
{
closed = 1;
nodes = (
(379,-10,o),
(448,20,o),
(493,74,c),
(416,74,l),
(456,19,o),
(524,-10,o),
(618,-10,cs),
(698,-10,o),
(774,12,o),
(836,68,c),
(726,192,l),
(693,167,o),
(668,155,o),
(629,155,cs),
(575,155,o),
(553,180,o),
(553,247,cs),
(553,257,ls),
(553,320,o),
(564,366,o),
(610,366,cs),
(650,366,o),
(676,319,o),
(643,223,c),
(745,306,l),
(505,306,l),
(505,207,l),
(843,207,l),
(871,385,o),
(775,512,o),
(608,512,cs),
(529,512,o),
(457,486,o),
(413,427,c),
(480,427,l),
(438,483,o),
(371,512,o),
(287,512,cs),
(134,512,o),
(15,406,o),
(15,256,cs),
(15,245,ls),
(15,95,o),
(134,-10,o),
(287,-10,cs)
);
},
{
closed = 1;
nodes = (
(247,172,o),
(217,203,o),
(217,245,cs),
(217,256,ls),
(217,298,o),
(247,330,o),
(287,330,cs),
(326,330,o),
(356,297,o),
(356,254,cs),
(356,245,ls),
(356,203,o),
(326,172,o),
(287,172,cs)
);
}
);
};
hints = (
{
horizontal = 1;
origin = (0,26);
target = (0,25);
type = Stem;
},
{
origin = (0,40);
target = (1,3);
type = Stem;
},
{
origin = (1,9);
target = (0,17);
type = Stem;
},
{
origin = (0,23);
target = (0,27);
type = Stem;
},
{
horizontal = 1;
origin = (0,37);
target = (1,6);
type = Stem;
},
{
horizontal = 1;
origin = (0,44);
target = (1,13);
type = Stem;
}
);
layerId = "413C4000-F51E-49A0-99E6-BF5D502A191B";
shapes = (
{
closed = 1;
nodes = (
(382,-10,o),
(451,20,o),
(496,74,c),
(419,74,l),
(459,19,o),
(527,-10,o),
(621,-10,cs),
(701,-10,o),
(777,12,o),
(839,68,c),
(729,192,l),
(696,167,o),
(671,155,o),
(632,155,cs),
(578,155,o),
(556,180,o),
(556,247,cs),
(556,257,ls),
(556,320,o),
(567,366,o),
(613,366,cs),
(653,366,o),
(679,319,o),
(646,223,c),
(748,306,l),
(508,306,l),
(508,207,l),
(846,207,l),
(874,385,o),
(778,512,o),
(611,512,cs),
(532,512,o),
(460,486,o),
(416,427,c),
(483,427,l),
(441,483,o),
(374,512,o),
(290,512,cs),
(137,512,o),
(18,406,o),
(18,256,cs),
(18,245,ls),
(18,95,o),
(137,-10,o),
(290,-10,cs)
);
},
{
closed = 1;
nodes = (
(250,172,o),
(220,203,o),
(220,245,cs),
(220,256,ls),
(220,298,o),
(250,330,o),
(290,330,cs),
(329,330,o),
(359,297,o),
(359,254,cs),
(359,245,ls),
(359,203,o),
(329,172,o),
(290,172,cs)
);
}
);
width = 868;
},
{
anchors = (
{
name = bottom;
pos = (460,0);
},
{
name = top;
pos = (460,493);
}
);
hints = (
{
horizontal = 1;
origin = (0,26);
target = (0,25);
type = Stem;
},
{
origin = (0,40);
target = (1,3);
type = Stem;
},
{
origin = (1,9);
target = (0,17);
type = Stem;
},
{
origin = (0,23);
target = (0,27);
type = Stem;
},
{
horizontal = 1;
origin = (0,37);
target = (1,6);
type = Stem;
},
{
horizontal = 1;
origin = (0,44);
target = (1,13);
type = Stem;
}
);
layerId = "9E4DF390-DC64-4DFF-9707-6073A03EA565";
shapes = (
{
closed = 1;
nodes = (
(381,-10,o),
(452,31,o),
(491,100,c),
(437,100,l),
(473,30,o),
(546,-10,o),
(643,-10,cs),
(723,-10,o),
(791,14,o),
(833,71,c),
(748,158,l),
(720,129,o),
(697,115,o),
(651,115,cs),
(578,115,o),
(542,158,o),
(542,223,cs),
(542,253,ls),
(542,328,o),
(567,387,o),
(632,387,cs),
(691,387,o),
(729,330,o),
(703,231,c),
(778,297,l),
(502,297,l),
(502,200,l),
(853,200,l),
(877,384,o),
(785,503,o),
(631,503,cs),
(545,503,o),
(473,465,o),
(435,395,c),
(483,395,l),
(446,463,o),
(376,503,o),
(286,503,cs),
(140,503,o),
(30,399,o),
(30,252,cs),
(30,242,ls),
(30,94,o),
(140,-10,o),
(286,-10,cs)
);
},
{
closed = 1;
nodes = (
(222,121,o),
(180,171,o),
(180,242,cs),
(180,252,ls),
(180,322,o),
(222,372,o),
(286,372,cs),
(351,372,o),
(391,322,o),
(391,252,cs),
(391,242,ls),
(391,171,o),
(351,121,o),
(286,121,cs)
);
}
);
width = 886;
},
{
anchors = (
{
name = bottom;
pos = (465,0);
},
{
name = top;
pos = (466,481);
}
);
associatedMasterId = "7A502162-43D8-4289-B728-53226767971B";
attr = {
coordinates = (
400
);
};
background = {
shapes = (
{
closed = 1;
nodes = (
(377,-10,o),
(450,46,o),
(481,134,c),
(460,134,l),
(490,45,o),
(569,-10,o),
(670,-10,cs),
(739,-10,o),
(800,12,o),
(836,52,c),
(790,102,l),
(762,75,o),
(724,64,o),
(674,64,cs),
(575,64,o),
(512,128,o),
(512,229,cs),
(512,248,ls),
(512,351,o),
(565,421,o),
(655,421,cs),
(739,421,o),
(793,354,o),
(776,242,c),
(816,282,l),
(491,282,l),
(491,216,l),
(856,216,l),
(876,382,o),
(792,491,o),
(655,491,cs),
(561,491,o),
(489,437,o),
(459,352,c),
(480,352,l),
(449,437,o),
(376,491,o),
(278,491,cs),
(142,491,o),
(43,390,o),
(43,247,cs),
(43,238,ls),
(43,92,o),
(142,-10,o),
(278,-10,cs)
);
},
{
closed = 1;
nodes = (
(187,62,o),
(124,134,o),
(124,238,cs),
(124,247,ls),
(124,348,o),
(187,419,o),
(278,419,cs),
(370,419,o),
(431,349,o),
(431,249,cs),
(431,238,ls),
(431,134,o),
(370,62,o),
(278,62,cs)
);
}
);
};
layerId = "D7CCCBCC-50EB-4B6D-933D-027DF5D31078";
name = "4. Aug. 25, 16:26";
shapes = (
{
closed = 1;
nodes = (
(378,-10,o),
(453,46,o),
(484,134,c),
(457,134,l),
(488,44,o),
(568,-10,o),
(670,-10,cs),
(739,-10,o),
(800,12,o),
(836,52,c),
(790,102,l),
(761,75,o),
(724,64,o),
(674,64,cs),
(575,64,o),
(512,129,o),
(512,229,cs),
(512,248,ls),
(512,351,o),
(565,421,o),
(655,421,cs),
(738,421,o),
(793,355,o),
(776,242,c),
(816,282,l),
(491,282,l),
(491,216,l),
(856,216,l),
(875,383,o),
(791,491,o),
(654,491,cs),
(559,491,o),
(486,436,o),
(456,352,c),
(480,352,l),
(450,437,o),
(375,491,o),
(278,491,cs),
(142,491,o),
(43,390,o),
(43,247,cs),
(43,238,ls),
(43,92,o),
(142,-10,o),
(278,-10,cs)
);
},
{
closed = 1;
nodes = (
(187,62,o),
(123,134,o),
(123,238,cs),
(123,247,ls),
(123,348,o),
(187,419,o),
(278,419,cs),
(370,419,o),
(430,349,o),
(430,249,cs),
(430,238,ls),
(430,134,o),
(370,62,o),
(278,62,cs)
);
}
);
width = 897;
}
);
unicode = 339;
},
{
glyphname = p;
kernLeft = n;
kernRight = b;
lastChange = "2025-08-05 15:42:07 +0000";
layers = (
{
anchors = (
{
name = top;
pos = (302,472);
}
);
layerId = "7A502162-43D8-4289-B728-53226767971B";
shapes = (
{
closed = 1;
nodes = (
(117,-200,l),
(117,140,l),
(113,135,l),
(144,47,o),
(218,-10,o),
(312,-10,cs),
(442,-10,o),
(531,91,o),
(531,235,cs),
(531,244,ls),
(531,383,o),
(442,482,o),
(312,482,cs),
(218,482,o),
(144,424,o),
(112,336,c),
(116,331,l),
(116,472,l),
(88,472,l),
(88,-200,l)
);
},
{
closed = 1;
nodes = (
(198,17,o),
(116,107,o),
(116,236,cs),
(116,364,o),
(198,454,o),
(310,454,cs),
(424,454,o),
(502,367,o),
(502,244,cs),
(502,235,ls),
(502,107,o),
(424,17,o),
(310,17,cs)
);
}
);
width = 583;
},
{
anchors = (
{
name = top;
pos = (310,502);
}
);
hints = (
{
horizontal = 1;
origin = (0,19);
target = up;
type = BottomGhost;
},
{
horizontal = 1;
origin = (0,5);
target = (1,12);
type = Stem;
},
{
horizontal = 1;
origin = (0,12);
target = (1,5);
type = Stem;
},
{
origin = (0,19);
target = (0,1);
type = Stem;
},
{
origin = (1,9);
target = (0,9);
type = Stem;
}
);
layerId = "413C4000-F51E-49A0-99E6-BF5D502A191B";
shapes = (
{
closed = 1;
nodes = (
(244,-200,l),
(244,84,l),
(220,35,l),
(263,6,o),
(307,-10,o),
(361,-10,cs),
(495,-10,o),
(591,88,o),
(591,244,cs),
(591,254,ls),
(591,409,o),
(497,512,o),
(364,512,cs),
(308,512,o),
(253,495,o),
(209,443,c),
(230,407,l),
(230,502,l),
(42,502,l),
(42,-200,l)
);
},
{
closed = 1;
nodes = (
(268,172,o),
(230,198,o),
(230,250,cs),
(230,303,o),
(268,330,o),
(310,330,cs),
(348,330,o),
(389,306,o),
(389,254,cs),
(389,244,ls),
(389,194,o),
(348,172,o),
(310,172,cs)
);
}
);
width = 610;
},
{
anchors = (
{
name = top;
pos = (310,493);
}
);
hints = (
{
horizontal = 1;
origin = (0,19);
target = up;
type = BottomGhost;
},
{
horizontal = 1;
origin = (0,5);
target = (1,12);
type = Stem;
},
{
horizontal = 1;
origin = (0,12);
target = (1,5);
type = Stem;
},
{
origin = (0,19);
target = (0,1);
type = Stem;
},
{
origin = (1,9);
target = (0,9);
type = Stem;
}
);
layerId = "9E4DF390-DC64-4DFF-9707-6073A03EA565";
shapes = (
{
closed = 1;
nodes = (
(208,-200,l),
(208,101,l),
(176,65,l),
(216,18,o),
(272,-10,o),
(338,-10,cs),
(471,-10,o),
(572,89,o),
(572,241,cs),
(572,251,ls),
(572,401,o),
(468,503,o),
(337,503,cs),
(267,503,o),
(207,471,o),
(168,418,c),
(198,384,l),
(198,493,l),
(58,493,l),
(58,-200,l)
);
},
{
closed = 1;
nodes = (
(248,121,o),
(198,166,o),
(198,246,cs),
(198,327,o),
(248,372,o),
(313,372,cs),
(371,372,o),
(422,329,o),
(422,251,cs),
(422,241,ls),
(422,164,o),
(371,121,o),
(313,121,cs)
);
}
);
width = 603;
}
);
unicode = 112;
},
{
glyphname = thorn;
kernLeft = h;
kernRight = b;
lastChange = "2025-08-05 15:42:21 +0000";
layers = (
{
layerId = "7A502162-43D8-4289-B728-53226767971B";
shapes = (
{
closed = 1;
nodes = (
(117,-200,l),
(117,141,l),
(113,136,l),
(144,47,o),
(218,-10,o),
(313,-10,cs),
(443,-10,o),
(532,91,o),
(532,235,cs),
(532,244,ls),
(532,383,o),
(443,482,o),
(312,482,cs),
(218,482,o),
(144,424,o),
(113,336,c),
(117,331,l),
(117,730,l),
(88,730,l),
(88,-200,l)
);
},
{
closed = 1;
nodes = (
(198,17,o),
(117,107,o),
(117,236,cs),
(117,364,o),
(198,454,o),
(311,454,cs),
(425,454,o),
(503,367,o),
(503,244,cs),
(503,235,ls),
(503,107,o),
(425,17,o),
(311,17,cs)
);
}
);
width = 584;
},
{
background = {
shapes = (
{
closed = 1;
nodes = (
(242,-200,l),
(242,97,l),
(204,52,l),
(246,12,o),
(295,-10,o),
(356,-10,cs),
(491,-10,o),
(589,88,o),
(589,244,cs),
(589,254,ls),
(589,409,o),
(493,512,o),
(362,512,cs),
(302,512,o),
(247,491,o),
(211,453,c),
(242,407,l),
(242,730,l),
(40,730,l),
(40,-200,l)
);
},
{
closed = 1;
nodes = (
(265,172,o),
(228,197,o),
(228,250,cs),
(228,304,o),
(265,330,o),
(309,330,cs),
(343,330,o),
(387,306,o),
(387,254,cs),
(387,244,ls),
(387,194,o),
(343,172,o),
(309,172,cs)
);
}
);
};
hints = (
{
horizontal = 1;
origin = (0,19);
target = up;
type = BottomGhost;
},
{
horizontal = 1;
origin = (0,5);
target = (1,12);
type = Stem;
},
{
horizontal = 1;
origin = (0,12);
target = (1,5);
type = Stem;
},
{
horizontal = 1;
origin = (0,18);
target = down;
type = TopGhost;
},
{
origin = (0,19);
target = (0,16);
type = Stem;
},
{
origin = (1,9);
target = (0,9);
type = Stem;
}
);
layerId = "413C4000-F51E-49A0-99E6-BF5D502A191B";
shapes = (
{
closed = 1;
nodes = (
(244,-200,l),
(244,97,l),
(206,52,l),
(248,12,o),
(297,-10,o),
(358,-10,cs),
(493,-10,o),
(591,88,o),
(591,244,cs),
(591,254,ls),
(591,409,o),
(495,512,o),
(364,512,cs),
(304,512,o),
(249,491,o),
(213,453,c),
(244,407,l),
(244,730,l),
(42,730,l),
(42,-200,l)
);
},
{
closed = 1;
nodes = (
(267,172,o),
(230,197,o),
(230,250,cs),
(230,304,o),
(267,330,o),
(311,330,cs),
(345,330,o),
(389,306,o),
(389,254,cs),
(389,244,ls),
(389,194,o),
(345,172,o),
(311,172,cs)
);
}
);
width = 610;
},
{
hints = (
{
horizontal = 1;
origin = (0,19);
target = up;
type = BottomGhost;
},
{
horizontal = 1;
origin = (0,5);
target = (1,12);
type = Stem;
},
{
horizontal = 1;
origin = (0,12);
target = (1,5);
type = Stem;
},
{
horizontal = 1;
origin = (0,18);
target = down;
type = TopGhost;
},
{
origin = (0,19);
target = (1,2);
type = Stem;
},
{
origin = (1,9);
target = (0,9);
type = Stem;
}
);
layerId = "9E4DF390-DC64-4DFF-9707-6073A03EA565";
shapes = (
{
closed = 1;
nodes = (
(208,-200,l),
(208,110,l),
(178,77,l),
(217,22,o),
(277,-10,o),
(348,-10,cs),
(481,-10,o),
(582,89,o),
(582,241,cs),
(582,251,ls),
(582,401,o),
(478,503,o),
(347,503,cs),
(277,503,o),
(217,471,o),
(178,418,c),
(208,384,l),
(208,730,l),
(58,730,l),
(58,-200,l)
);
},
{
closed = 1;
nodes = (
(258,121,o),
(208,166,o),
(208,246,cs),
(208,327,o),
(258,372,o),
(323,372,cs),
(381,372,o),
(432,329,o),
(432,251,cs),
(432,241,ls),
(432,164,o),
(381,121,o),
(323,121,cs)
);
}
);
width = 613;
}
);
unicode = 254;
},
{
glyphname = q;
kernLeft = d;
kernRight = u;
lastChange = "2025-08-05 15:42:36 +0000";
layers = (
{
layerId = "7A502162-43D8-4289-B728-53226767971B";
shapes = (
{
closed = 1;
nodes = (
(496,-200,l),
(496,472,l),
(468,472,l),
(468,331,l),
(471,336,l),
(440,424,o),
(366,482,o),
(272,482,cs),
(142,482,o),
(52,383,o),
(52,244,cs),
(52,235,ls),
(52,91,o),
(141,-10,o),
(272,-10,cs),
(366,-10,o),
(439,47,o),
(471,135,c),
(467,140,l),
(467,-200,l)
);
},
{
closed = 1;
nodes = (
(159,17,o),
(81,107,o),
(81,235,cs),
(81,244,ls),
(81,367,o),
(159,454,o),
(273,454,cs),
(386,454,o),
(468,364,o),
(468,236,cs),
(468,107,o),
(386,17,o),
(273,17,cs)
);
}
);
width = 584;
},
{
hints = (
{
horizontal = 1;
origin = (0,19);
target = up;
type = BottomGhost;
},
{
horizontal = 1;
origin = (0,14);
target = (1,12);
type = Stem;
},
{
horizontal = 1;
origin = (0,7);
target = (1,6);
type = Stem;
},
{
origin = (0,11);
target = (1,3);
type = Stem;
},
{
origin = (0,19);
target = (0,1);
type = Stem;
}
);
layerId = "413C4000-F51E-49A0-99E6-BF5D502A191B";
shapes = (
{
closed = 1;
nodes = (
(568,-200,l),
(568,502,l),
(381,502,l),
(381,405,l),
(403,450,l),
(361,491,o),
(312,512,o),
(250,512,cs),
(119,512,o),
(20,409,o),
(20,254,cs),
(20,244,ls),
(20,88,o),
(115,-10,o),
(249,-10,cs),
(303,-10,o),
(347,6,o),
(390,35,c),
(366,84,l),
(366,-200,l)
);
},
{
closed = 1;
nodes = (
(263,172,o),
(222,194,o),
(222,244,cs),
(222,254,ls),
(222,306,o),
(263,330,o),
(297,330,cs),
(342,330,o),
(380,304,o),
(380,250,cs),
(380,197,o),
(342,172,o),
(297,172,cs)
);
}
);
width = 610;
},
{
hints = (
{
horizontal = 1;
origin = (0,19);
target = up;
type = BottomGhost;
},
{
horizontal = 1;
origin = (0,14);
target = (1,12);
type = Stem;
},
{
horizontal = 1;
origin = (0,7);
target = (1,6);
type = Stem;
},
{
origin = (0,11);
target = (1,3);
type = Stem;
},
{
origin = (0,19);
target = (0,1);
type = Stem;
}
);
layerId = "9E4DF390-DC64-4DFF-9707-6073A03EA565";
shapes = (
{
closed = 1;
nodes = (
(545,-200,l),
(545,493,l),
(406,493,l),
(406,383,l),
(436,416,l),
(397,471,o),
(337,503,o),
(266,503,cs),
(135,503,o),
(31,401,o),
(31,251,cs),
(31,241,ls),
(31,89,o),
(132,-10,o),
(265,-10,cs),
(331,-10,o),
(387,18,o),
(427,65,c),
(395,101,l),
(395,-200,l)
);
},
{
closed = 1;
nodes = (
(232,121,o),
(181,164,o),
(181,241,cs),
(181,251,ls),
(181,329,o),
(232,372,o),
(290,372,cs),
(355,372,o),
(405,327,o),
(405,246,cs),
(405,166,o),
(355,121,o),
(290,121,cs)
);
}
);
width = 603;
}
);
unicode = 113;
},
{
glyphname = r;
kernLeft = n;
kernRight = r;
lastChange = "2025-08-05 15:42:52 +0000";
layers = (
{
anchors = (
{
name = bottom;
pos = (102,0);
},
{
name = top;
pos = (189,472);
}
);
layerId = "7A502162-43D8-4289-B728-53226767971B";
shapes = (
{
closed = 1;
nodes = (
(117,0,l),
(117,300,ls),
(117,401,o),
(168,443,o),
(251,443,cs),
(295,443,l),
(295,472,l),
(252,472,ls),
(188,472,o),
(133,453,o),
(110,378,c),
(116,376,l),
(116,472,l),
(88,472,l),
(88,0,l)
);
}
);
width = 317;
},
{
anchors = (
{
name = bottom;
pos = (145,0);
},
{
name = top;
pos = (236,502);
}
);
hints = (
{
horizontal = 1;
origin = (0,14);
target = up;
type = BottomGhost;
},
{
horizontal = 1;
origin = (0,7);
target = (0,5);
type = Stem;
},
{
origin = (0,14);
target = (0,1);
type = Stem;
}
);
layerId = "413C4000-F51E-49A0-99E6-BF5D502A191B";
shapes = (
{
closed = 1;
nodes = (
(244,0,l),
(244,231,ls),
(244,282,o),
(278,310,o),
(345,310,cs),
(399,310,l),
(399,509,l),
(363,509,ls),
(274,509,o),
(204,464,o),
(214,315,c),
(237,316,l),
(237,502,l),
(42,502,l),
(42,0,l)
);
}
);
width = 412;
},
{
anchors = (
{
name = bottom;
pos = (134,0);
},
{
name = top;
pos = (224,493);
}
);
hints = (
{
horizontal = 1;
origin = (0,14);
target = up;
type = BottomGhost;
},
{
horizontal = 1;
origin = (0,7);
target = (0,5);
type = Stem;
},
{
origin = (0,14);
target = (0,1);
type = Stem;
}
);
layerId = "9E4DF390-DC64-4DFF-9707-6073A03EA565";
shapes = (
{
closed = 1;
nodes = (
(208,0,l),
(208,265,ls),
(208,318,o),
(247,350,o),
(319,350,cs),
(370,350,l),
(370,498,l),
(332,498,ls),
(250,498,o),
(185,460,o),
(185,334,c),
(203,334,l),
(203,493,l),
(58,493,l),
(58,0,l)
);
}
);
width = 387;
}
);
unicode = 114;
},
{
glyphname = s;
kernLeft = s;
kernRight = s;
lastChange = "2025-08-05 15:43:10 +0000";
layers = (
{
anchors = (
{
name = bottom;
pos = (198,0);
},
{
name = top;
pos = (207,472);
}
);
layerId = "7A502162-43D8-4289-B728-53226767971B";
shapes = (
{
closed = 1;
nodes = (
(296,-10,o),
(362,43,o),
(362,119,cs),
(362,294,o),
(85,207,o),
(85,352,cs),
(85,412,o),
(138,455,o),
(213,455,cs),
(263,455,o),
(306,437,o),
(337,410,c),
(353,432,l),
(318,461,o),
(269,482,o),
(213,482,cs),
(121,482,o),
(57,428,o),
(57,350,cs),
(57,177,o),
(333,267,o),
(333,119,cs),
(333,58,o),
(279,16,o),
(202,16,cs),
(148,16,o),
(90,37,o),
(58,71,c),
(42,49,l),
(77,12,o),
(141,-10,o),
(202,-10,cs)
);
}
);
width = 409;
},
{
anchors = (
{
name = bottom;
pos = (243,0);
},
{
name = top;
pos = (251,502);
}
);
hints = (
{
horizontal = 1;
origin = (0,31);
target = (0,24);
type = Stem;
},
{
horizontal = 1;
origin = (0,15);
target = (0,8);
type = Stem;
},
{
origin = (0,18);
target = (0,5);
type = Stem;
},
{
origin = (0,21);
target = (0,2);
type = Stem;
}
);
layerId = "413C4000-F51E-49A0-99E6-BF5D502A191B";
shapes = (
{
closed = 1;
nodes = (
(361,-7,o),
(459,64,o),
(459,166,cs),
(459,352,o),
(222,316,o),
(222,357,cs),
(222,366,o),
(234,372,o),
(256,372,cs),
(295,372,o),
(335,353,o),
(381,328,c),
(456,465,l),
(402,495,o),
(331,512,o),
(257,512,cs),
(116,512,o),
(32,439,o),
(32,339,cs),
(32,156,o),
(260,198,o),
(260,152,cs),
(260,142,o),
(247,136,o),
(228,136,cs),
(179,136,o),
(131,159,o),
(80,188,c),
(7,52,l),
(58,22,o),
(129,-7,o),
(224,-7,cs)
);
}
);
width = 476;
},
{
anchors = (
{
name = bottom;
pos = (229,0);
},
{
name = top;
pos = (237,493);
}
);
hints = (
{
horizontal = 1;
origin = (0,31);
target = (0,24);
type = Stem;
},
{
horizontal = 1;
origin = (0,15);
target = (0,8);
type = Stem;
},
{
origin = (0,18);
target = (0,5);
type = Stem;
},
{
origin = (0,21);
target = (0,2);
type = Stem;
}
);
layerId = "9E4DF390-DC64-4DFF-9707-6073A03EA565";
shapes = (
{
closed = 1;
nodes = (
(339,-8,o),
(426,58,o),
(426,152,cs),
(426,338,o),
(185,287,o),
(185,355,cs),
(185,376,o),
(206,390,o),
(241,390,cs),
(279,390,o),
(319,378,o),
(357,355,c),
(421,455,l),
(373,485,o),
(310,503,o),
(243,503,cs),
(118,503,o),
(42,436,o),
(42,342,cs),
(42,155,o),
(276,212,o),
(276,142,cs),
(276,121,o),
(253,107,o),
(217,107,cs),
(170,107,o),
(125,126,o),
(83,152,c),
(20,51,l),
(65,19,o),
(133,-8,o),
(217,-8,cs)
);
}
);
width = 456;
}
);
unicode = 115;
},
{
glyphname = germandbls;
kernLeft = h;
lastChange = "2025-08-05 15:43:46 +0000";
layers = (
{
layerId = "7A502162-43D8-4289-B728-53226767971B";
shapes = (
{
closed = 1;
nodes = (
(451,0,o),
(529,75,o),
(529,187,cs),
(529,306,o),
(455,373,o),
(317,373,c),
(317,360,l),
(423,360,o),
(496,461,o),
(496,559,cs),
(496,670,o),
(421,740,o),
(302,740,cs),
(170,740,o),
(88,652,o),
(88,511,cs),
(88,0,l),
(117,0,l),
(117,512,ls),
(117,636,o),
(188,713,o),
(302,713,cs),
(404,713,o),
(468,654,o),
(468,559,cs),
(468,471,o),
(399,379,o),
(303,379,c),
(303,352,l),
(326,352,ls),
(439,352,o),
(501,289,o),
(501,189,cs),
(501,92,o),
(434,28,o),
(322,28,cs),
(230,28,l),
(230,0,l),
(324,0,ls)
);
}
);
width = 579;
},
{
hints = (
{
horizontal = 1;
origin = (0,38);
target = (0,36);
type = Stem;
},
{
horizontal = 1;
origin = (0,12);
target = (0,21);
type = Stem;
},
{
origin = (0,16);
target = (0,18);
type = Stem;
},
{
origin = (0,32);
target = (0,2);
type = Stem;
},
{
horizontal = 1;
origin = (0,27);
target = (0,28);
type = Stem;
}
);
layerId = "413C4000-F51E-49A0-99E6-BF5D502A191B";
shapes = (
{
closed = 1;
nodes = (
(504,0,o),
(610,68,o),
(610,203,cs),
(610,318,o),
(512,399,o),
(364,399,c),
(364,336,l),
(493,336,o),
(579,412,o),
(579,525,cs),
(579,658,o),
(475,745,o),
(320,745,cs),
(141,745,o),
(42,637,o),
(42,460,cs),
(42,0,l),
(244,0,l),
(244,477,ls),
(244,536,o),
(273,571,o),
(322,571,cs),
(358,571,o),
(379,550,o),
(379,515,cs),
(379,475,o),
(345,454,o),
(293,452,c),
(293,286,l),
(344,286,ls),
(382,286,o),
(408,264,o),
(408,239,cs),
(408,202,o),
(377,178,o),
(331,178,cs),
(268,178,l),
(268,0,l),
(362,0,ls)
);
}
);
width = 626;
},
{
hints = (
{
horizontal = 1;
origin = (0,27);
target = (0,28);
type = Stem;
},
{
horizontal = 1;
origin = (0,12);
target = (0,21);
type = Stem;
},
{
origin = (0,16);
target = (0,18);
type = Stem;
},
{
origin = (0,32);
target = (0,2);
type = Stem;
},
{
horizontal = 1;
origin = (0,38);
target = (0,36);
type = Stem;
}
);
layerId = "9E4DF390-DC64-4DFF-9707-6073A03EA565";
shapes = (
{
closed = 1;
nodes = (
(491,0,o),
(588,69,o),
(588,195,cs),
(588,320,o),
(515,392,o),
(359,392,c),
(359,344,l),
(499,344,o),
(556,424,o),
(556,532,cs),
(556,658,o),
(461,740,o),
(317,740,cs),
(152,740,o),
(58,638,o),
(58,472,cs),
(58,0,l),
(208,0,l),
(208,484,ls),
(208,565,o),
(247,610,o),
(318,610,cs),
(375,610,o),
(408,579,o),
(408,524,cs),
(408,475,o),
(369,441,o),
(298,431,c),
(298,307,l),
(341,307,ls),
(398,307,o),
(438,272,o),
(438,221,cs),
(438,168,o),
(408,133,o),
(334,133,cs),
(268,133,l),
(268,0,l),
(356,0,ls)
);
}
);
width = 618;
}
);
unicode = 223;
},
{
glyphname = t;
kernLeft = t;
kernRight = t;
lastChange = "2025-08-05 16:02:13 +0000";
layers = (
{
anchors = (
{
name = bottom;
pos = (188,19);
},
{
name = center;
pos = (143,293);
},
{
name = top;
pos = (127,591);
},
{
name = topright;
pos = (235,702);
}
);
layerId = "7A502162-43D8-4289-B728-53226767971B";
shapes = (
{
closed = 1;
nodes = (
(286,0,l),
(286,27,l),
(219,27,ls),
(175,27,o),
(141,60,o),
(141,105,cs),
(141,591,l),
(113,591,l),
(113,106,ls),
(113,42,o),
(159,0,o),
(219,0,cs)
);
},
{
closed = 1;
nodes = (
(286,444,l),
(286,472,l),
(18,472,l),
(18,444,l)
);
}
);
width = 317;
},
{
anchors = (
{
name = bottom;
pos = (252,0);
},
{
name = center;
pos = (194,250);
},
{
name = top;
pos = (184,621);
},
{
name = topright;
pos = (329,742);
}
);
hints = (
{
horizontal = 1;
origin = (0,11);
target = (0,2);
type = Stem;
},
{
horizontal = 1;
origin = (1,2);
target = (1,3);
type = Stem;
},
{
origin = (0,8);
target = (0,6);
type = Stem;
}
);
layerId = "413C4000-F51E-49A0-99E6-BF5D502A191B";
shapes = (
{
closed = 1;
nodes = (
(367,0,l),
(367,168,l),
(303,168,ls),
(292,168,o),
(285,172,o),
(285,183,cs),
(285,621,l),
(83,621,l),
(83,180,ls),
(83,18,o),
(197,0,o),
(277,0,cs)
);
},
{
closed = 1;
nodes = (
(367,334,l),
(367,502,l),
(13,502,l),
(13,334,l)
);
}
);
width = 398;
},
{
anchors = (
{
name = bottom;
pos = (238,0);
},
{
name = center;
pos = (184,259);
},
{
name = top;
pos = (172,612);
},
{
name = topright;
pos = (306,730);
}
);
hints = (
{
horizontal = 1;
origin = (0,11);
target = (0,2);
type = Stem;
},
{
horizontal = 1;
origin = (1,2);
target = (1,3);
type = Stem;
},
{
origin = (0,8);
target = (0,6);
type = Stem;
}
);
layerId = "9E4DF390-DC64-4DFF-9707-6073A03EA565";
shapes = (
{
closed = 1;
nodes = (
(348,0,l),
(348,126,l),
(267,126,ls),
(256,126,o),
(247,135,o),
(247,146,cs),
(247,612,l),
(97,612,l),
(97,158,ls),
(97,25,o),
(191,0,o),
(265,0,cs)
);
},
{
closed = 1;
nodes = (
(348,367,l),
(348,493,l),
(20,493,l),
(20,367,l)
);
}
);
width = 384;
}
);
unicode = 116;
},
{
glyphname = u;
kernLeft = u;
kernRight = u;
lastChange = "2025-08-05 16:03:33 +0000";
layers = (
{
anchors = (
{
name = bottom;
pos = (274,0);
},
{
name = ogonek;
pos = (462,0);
},
{
name = top;
pos = (274,472);
},
{
name = topright;
pos = (435,472);
}
);
layerId = "7A502162-43D8-4289-B728-53226767971B";
shapes = (
{
closed = 1;
nodes = (
(330,-10,o),
(415,27,o),
(444,124,c),
(433,124,l),
(433,0,l),
(462,0,l),
(462,472,l),
(435,472,l),
(435,200,ls),
(435,79,o),
(354,18,o),
(264,18,cs),
(176,18,o),
(108,61,o),
(108,192,cs),
(108,472,l),
(80,472,l),
(80,190,ls),
(80,44,o),
(157,-10,o),
(262,-10,cs)
);
}
);
width = 550;
},
{
anchors = (
{
name = bottom;
pos = (306,0);
},
{
name = ogonek;
pos = (553,0);
},
{
name = top;
pos = (296,502);
},
{
name = topright;
pos = (351,502);
}
);
hints = (
{
horizontal = 1;
origin = (0,11);
target = (0,20);
type = Stem;
},
{
horizontal = 1;
place = (502,-20);
target = down;
type = TopGhost;
},
{
horizontal = 1;
place = (0,21);
target = up;
type = BottomGhost;
},
{
origin = (0,14);
target = (0,17);
type = Stem;
},
{
origin = (0,8);
target = (0,5);
type = Stem;
}
);
layerId = "413C4000-F51E-49A0-99E6-BF5D502A191B";
shapes = (
{
closed = 1;
nodes = (
(315,-10,o),
(389,52,o),
(397,144,c),
(357,144,l),
(357,0,l),
(553,0,l),
(553,502,l),
(351,502,l),
(351,238,ls),
(351,194,o),
(329,172,o),
(293,172,cs),
(260,172,o),
(240,194,o),
(240,238,cs),
(240,502,l),
(38,502,l),
(38,184,ls),
(38,60,o),
(112,-10,o),
(224,-10,cs)
);
}
);
width = 595;
},
{
anchors = (
{
name = bottom;
pos = (281,0);
},
{
name = ogonek;
pos = (510,0);
},
{
name = top;
pos = (281,493);
},
{
name = topright;
pos = (360,493);
}
);
hints = (
{
horizontal = 1;
origin = (0,20);
target = (0,11);
type = Stem;
},
{
horizontal = 1;
origin = (0,16);
target = down;
type = TopGhost;
},
{
horizontal = 1;
origin = (0,5);
target = up;
type = BottomGhost;
},
{
origin = (0,15);
target = (0,17);
type = Stem;
},
{
origin = (0,6);
target = (0,8);
type = Stem;
}
);
layerId = "9E4DF390-DC64-4DFF-9707-6073A03EA565";
shapes = (
{
closed = 1;
nodes = (
(300,-10,o),
(396,12,o),
(423,138,c),
(381,138,l),
(381,0,l),
(510,0,l),
(510,493,l),
(360,493,l),
(360,220,ls),
(360,156,o),
(327,126,o),
(278,126,cs),
(233,126,o),
(203,150,o),
(203,216,cs),
(203,493,l),
(53,493,l),
(53,186,ls),
(53,58,o),
(134,-10,o),
(243,-10,cs)
);
}
);
width = 568;
}
);
unicode = 117;
},
{
color = 8;
glyphname = uhorn;
kernLeft = u;
kernRight = uhorn;
lastChange = "2025-08-05 17:56:45 +0000";
layers = (
{
anchors = (
{
name = bottom;
pos = (274,0);
},
{
name = top;
pos = (274,472);
}
);
layerId = "7A502162-43D8-4289-B728-53226767971B";
shapes = (
{
closed = 1;
nodes = (
(328,-10,o),
(408,25,o),
(440,112,c),
(436,115,l),
(436,0,l),
(462,0,l),
(462,460,l),
(451,447,l),
(548,444,o),
(588,497,o),
(572,589,c),
(544,589,l),
(556,514,o),
(530,472,o),
(462,472,cs),
(435,472,l),
(435,200,ls),
(435,79,o),
(354,18,o),
(264,18,cs),
(176,18,o),
(108,61,o),
(108,192,cs),
(108,472,l),
(80,472,l),
(80,190,ls),
(80,44,o),
(157,-10,o),
(262,-10,cs)
);
}
);
width = 559;
},
{
anchors = (
{
name = bottom;
pos = (306,0);
},
{
name = top;
pos = (296,502);
}
);
hints = (
{
horizontal = 1;
origin = (0,14);
target = down;
type = TopGhost;
},
{
origin = (0,24);
place = (38,202);
type = Stem;
},
{
origin = (0,6);
target = (0,15);
type = Stem;
},
{
horizontal = 1;
origin = (0,19);
target = (0,28);
type = Stem;
},
{
horizontal = 1;
place = (0,21);
target = up;
type = BottomGhost;
}
);
layerId = "413C4000-F51E-49A0-99E6-BF5D502A191B";
shapes = (
{
closed = 1;
nodes = (
(298,-10,o),
(359,29,o),
(386,94,c),
(357,94,l),
(357,0,l),
(553,0,l),
(553,483,l),
(480,374,l),
(622,391,o),
(664,475,o),
(642,596,c),
(451,596,l),
(463,528,o),
(446,502,o),
(381,502,cs),
(351,502,l),
(351,238,ls),
(351,194,o),
(329,172,o),
(293,172,cs),
(260,172,o),
(240,194,o),
(240,238,cs),
(240,502,l),
(38,502,l),
(38,184,ls),
(38,60,o),
(112,-10,o),
(224,-10,cs)
);
}
);
width = 622;
},
{
anchors = (
{
name = bottom;
pos = (281,0);
},
{
name = top;
pos = (281,493);
}
);
hints = (
{
horizontal = 1;
origin = (0,28);
target = (0,19);
type = Stem;
},
{
horizontal = 1;
origin = (0,24);
target = down;
type = TopGhost;
},
{
horizontal = 1;
origin = (0,5);
target = up;
type = BottomGhost;
},
{
origin = (0,23);
target = (0,25);
type = Stem;
},
{
origin = (0,6,0,10);
stem = 1000;
target = (0,16);
type = Stem;
}
);
layerId = "9E4DF390-DC64-4DFF-9707-6073A03EA565";
shapes = (
{
closed = 1;
nodes = (
(293,-10,o),
(375,7,o),
(412,100,c),
(381,116,l),
(381,0,l),
(510,0,l),
(510,473,l),
(455,394,l),
(586,407,o),
(626,482,o),
(599,601,c),
(457,601,l),
(476,524,o),
(456,493,o),
(390,493,cs),
(360,493,l),
(360,220,ls),
(360,156,o),
(327,126,o),
(278,126,cs),
(233,126,o),
(203,150,o),
(203,216,cs),
(203,493,l),
(53,493,l),
(53,186,ls),
(53,58,o),
(134,-10,o),
(243,-10,cs)
);
}
);
width = 590;
}
);
unicode = 432;
},
{
glyphname = v;
lastChange = "2025-08-05 17:57:05 +0000";
layers = (
{
layerId = "7A502162-43D8-4289-B728-53226767971B";
shapes = (
{
closed = 1;
nodes = (
(248,0,l),
(444,472,l),
(414,472,l),
(226,22,l),
(239,22,l),
(50,472,l),
(20,472,l),
(217,0,l)
);
}
);
width = 465;
},
{
hints = (
{
horizontal = 1;
origin = (0,7);
target = up;
type = BottomGhost;
},
{
horizontal = 1;
origin = (0,6);
target = down;
type = TopGhost;
}
);
layerId = "413C4000-F51E-49A0-99E6-BF5D502A191B";
shapes = (
{
closed = 1;
nodes = (
(382,0,l),
(560,502,l),
(350,502,l),
(238,129,l),
(313,129,l),
(202,502,l),
(-8,502,l),
(170,0,l)
);
}
);
width = 552;
},
{
hints = (
{
horizontal = 1;
origin = (0,7);
target = up;
type = BottomGhost;
},
{
horizontal = 1;
origin = (0,6);
target = down;
type = TopGhost;
}
);
layerId = "9E4DF390-DC64-4DFF-9707-6073A03EA565";
shapes = (
{
closed = 1;
nodes = (
(341,0,l),
(524,493,l),
(368,493,l),
(233,97,l),
(290,97,l),
(155,493,l),
(-1,493,l),
(183,0,l)
);
}
);
width = 524;
}
);
unicode = 118;
},
{
glyphname = w;
kernLeft = w;
kernRight = w;
lastChange = "2025-08-05 17:57:16 +0000";
layers = (
{
anchors = (
{
name = top;
pos = (345,472);
}
);
layerId = "7A502162-43D8-4289-B728-53226767971B";
shapes = (
{
closed = 1;
nodes = (
(209,0,l),
(349,452,l),
(340,452,l),
(481,0,l),
(512,0,l),
(663,472,l),
(634,472,l),
(493,26,l),
(499,25,l),
(360,472,l),
(330,472,l),
(191,23,l),
(197,24,l),
(57,472,l),
(27,472,l),
(178,0,l)
);
}
);
width = 690;
},
{
anchors = (
{
name = top;
pos = (405,502);
}
);
hints = (
{
horizontal = 1;
origin = (0,15);
target = up;
type = BottomGhost;
},
{
horizontal = 1;
origin = (0,14);
target = down;
type = TopGhost;
}
);
layerId = "413C4000-F51E-49A0-99E6-BF5D502A191B";
shapes = (
{
closed = 1;
nodes = (
(343,0,l),
(442,466,l),
(371,466,l),
(470,0,l),
(705,0,l),
(813,502,l),
(614,502,l),
(556,120,l),
(596,122,l),
(513,502,l),
(300,502,l),
(217,123,l),
(257,121,l),
(198,502,l),
(0,502,l),
(108,0,l)
);
}
);
width = 813;
},
{
anchors = (
{
name = top;
pos = (395,493);
}
);
hints = (
{
horizontal = 1;
origin = (0,15);
target = up;
type = BottomGhost;
},
{
horizontal = 1;
origin = (0,14);
target = down;
type = TopGhost;
}
);
layerId = "9E4DF390-DC64-4DFF-9707-6073A03EA565";
shapes = (
{
closed = 1;
nodes = (
(311,0,l),
(422,462,l),
(370,462,l),
(481,0,l),
(655,0,l),
(776,493,l),
(628,493,l),
(545,92,l),
(575,93,l),
(475,493,l),
(317,493,l),
(217,93,l),
(247,92,l),
(164,493,l),
(16,493,l),
(137,0,l)
);
}
);
width = 792;
}
);
unicode = 119;
},
{
glyphname = x;
lastChange = "2025-08-05 17:57:49 +0000";
layers = (
{
layerId = "7A502162-43D8-4289-B728-53226767971B";
shapes = (
{
closed = 1;
nodes = (
(59,0,l),
(219,216,l),
(378,0,l),
(415,0,l),
(238,235,l),
(410,472,l),
(376,472,l),
(219,253,l),
(63,472,l),
(28,472,l),
(200,235,l),
(23,0,l)
);
}
);
width = 438;
},
{
hints = (
{
horizontal = 1;
origin = (0,11);
target = up;
type = BottomGhost;
},
{
horizontal = 1;
origin = (0,9);
target = down;
type = TopGhost;
}
);
layerId = "413C4000-F51E-49A0-99E6-BF5D502A191B";
shapes = (
{
closed = 1;
nodes = (
(221,0,l),
(272,120,l),
(327,0,l),
(562,0,l),
(411,252,l),
(562,502,l),
(331,502,l),
(281,380,l),
(229,502,l),
(-6,502,l),
(145,251,l),
(-11,0,l)
);
}
);
width = 554;
},
{
hints = (
{
horizontal = 1;
origin = (0,11);
target = up;
type = BottomGhost;
},
{
horizontal = 1;
origin = (0,9);
target = down;
type = TopGhost;
}
);
layerId = "9E4DF390-DC64-4DFF-9707-6073A03EA565";
shapes = (
{
closed = 1;
nodes = (
(176,0,l),
(260,149,l),
(346,0,l),
(522,0,l),
(363,247,l),
(520,493,l),
(348,493,l),
(266,342,l),
(183,493,l),
(8,493,l),
(165,246,l),
(3,0,l)
);
}
);
width = 528;
}
);
unicode = 120;
},
{
glyphname = y;
kernLeft = y;
kernRight = y;
lastChange = "2025-08-05 17:58:27 +0000";
layers = (
{
anchors = (
{
name = bottom;
pos = (334,0);
},
{
name = top;
pos = (233,472);
}
);
layerId = "7A502162-43D8-4289-B728-53226767971B";
shapes = (
{
closed = 1;
nodes = (
(94,-200,ls),
(156,-200,o),
(186,-148,o),
(207,-96,cs),
(445,472,l),
(414,472,l),
(228,24,l),
(177,-96,ls),
(160,-137,o),
(138,-173,o),
(94,-173,cs),
(15,-173,l),
(15,-200,l)
);
},
{
closed = 1;
nodes = (
(240,21,l),
(51,472,l),
(20,472,l),
(223,-13,l)
);
}
);
width = 466;
},
{
anchors = (
{
name = bottom;
pos = (479,0);
},
{
name = top;
pos = (296,502);
}
);
background = {
anchors = (
{
name = bottom;
pos = (473,0);
},
{
name = top;
pos = (290,502);
}
);
shapes = (
{
closed = 1;
nodes = (
(160,-200,ls),
(301,-200,o),
(338,-121,o),
(362,-60,cs),
(574,502,l),
(349,502,l),
(267,165,l),
(173,-24,ls),
(169,-30,o),
(166,-32,o),
(158,-32,cs),
(38,-32,l),
(38,-200,l)
);
},
{
closed = 1;
nodes = (
(329,120,l),
(207,502,l),
(-18,502,l),
(209,-84,l)
);
}
);
};
hints = (
{
horizontal = 1;
origin = (0,12);
target = (0,11);
type = Stem;
},
{
horizontal = 1;
origin = (1,2);
target = down;
type = TopGhost;
}
);
layerId = "413C4000-F51E-49A0-99E6-BF5D502A191B";
shapes = (
{
closed = 1;
nodes = (
(166,-200,ls),
(307,-200,o),
(344,-121,o),
(368,-60,cs),
(580,502,l),
(355,502,l),
(273,165,l),
(179,-24,ls),
(175,-30,o),
(172,-32,o),
(164,-32,cs),
(44,-32,l),
(44,-200,l)
);
},
{
closed = 1;
nodes = (
(335,120,l),
(213,502,l),
(-12,502,l),
(215,-84,l)
);
}
);
width = 571;
},
{
anchors = (
{
name = bottom;
pos = (434,0);
},
{
name = top;
pos = (276,493);
}
);
hints = (
{
horizontal = 1;
origin = (0,12);
target = (0,11);
type = Stem;
},
{
horizontal = 1;
origin = (1,2);
target = down;
type = TopGhost;
}
);
layerId = "9E4DF390-DC64-4DFF-9707-6073A03EA565";
shapes = (
{
closed = 1;
nodes = (
(143,-200,ls),
(260,-200,o),
(295,-129,o),
(318,-71,cs),
(538,493,l),
(371,493,l),
(258,123,l),
(168,-64,ls),
(165,-71,o),
(159,-74,o),
(152,-74,cs),
(34,-74,l),
(34,-200,l)
);
},
{
closed = 1;
nodes = (
(305,90,l),
(163,493,l),
(-4,493,l),
(216,-63,l)
);
}
);
width = 536;
}
);
unicode = 121;
},
{
glyphname = z;
kernLeft = z;
kernRight = z;
lastChange = "2025-08-05 17:58:55 +0000";
layers = (
{
anchors = (
{
name = top;
pos = (203,472);
}
);
layerId = "7A502162-43D8-4289-B728-53226767971B";
shapes = (
{
closed = 1;
nodes = (
(371,0,l),
(371,27,l),
(61,27,l),
(65,20,l),
(370,445,l),
(370,472,l),
(40,472,l),
(40,444,l),
(346,444,l),
(341,452,l),
(37,26,l),
(37,0,l)
);
}
);
width = 409;
},
{
anchors = (
{
name = top;
pos = (245,502);
}
);
hints = (
{
horizontal = 1;
origin = (0,11);
target = (0,2);
type = Stem;
},
{
horizontal = 1;
origin = (0,6);
target = (0,8);
type = Stem;
}
);
layerId = "413C4000-F51E-49A0-99E6-BF5D502A191B";
shapes = (
{
closed = 1;
nodes = (
(464,0,l),
(464,168,l),
(167,168,l),
(207,96,l),
(452,349,l),
(452,502,l),
(29,502,l),
(29,334,l),
(314,334,l),
(269,411,l),
(26,150,l),
(26,0,l)
);
}
);
width = 486;
},
{
anchors = (
{
name = top;
pos = (238,493);
}
);
hints = (
{
horizontal = 1;
origin = (0,11);
target = (0,2);
type = Stem;
},
{
horizontal = 1;
origin = (0,6);
target = (0,8);
type = Stem;
}
);
layerId = "9E4DF390-DC64-4DFF-9707-6073A03EA565";
shapes = (
{
closed = 1;
nodes = (
(442,0,l),
(442,130,l),
(141,130,l),
(170,73,l),
(433,378,l),
(433,493,l),
(38,493,l),
(38,362,l),
(329,362,l),
(296,423,l),
(35,113,l),
(35,0,l)
);
}
);
width = 474;
}
);
unicode = 122;
},
{
glyphname = iogonek.dotless;
lastChange = "2025-08-05 17:59:09 +0000";
layers = (
{
anchors = (
{
name = top;
pos = (133,472);
}
);
layerId = "7A502162-43D8-4289-B728-53226767971B";
shapes = (
{
closed = 1;
nodes = (
(142,-200,l),
(142,-175,l),
(104,-175,ls),
(78,-175,o),
(66,-157,o),
(66,-138,cs),
(66,-121,o),
(75,-104,o),
(86,-87,cs),
(148,0,l),
(148,472,l),
(18,472,l),
(18,444,l),
(132,444,l),
(119,457,l),
(119,0,l),
(133,0,l),
(128,11,l),
(68,-72,ls),
(50,-96,o),
(38,-117,o),
(38,-140,cs),
(38,-172,o),
(58,-200,o),
(101,-200,cs)
);
}
);
width = 236;
},
{
anchors = (
{
name = top;
pos = (195,502);
}
);
hints = (
{
horizontal = 1;
origin = (0,15);
target = up;
type = BottomGhost;
},
{
horizontal = 1;
origin = (0,11);
target = (0,12);
type = Stem;
},
{
origin = (0,15);
target = (0,10);
type = Stem;
},
{
horizontal = 1;
origin = (0,24);
target = (0,2);
type = Stem;
}
);
layerId = "413C4000-F51E-49A0-99E6-BF5D502A191B";
shapes = (
{
closed = 1;
nodes = (
(294,-215,l),
(294,-81,l),
(277,-81,ls),
(265,-81,o),
(259,-75,o),
(259,-68,cs),
(259,-62,o),
(261,-57,o),
(268,-45,cs),
(294,0,l),
(294,502,l),
(17,502,l),
(17,334,l),
(183,334,l),
(92,425,l),
(92,0,l),
(222,0,l),
(187,72,l),
(124,-9,ls),
(102,-38,o),
(83,-68,o),
(83,-100,cs),
(83,-170,o),
(134,-215,o),
(213,-215,cs)
);
}
);
width = 336;
},
{
anchors = (
{
name = top;
pos = (180,493);
}
);
hints = (
{
horizontal = 1;
origin = (0,15);
target = up;
type = BottomGhost;
},
{
horizontal = 1;
origin = (0,11);
target = (0,13);
type = Stem;
},
{
origin = (0,15);
target = (0,10);
type = Stem;
},
{
horizontal = 1;
origin = (0,24);
target = (0,2);
type = Stem;
}
);
layerId = "9E4DF390-DC64-4DFF-9707-6073A03EA565";
shapes = (
{
closed = 1;
nodes = (
(254,-200,l),
(254,-99,l),
(236,-99,ls),
(216,-99,o),
(211,-87,o),
(211,-77,cs),
(211,-67,o),
(217,-56,o),
(222,-49,cs),
(254,0,l),
(254,493,l),
(21,493,l),
(21,367,l),
(172,367,l),
(104,435,l),
(104,0,l),
(190,0,l),
(163,54,l),
(112,-13,ls),
(88,-44,o),
(80,-69,o),
(80,-100,cs),
(80,-160,o),
(122,-200,o),
(190,-200,cs)
);
}
);
width = 312;
}
);
},
{
glyphname = a.ss01;
kernLeft = d;
kernRight = u;
lastChange = "2025-08-05 18:32:01 +0000";
layers = (
{
anchors = (
{
name = bottom;
pos = (289,0);
},
{
name = ogonek;
pos = (496,0);
},
{
name = top;
pos = (288,472);
}
);
layerId = "7A502162-43D8-4289-B728-53226767971B";
shapes = (
{
closed = 1;
nodes = (
(366,-10,o),
(440,47,o),
(472,136,c),
(468,141,l),
(468,0,l),
(496,0,l),
(496,472,l),
(467,472,l),
(467,331,l),
(471,337,l),
(439,425,o),
(366,482,o),
(272,482,cs),
(142,482,o),
(52,383,o),
(52,244,cs),
(52,235,ls),
(52,91,o),
(141,-10,o),
(272,-10,cs)
);
},
{
closed = 1;
nodes = (
(159,17,o),
(81,107,o),
(81,235,cs),
(81,244,ls),
(81,367,o),
(159,454,o),
(273,454,cs),
(386,454,o),
(468,364,o),
(468,236,cs),
(468,107,o),
(386,17,o),
(273,17,cs)
);
}
);
width = 584;
},
{
anchors = (
{
name = bottom;
pos = (309,0);
},
{
name = ogonek;
pos = (568,0);
},
{
name = top;
pos = (323,502);
}
);
hints = (
{
horizontal = 1;
origin = (1,6);
target = (0,12);
type = Stem;
},
{
horizontal = 1;
origin = (0,19);
target = (1,12);
type = Stem;
},
{
origin = (0,16);
target = (1,2);
type = Stem;
},
{
origin = (1,9);
target = (0,5);
type = Stem;
}
);
layerId = "413C4000-F51E-49A0-99E6-BF5D502A191B";
shapes = (
{
closed = 1;
nodes = (
(316,-10,o),
(365,13,o),
(408,84,c),
(366,105,l),
(366,0,l),
(568,0,l),
(568,502,l),
(366,502,l),
(366,418,l),
(389,438,l),
(349,496,o),
(306,512,o),
(252,512,cs),
(121,512,o),
(19,409,o),
(19,255,cs),
(19,245,ls),
(19,88,o),
(117,-10,o),
(251,-10,cs)
);
},
{
closed = 1;
nodes = (
(262,172,o),
(221,194,o),
(221,245,cs),
(221,255,ls),
(221,306,o),
(262,330,o),
(299,330,cs),
(341,330,o),
(380,304,o),
(380,251,cs),
(380,197,o),
(341,172,o),
(299,172,cs)
);
}
);
width = 610;
},
{
anchors = (
{
name = bottom;
pos = (290,0);
},
{
name = ogonek;
pos = (545,0);
},
{
name = top;
pos = (298,493);
}
);
hints = (
{
horizontal = 1;
origin = (1,6);
target = (0,12);
type = Stem;
},
{
horizontal = 1;
origin = (0,19);
target = (1,12);
type = Stem;
},
{
origin = (0,15);
target = (1,3);
type = Stem;
},
{
origin = (1,9);
target = (0,5);
type = Stem;
}
);
layerId = "9E4DF390-DC64-4DFF-9707-6073A03EA565";
shapes = (
{
closed = 1;
nodes = (
(339,-10,o),
(400,24,o),
(440,85,c),
(411,116,l),
(411,0,l),
(545,0,l),
(545,493,l),
(395,493,l),
(395,392,l),
(426,428,l),
(388,475,o),
(332,503,o),
(266,503,cs),
(135,503,o),
(31,401,o),
(31,251,cs),
(31,241,ls),
(31,89,o),
(132,-10,o),
(265,-10,cs)
);
},
{
closed = 1;
nodes = (
(232,121,o),
(181,164,o),
(181,241,cs),
(181,251,ls),
(181,329,o),
(232,372,o),
(290,372,cs),
(355,372,o),
(405,327,o),
(405,246,cs),
(405,166,o),
(355,121,o),
(290,121,cs)
);
}
);
width = 603;
}
);
},
{
glyphname = g.ss02;
kernLeft = g.ss02;
kernRight = u;
lastChange = "2025-08-05 18:33:20 +0000";
layers = (
{
anchors = (
{
name = bottom;
pos = (276,-200);
},
{
name = top;
pos = (276,472);
}
);
layerId = "7A502162-43D8-4289-B728-53226767971B";
shapes = (
{
closed = 1;
nodes = (
(389,-200,ls),
(451,-200,o),
(496,-156,o),
(496,-94,cs),
(496,472,l),
(467,472,l),
(467,334,l),
(470,338,l),
(438,426,o),
(365,482,o),
(272,482,cs),
(142,482,o),
(52,383,o),
(52,244,cs),
(52,235,ls),
(52,91,o),
(141,-10,o),
(272,-10,cs),
(364,-10,o),
(438,46,o),
(470,132,c),
(467,136,l),
(467,-95,ls),
(467,-140,o),
(434,-173,o),
(389,-173,cs),
(95,-173,l),
(95,-200,l)
);
},
{
closed = 1;
nodes = (
(159,17,o),
(81,107,o),
(81,235,cs),
(81,244,ls),
(81,367,o),
(159,454,o),
(273,454,cs),
(386,454,o),
(468,364,o),
(468,236,cs),
(468,107,o),
(386,17,o),
(273,17,cs)
);
}
);
width = 584;
},
{
anchors = (
{
name = bottom;
pos = (306,-200);
},
{
name = top;
pos = (306,502);
}
);
hints = (
{
horizontal = 1;
place = (-200,166);
target = (0,26);
type = Stem;
},
{
horizontal = 1;
origin = (0,17);
target = (1,12);
type = Stem;
},
{
horizontal = 1;
origin = (1,6);
target = (0,5);
type = Stem;
},
{
place = (17,205);
target = (1,2);
type = Stem;
},
{
origin = (0,21);
target = (0,3);
type = Stem;
}
);
layerId = "413C4000-F51E-49A0-99E6-BF5D502A191B";
shapes = (
{
closed = 1;
nodes = (
(369,-200,ls),
(494,-200,o),
(569,-136,o),
(569,-21,cs),
(569,502,l),
(367,502,l),
(367,386,l),
(414,431,l),
(369,487,o),
(319,512,o),
(253,512,cs),
(122,512,o),
(20,409,o),
(20,260,cs),
(20,250,ls),
(20,88,o),
(118,7,o),
(252,7,cs),
(322,7,o),
(375,35,o),
(418,94,c),
(374,138,l),
(374,-20,ls),
(374,-28,o),
(368,-34,o),
(360,-34,cs),
(68,-34,l),
(68,-200,l)
);
},
{
closed = 1;
nodes = (
(263,176,o),
(222,198,o),
(222,250,cs),
(222,260,ls),
(222,313,o),
(263,337,o),
(300,337,cs),
(342,337,o),
(381,311,o),
(381,256,cs),
(381,201,o),
(342,176,o),
(300,176,cs)
);
}
);
width = 611;
},
{
anchors = (
{
name = bottom;
pos = (302,-200);
},
{
name = top;
pos = (302,493);
}
);
hints = (
{
origin = (0,22);
target = (0,3);
type = Stem;
},
{
horizontal = 1;
origin = (1,6);
target = (0,5);
type = Stem;
},
{
horizontal = 1;
origin = (0,17);
target = (1,12);
type = Stem;
},
{
origin = (0,14);
target = (1,2);
type = Stem;
},
{
horizontal = 1;
origin = (0,27);
target = (0,26);
type = Stem;
}
);
layerId = "9E4DF390-DC64-4DFF-9707-6073A03EA565";
shapes = (
{
closed = 1;
nodes = (
(373,-200,ls),
(479,-200,o),
(545,-142,o),
(545,-43,cs),
(545,493,l),
(395,493,l),
(395,392,l),
(426,428,l),
(388,475,o),
(332,503,o),
(266,503,cs),
(135,503,o),
(31,401,o),
(31,251,cs),
(31,241,ls),
(31,89,o),
(132,-10,o),
(265,-10,cs),
(331,-10,o),
(387,18,o),
(427,67,c),
(395,103,l),
(395,-56,ls),
(395,-67,o),
(386,-76,o),
(375,-76,cs),
(74,-76,l),
(74,-200,l)
);
},
{
closed = 1;
nodes = (
(232,121,o),
(181,164,o),
(181,241,cs),
(181,251,ls),
(181,329,o),
(232,372,o),
(290,372,cs),
(355,372,o),
(405,327,o),
(405,246,cs),
(405,166,o),
(355,121,o),
(290,121,cs)
);
}
);
width = 603;
}
);
},
{
glyphname = y.ss03;
kernLeft = y.ss03;
kernRight = u;
lastChange = "2025-08-05 18:34:04 +0000";
layers = (
{
anchors = (
{
name = bottom;
pos = (275,-200);
},
{
name = top;
pos = (275,472);
}
);
layerId = "7A502162-43D8-4289-B728-53226767971B";
shapes = (
{
closed = 1;
nodes = (
(355,-200,ls),
(417,-200,o),
(462,-156,o),
(462,-94,cs),
(462,472,l),
(435,472,l),
(435,200,ls),
(435,79,o),
(354,18,o),
(264,18,cs),
(176,18,o),
(108,61,o),
(108,192,cs),
(108,472,l),
(80,472,l),
(80,190,ls),
(80,44,o),
(157,-10,o),
(262,-10,cs),
(326,-10,o),
(403,21,o),
(437,105,c),
(433,108,l),
(433,-95,ls),
(433,-140,o),
(400,-173,o),
(355,-173,cs),
(94,-173,l),
(94,-200,l)
);
}
);
width = 550;
},
{
anchors = (
{
name = bottom;
pos = (309,-200);
},
{
name = top;
pos = (295,502);
}
);
hints = (
{
horizontal = 1;
origin = (0,28);
target = (0,27);
type = Stem;
},
{
horizontal = 1;
place = (502,-20);
target = down;
type = TopGhost;
},
{
origin = (0,5);
target = (0,4);
type = Stem;
},
{
origin = (0,14);
target = (0,13);
type = Stem;
},
{
horizontal = 1;
origin = (0,18);
target = (0,9);
type = Stem;
}
);
layerId = "413C4000-F51E-49A0-99E6-BF5D502A191B";
shapes = (
{
closed = 1;
nodes = (
(352,-200,ls),
(477,-200,o),
(552,-136,o),
(552,-21,cs),
(552,502,l),
(350,502,l),
(350,268,ls),
(350,224,o),
(328,202,o),
(292,202,cs),
(259,202,o),
(239,224,o),
(239,268,cs),
(239,502,l),
(37,502,l),
(37,214,ls),
(37,90,o),
(111,20,o),
(223,20,cs),
(314,20,o),
(388,82,o),
(396,174,c),
(356,174,l),
(356,-20,ls),
(356,-28,o),
(350,-34,o),
(342,-34,cs),
(61,-34,l),
(61,-200,l)
);
}
);
width = 594;
},
{
anchors = (
{
name = bottom;
pos = (284,-200);
},
{
name = top;
pos = (284,493);
}
);
hints = (
{
horizontal = 1;
origin = (0,28);
target = (0,27);
type = Stem;
},
{
horizontal = 1;
place = (493,-20);
target = down;
type = TopGhost;
},
{
origin = (0,14);
target = (0,13);
type = Stem;
},
{
origin = (0,5);
target = (0,4);
type = Stem;
},
{
horizontal = 1;
origin = (0,18);
target = (0,9);
type = Stem;
}
);
layerId = "9E4DF390-DC64-4DFF-9707-6073A03EA565";
shapes = (
{
closed = 1;
nodes = (
(338,-200,ls),
(444,-200,o),
(510,-142,o),
(510,-43,cs),
(510,493,l),
(360,493,l),
(360,240,ls),
(360,176,o),
(327,146,o),
(278,146,cs),
(233,146,o),
(203,170,o),
(203,236,cs),
(203,493,l),
(53,493,l),
(53,206,ls),
(53,78,o),
(134,10,o),
(243,10,cs),
(288,10,o),
(355,23,o),
(399,91,c),
(360,116,l),
(360,-56,ls),
(360,-67,o),
(351,-76,o),
(340,-76,cs),
(79,-76,l),
(79,-200,l)
);
}
);
width = 568;
}
);
},
{
color = 0;
export = 0;
glyphname = g.topAccent;
lastChange = "2025-08-04 14:08:10 +0000";
layers = (
{
anchors = (
{
name = top;
pos = (242,472);
}
);
layerId = "7A502162-43D8-4289-B728-53226767971B";
shapes = (
{
closed = 1;
nodes = (
(300,-200,ls),
(383,-200,o),
(435,-153,o),
(435,-80,cs),
(435,-11,o),
(383,31,o),
(301,31,cs),
(164,31,ls),
(107,31,o),
(111,76,o),
(126,104,cs),
(163,175,l),
(137,184,l),
(97,107,ls),
(75,63,o),
(85,5,o),
(160,5,cs),
(299,5,ls),
(365,5,o),
(407,-28,o),
(407,-80,cs),
(407,-138,o),
(365,-174,o),
(299,-174,cs),
(24,-174,l),
(24,-200,l)
);
},
{
closed = 1;
nodes = (
(354,148,o),
(433,217,o),
(433,314,cs),
(433,326,ls),
(433,417,o),
(354,482,o),
(242,482,cs),
(129,482,o),
(50,416,o),
(50,322,cs),
(50,314,ls),
(50,217,o),
(129,148,o),
(242,148,cs)
);
},
{
closed = 1;
nodes = (
(172,175,o),
(78,208,o),
(78,321,cs),
(78,402,o),
(145,455,o),
(242,455,cs),
(337,455,o),
(405,401,o),
(405,321,cs),
(405,207,o),
(315,175,o),
(242,175,cs)
);
}
);
width = 477;
},
{
anchors = (
{
name = top;
pos = (265,502);
}
);
layerId = "413C4000-F51E-49A0-99E6-BF5D502A191B";
shapes = (
{
closed = 1;
nodes = (
(360,-200,ls),
(464,-200,o),
(524,-136,o),
(524,-39,cs),
(524,50,o),
(458,110,o),
(360,110,cs),
(266,110,ls),
(260,110,o),
(257,115,o),
(260,122,cs),
(295,199,l),
(126,228,l),
(75,128,ls),
(32,44,o),
(72,-37,o),
(172,-37,cs),
(333,-37,ls),
(343,-37,o),
(349,-42,o),
(349,-49,cs),
(349,-57,o),
(343,-63,o),
(333,-63,cs),
(25,-63,l),
(25,-200,l)
);
},
{
closed = 1;
nodes = (
(408,133,o),
(506,207,o),
(506,319,cs),
(506,327,ls),
(506,438,o),
(408,512,o),
(261,512,cs),
(115,512,o),
(17,439,o),
(17,329,cs),
(17,319,ls),
(17,207,o),
(115,133,o),
(261,133,cs)
);
},
{
closed = 1;
nodes = (
(233,279,o),
(214,297,o),
(214,325,cs),
(214,350,o),
(233,367,o),
(261,367,cs),
(290,367,o),
(309,350,o),
(309,325,cs),
(309,297,o),
(290,279,o),
(261,279,cs)
);
}
);
width = 527;
},
{
anchors = (
{
name = top;
pos = (257,493);
}
);
layerId = "9E4DF390-DC64-4DFF-9707-6073A03EA565";
shapes = (
{
closed = 1;
nodes = (
(349,-200,ls),
(436,-200,o),
(498,-138,o),
(498,-56,cs),
(498,44,o),
(439,86,o),
(356,86,cs),
(211,86,ls),
(208,86,o),
(206,88,o),
(208,92,cs),
(254,185,l),
(128,215,l),
(76,108,ls),
(42,39,o),
(74,-30,o),
(151,-30,cs),
(333,-30,ls),
(352,-30,o),
(358,-37,o),
(358,-54,cs),
(358,-70,o),
(352,-77,o),
(333,-77,cs),
(30,-77,l),
(30,-200,l)
);
},
{
closed = 1;
nodes = (
(386,127,o),
(479,203,o),
(479,312,cs),
(479,322,ls),
(479,428,o),
(386,503,o),
(254,503,cs),
(122,503,o),
(29,428,o),
(29,322,cs),
(29,312,ls),
(29,203,o),
(122,127,o),
(254,127,cs)
);
},
{
closed = 1;
nodes = (
(217,239,o),
(176,258,o),
(176,315,cs),
(176,356,o),
(208,384,o),
(254,384,cs),
(300,384,o),
(332,356,o),
(332,315,cs),
(332,258,o),
(291,239,o),
(254,239,cs)
);
}
);
width = 514;
}
);
},
{
glyphname = fi;
kernLeft = f;
kernRight = i;
lastChange = "2025-08-05 18:34:40 +0000";
layers = (
{
anchors = (
{
name = caret_1;
pos = (279,0);
}
);
layerId = "7A502162-43D8-4289-B728-53226767971B";
shapes = (
{
closed = 1;
nodes = (
(443,0,l),
(443,472,l),
(19,472,l),
(19,444,l),
(427,444,l),
(414,457,l),
(414,0,l)
);
},
{
closed = 1;
nodes = (
(144,0,l),
(144,625,ls),
(144,670,o),
(177,703,o),
(222,703,cs),
(317,703,l),
(317,730,l),
(222,730,ls),
(160,730,o),
(115,686,o),
(115,624,cs),
(115,0,l)
);
},
{
closed = 1;
nodes = (
(443,590,l),
(443,683,l),
(414,683,l),
(414,590,l)
);
}
);
width = 531;
},
{
anchors = (
{
name = caret_1;
pos = (364,0);
}
);
hints = (
{
horizontal = 1;
origin = (0,6);
target = up;
type = BottomGhost;
},
{
horizontal = 1;
origin = (0,2);
target = (0,4);
type = Stem;
},
{
horizontal = 1;
origin = (2,2);
target = (2,3);
type = Stem;
},
{
origin = (1,11);
target = (1,0);
type = Stem;
},
{
origin = (0,6);
target = (0,1);
type = Stem;
}
);
layerId = "413C4000-F51E-49A0-99E6-BF5D502A191B";
shapes = (
{
closed = 1;
nodes = (
(632,0,l),
(632,502,l),
(23,502,l),
(23,334,l),
(521,334,l),
(430,424,l),
(430,0,l)
);
},
{
closed = 1;
nodes = (
(296,0,l),
(296,550,ls),
(296,558,o),
(302,564,o),
(310,564,cs),
(371,564,l),
(371,730,l),
(294,730,ls),
(169,730,o),
(94,666,o),
(94,551,cs),
(94,0,l)
);
},
{
closed = 1;
nodes = (
(645,564,l),
(645,730,l),
(420,730,l),
(420,564,l)
);
}
);
width = 674;
},
{
anchors = (
{
name = caret_1;
pos = (342,0);
}
);
hints = (
{
horizontal = 1;
origin = (1,11);
target = up;
type = BottomGhost;
},
{
horizontal = 1;
origin = (0,2);
target = (0,4);
type = Stem;
},
{
horizontal = 1;
origin = (2,2);
target = (2,3);
type = Stem;
},
{
origin = (1,11);
target = (1,1);
type = Stem;
},
{
origin = (0,6);
target = (0,1);
type = Stem;
}
);
layerId = "9E4DF390-DC64-4DFF-9707-6073A03EA565";
shapes = (
{
closed = 1;
nodes = (
(579,0,l),
(579,493,l),
(25,493,l),
(25,367,l),
(496,367,l),
(429,434,l),
(429,0,l)
);
},
{
closed = 1;
nodes = (
(254,0,l),
(254,586,ls),
(254,597,o),
(263,606,o),
(274,606,cs),
(358,606,l),
(358,730,l),
(276,730,ls),
(170,730,o),
(104,672,o),
(104,573,cs),
(104,0,l)
);
},
{
closed = 1;
nodes = (
(588,582,l),
(588,730,l),
(422,730,l),
(422,582,l)
);
}
);
width = 637;
}
);
unicode = 64257;
},
{
glyphname = fl;
kernLeft = f;
kernRight = l;
lastChange = "2025-08-05 18:34:51 +0000";
layers = (
{
anchors = (
{
name = caret_1;
pos = (279,0);
}
);
layerId = "7A502162-43D8-4289-B728-53226767971B";
shapes = (
{
closed = 1;
nodes = (
(144,0,l),
(144,625,ls),
(144,670,o),
(177,703,o),
(222,703,cs),
(297,703,l),
(297,730,l),
(222,730,ls),
(160,730,o),
(115,686,o),
(115,624,cs),
(115,0,l)
);
},
{
closed = 1;
nodes = (
(407,444,l),
(407,472,l),
(19,472,l),
(19,444,l)
);
},
{
closed = 1;
nodes = (
(533,0,l),
(533,27,l),
(496,27,ls),
(451,27,o),
(418,60,o),
(418,105,cs),
(418,730,l),
(390,730,l),
(390,105,ls),
(390,44,o),
(434,0,o),
(495,0,cs)
);
}
);
width = 548;
},
{
anchors = (
{
name = caret_1;
pos = (364,0);
}
);
hints = (
{
horizontal = 1;
origin = (2,11);
target = (2,2);
type = Stem;
},
{
horizontal = 1;
origin = (1,2);
target = (1,3);
type = Stem;
},
{
horizontal = 1;
origin = (2,7);
target = (0,5);
type = Stem;
},
{
origin = (0,11);
target = (0,1);
type = Stem;
},
{
origin = (2,6);
target = (2,8);
type = Stem;
}
);
layerId = "413C4000-F51E-49A0-99E6-BF5D502A191B";
shapes = (
{
closed = 1;
nodes = (
(296,0,l),
(296,550,ls),
(296,558,o),
(302,564,o),
(310,564,cs),
(359,564,l),
(359,730,l),
(294,730,ls),
(169,730,o),
(94,666,o),
(94,551,cs),
(94,0,l)
);
},
{
closed = 1;
nodes = (
(522,334,l),
(522,502,l),
(23,502,l),
(23,334,l)
);
},
{
closed = 1;
nodes = (
(678,0,l),
(678,166,l),
(631,166,ls),
(623,166,o),
(617,172,o),
(617,180,cs),
(617,730,l),
(415,730,l),
(415,165,ls),
(415,58,o),
(485,0,o),
(600,0,cs)
);
}
);
width = 701;
},
{
anchors = (
{
name = caret_1;
pos = (342,0);
}
);
hints = (
{
horizontal = 1;
origin = (2,11);
target = (2,2);
type = Stem;
},
{
horizontal = 1;
origin = (1,2);
target = (1,3);
type = Stem;
},
{
horizontal = 1;
origin = (2,7);
target = (0,5);
type = Stem;
},
{
origin = (0,11);
target = (0,1);
type = Stem;
},
{
origin = (2,6);
target = (2,8);
type = Stem;
}
);
layerId = "9E4DF390-DC64-4DFF-9707-6073A03EA565";
shapes = (
{
closed = 1;
nodes = (
(254,0,l),
(254,586,ls),
(254,597,o),
(263,606,o),
(274,606,cs),
(344,606,l),
(344,730,l),
(276,730,ls),
(170,730,o),
(104,672,o),
(104,573,cs),
(104,0,l)
);
},
{
closed = 1;
nodes = (
(491,367,l),
(491,493,l),
(25,493,l),
(25,367,l)
);
},
{
closed = 1;
nodes = (
(638,0,l),
(638,124,l),
(581,124,ls),
(570,124,o),
(561,133,o),
(561,144,cs),
(561,730,l),
(411,730,l),
(411,147,ls),
(411,54,o),
(473,0,o),
(572,0,cs)
);
}
);
width = 664;
}
);
unicode = 64258;
},
{
glyphname = ordfeminine;
lastChange = "2025-08-05 18:35:06 +0000";
layers = (
{
layerId = "7A502162-43D8-4289-B728-53226767971B";
shapes = (
{
closed = 1;
nodes = (
(316,368,l),
(315,397,o),
(314,442,o),
(314,480,cs),
(314,585,ls),
(314,667,o),
(266,707,o),
(193,707,cs),
(147,707,o),
(99,691,o),
(69,656,c),
(84,635,l),
(111,667,o),
(154,680,o),
(193,680,cs),
(251,680,o),
(285,650,o),
(285,585,cs),
(285,489,l),
(288,482,l),
(290,368,l)
);
},
{
closed = 1;
nodes = (
(261,361,o),
(302,399,o),
(302,460,c),
(306,460,l),
(306,516,o),
(264,554,o),
(185,554,cs),
(104,554,o),
(56,513,o),
(56,457,cs),
(56,400,o),
(105,361,o),
(183,361,cs)
);
},
{
closed = 1;
nodes = (
(124,385,o),
(86,415,o),
(86,458,cs),
(86,500,o),
(124,529,o),
(187,529,cs),
(251,529,o),
(285,500,o),
(285,457,cs),
(285,415,o),
(251,385,o),
(187,385,cs)
);
}
);
userData = {
RMXScaler = {
adjustSpace = 13;
height = 70;
verticalShift = 368;
weight = 20;
width = 70;
};
};
width = 391;
},
{
hints = (
{
horizontal = 1;
place = (708,0);
type = Stem;
},
{
horizontal = 1;
origin = (0,7);
target = (0,14);
type = Stem;
},
{
horizontal = 1;
origin = (2,5);
target = (1,6);
type = Stem;
},
{
horizontal = 1;
origin = (1,12);
target = (2,11);
type = Stem;
},
{
origin = (0,17);
target = (0,4);
type = Stem;
},
{
origin = (1,9);
target = (2,2);
type = Stem;
}
);
layerId = "413C4000-F51E-49A0-99E6-BF5D502A191B";
shapes = (
{
closed = 1;
nodes = (
(414,299,l),
(412,339,o),
(412,380,o),
(412,422,cs),
(412,554,ls),
(412,650,o),
(331,708,o),
(219,708,cs),
(139,708,o),
(65,679,o),
(28,641,c),
(89,542,l),
(120,565,o),
(169,581,o),
(207,581,cs),
(239,581,o),
(257,569,o),
(257,543,cs),
(257,465,l),
(276,459,l),
(276,299,l)
);
},
{
closed = 1;
nodes = (
(255,291,o),
(293,337,o),
(293,418,c),
(342,418,l),
(342,489,o),
(297,536,o),
(192,536,cs),
(79,536,o),
(18,486,o),
(18,411,cs),
(18,340,o),
(79,291,o),
(168,291,cs)
);
},
{
closed = 1;
nodes = (
(193,391,o),
(175,403,o),
(175,421,cs),
(175,437,o),
(192,450,o),
(215,450,cs),
(241,450,o),
(258,437,o),
(258,421,cs),
(258,403,o),
(240,391,o),
(215,391,cs)
);
}
);
userData = {
RMXScaler = {
adjustSpace = 13;
height = 80;
verticalShift = 299;
weight = -220;
width = 80;
};
};
width = 448;
},
{
hints = (
{
horizontal = 1;
origin = (1,6);
target = (2,5);
type = Stem;
},
{
horizontal = 1;
origin = (1,12);
target = (2,11);
type = Stem;
},
{
origin = (1,9);
target = (2,2);
type = Stem;
},
{
origin = (0,17);
target = (0,3);
type = Stem;
},
{
horizontal = 1;
origin = (0,7);
target = (0,14);
type = Stem;
}
);
layerId = "9E4DF390-DC64-4DFF-9707-6073A03EA565";
shapes = (
{
closed = 1;
nodes = (
(379,329,l),
(376,368,o),
(376,406,o),
(376,445,cs),
(376,566,ls),
(376,656,o),
(307,708,o),
(210,708,cs),
(142,708,o),
(78,683,o),
(44,647,c),
(95,569,l),
(124,592,o),
(167,606,o),
(201,606,cs),
(233,606,o),
(258,593,o),
(258,559,cs),
(258,481,l),
(272,447,l),
(272,329,l)
);
},
{
closed = 1;
nodes = (
(252,321,o),
(288,363,o),
(288,438,c),
(324,438,l),
(324,503,o),
(281,546,o),
(189,546,cs),
(89,546,o),
(34,500,o),
(34,432,cs),
(34,366,o),
(89,321,o),
(171,321,cs)
);
},
{
closed = 1;
nodes = (
(176,405,o),
(154,419,o),
(154,439,cs),
(154,458,o),
(176,472,o),
(206,472,cs),
(237,472,o),
(258,458,o),
(258,439,cs),
(258,419,o),
(236,405,o),
(206,405,cs)
);
}
);
userData = {
RMXScaler = {
adjustSpace = 12;
height = 75;
verticalShift = 329;
weight = -170;
width = 75;
};
};
width = 428;
},
{
associatedMasterId = "7A502162-43D8-4289-B728-53226767971B";
attr = {
coordinates = (
400
);
};
background = {
shapes = (
{
closed = 1;
nodes = (
(342,351,l),
(340,382,o),
(340,421,o),
(340,465,cs),
(340,577,ls),
(340,662,o),
(284,707,o),
(201,707,cs),
(146,707,o),
(91,688,o),
(59,652,c),
(89,608,l),
(119,637,o),
(163,648,o),
(197,648,cs),
(243,648,o),
(275,628,o),
(275,574,cs),
(275,482,l),
(283,459,l),
(284,351,l)
);
},
{
closed = 1;
nodes = (
(258,344,o),
(296,384,o),
(296,449,c),
(314,449,l),
(314,509,o),
(271,549,o),
(187,549,cs),
(99,549,o),
(48,507,o),
(48,445,cs),
(48,385,o),
(99,344,o),
(179,344,cs)
);
},
{
closed = 1;
nodes = (
(146,396,o),
(114,417,o),
(114,447,cs),
(114,479,o),
(146,499,o),
(196,499,cs),
(245,499,o),
(276,479,o),
(276,447,cs),
(276,417,o),
(246,396,o),
(196,396,cs)
);
}
);
};
layerId = "14336C14-A0A3-438F-8813-7187F4999FB7";
name = "4. Aug. 25, 16:26";
shapes = (
{
closed = 1;
nodes = (
(343,351,l),
(341,385,o),
(341,427,o),
(341,465,cs),
(341,577,ls),
(341,662,o),
(284,707,o),
(200,707,cs),
(145,707,o),
(90,688,o),
(58,652,c),
(89,607,l),
(116,634,o),
(160,648,o),
(196,648,cs),
(243,648,o),
(273,626,o),
(273,574,cs),
(273,486,l),
(281,467,l),
(282,351,l)
);
},
{
closed = 1;
nodes = (
(257,344,o),
(296,384,o),
(296,451,c),
(314,451,l),
(314,510,o),
(271,551,o),
(187,551,cs),
(97,551,o),
(47,507,o),
(47,446,cs),
(47,385,o),
(98,344,o),
(178,344,cs)
);
},
{
closed = 1;
nodes = (
(146,396,o),
(115,418,o),
(115,448,cs),
(115,477,o),
(146,499,o),
(195,499,cs),
(245,499,o),
(273,477,o),
(273,447,cs),
(273,418,o),
(245,396,o),
(195,396,cs)
);
}
);
userData = {
RMXScaler = {
adjustSpace = 13;
height = 70;
verticalShift = 368;
weight = 20;
width = 70;
};
};
width = 407;
}
);
unicode = 170;
userData = {
RMXScaler = {
source = a;
};
};
},
{
glyphname = ordmasculine;
kernLeft = ordmasculine;
lastChange = "2025-08-05 18:35:17 +0000";
layers = (
{
layerId = "7A502162-43D8-4289-B728-53226767971B";
shapes = (
{
closed = 1;
nodes = (
(304,363,o),
(370,434,o),
(370,535,cs),
(370,543,ls),
(370,640,o),
(304,709,o),
(212,709,cs),
(120,709,o),
(53,639,o),
(53,541,cs),
(53,535,ls),
(53,434,o),
(120,363,o),
(212,363,cs)
);
},
{
closed = 1;
nodes = (
(136,390,o),
(82,449,o),
(82,535,cs),
(82,541,ls),
(82,623,o),
(136,682,o),
(212,682,cs),
(288,682,o),
(341,625,o),
(341,543,cs),
(341,535,ls),
(341,450,o),
(288,390,o),
(212,390,cs)
);
}
);
userData = {
RMXScaler = {
adjustSpace = 13;
height = 70;
verticalShift = 370;
weight = 20;
width = 70;
};
};
width = 423;
},
{
hints = (
{
horizontal = 1;
origin = (0,13);
target = (1,13);
type = Stem;
},
{
horizontal = 1;
origin = (0,6);
target = (1,6);
type = Stem;
},
{
origin = (0,10);
target = (1,3);
type = Stem;
},
{
origin = (1,10);
target = (0,3);
type = Stem;
}
);
layerId = "413C4000-F51E-49A0-99E6-BF5D502A191B";
shapes = (
{
closed = 1;
nodes = (
(360,291,o),
(458,375,o),
(458,495,cs),
(458,503,ls),
(458,622,o),
(360,708,o),
(237,708,cs),
(114,708,o),
(16,623,o),
(16,503,cs),
(16,495,ls),
(16,375,o),
(113,291,o),
(237,291,cs)
);
},
{
closed = 1;
nodes = (
(198,432,o),
(172,459,o),
(172,495,cs),
(172,503,ls),
(172,539,o),
(198,567,o),
(237,567,cs),
(276,567,o),
(303,539,o),
(303,503,cs),
(303,495,ls),
(303,459,o),
(276,432,o),
(237,432,cs)
);
}
);
userData = {
RMXScaler = {
adjustSpace = 13;
height = 80;
verticalShift = 299;
weight = -220;
width = 80;
};
};
width = 474;
},
{
hints = (
{
horizontal = 1;
origin = (0,13);
target = (1,13);
type = Stem;
},
{
horizontal = 1;
origin = (0,6);
target = (1,6);
type = Stem;
},
{
origin = (0,10);
target = (1,3);
type = Stem;
},
{
origin = (1,10);
target = (0,3);
type = Stem;
}
);
layerId = "9E4DF390-DC64-4DFF-9707-6073A03EA565";
shapes = (
{
closed = 1;
nodes = (
(338,322,o),
(425,400,o),
(425,511,cs),
(425,518,ls),
(425,629,o),
(338,708,o),
(227,708,cs),
(115,708,o),
(28,629,o),
(28,519,cs),
(28,511,ls),
(28,400,o),
(115,322,o),
(227,322,cs)
);
},
{
closed = 1;
nodes = (
(181,427,o),
(148,462,o),
(148,511,cs),
(148,519,ls),
(148,567,o),
(181,602,o),
(227,602,cs),
(273,602,o),
(305,567,o),
(305,518,cs),
(305,511,ls),
(305,462,o),
(273,427,o),
(227,427,cs)
);
}
);
userData = {
RMXScaler = {
adjustSpace = 12;
height = 75;
verticalShift = 329;
weight = -170;
width = 75;
};
};
width = 453;
}
);
unicode = 186;
userData = {
RMXScaler = {
source = o;
};
};
},
{
glyphname = ordfeminine.ss01;
kernLeft = ordmasculine;
lastChange = "2025-08-05 18:35:30 +0000";
layers = (
{
layerId = "7A502162-43D8-4289-B728-53226767971B";
shapes = (
{
closed = 1;
nodes = (
(273,361,o),
(324,399,o),
(347,460,c),
(343,465,l),
(343,368,l),
(370,368,l),
(370,700,l),
(341,700,l),
(341,604,l),
(346,610,l),
(323,669,o),
(273,707,o),
(209,707,cs),
(118,707,o),
(54,637,o),
(54,539,cs),
(54,533,ls),
(54,432,o),
(117,361,o),
(209,361,cs)
);
},
{
closed = 1;
nodes = (
(135,387,o),
(83,447,o),
(83,533,cs),
(83,539,ls),
(83,622,o),
(136,680,o),
(211,680,cs),
(287,680,o),
(342,620,o),
(342,534,cs),
(342,447,o),
(287,387,o),
(211,387,cs)
);
}
);
userData = {
RMXScaler = {
adjustSpace = 13;
height = 70;
verticalShift = 368;
weight = 20;
width = 70;
};
};
width = 449;
},
{
hints = (
{
origin = (1,9);
target = (0,5);
type = Stem;
},
{
origin = (0,15);
target = (1,3);
type = Stem;
},
{
horizontal = 1;
origin = (0,7);
target = (1,6);
type = Stem;
},
{
horizontal = 1;
origin = (0,19);
target = (1,12);
type = Stem;
}
);
layerId = "413C4000-F51E-49A0-99E6-BF5D502A191B";
shapes = (
{
closed = 1;
nodes = (
(256,291,o),
(297,310,o),
(331,352,c),
(305,384,l),
(305,299,l),
(454,299,l),
(454,700,l),
(305,700,l),
(305,631,l),
(317,662,l),
(285,694,o),
(249,708,o),
(205,708,cs),
(100,708,o),
(18,625,o),
(18,503,cs),
(18,495,ls),
(18,369,o),
(97,291,o),
(204,291,cs)
);
},
{
closed = 1;
nodes = (
(209,432,o),
(174,451,o),
(174,495,cs),
(174,503,ls),
(174,546,o),
(208,567,o),
(240,567,cs),
(276,567,o),
(308,544,o),
(308,499,cs),
(308,454,o),
(276,432,o),
(240,432,cs)
);
}
);
userData = {
RMXScaler = {
adjustSpace = 13;
height = 80;
verticalShift = 299;
weight = -220;
width = 80;
};
};
width = 496;
},
{
hints = (
{
horizontal = 1;
origin = (0,7);
target = (1,6);
type = Stem;
},
{
horizontal = 1;
origin = (0,19);
target = (1,12);
type = Stem;
},
{
origin = (1,9);
target = (0,5);
type = Stem;
},
{
origin = (0,15);
target = (1,3);
type = Stem;
}
);
layerId = "9E4DF390-DC64-4DFF-9707-6073A03EA565";
shapes = (
{
closed = 1;
nodes = (
(259,322,o),
(304,345,o),
(335,390,c),
(315,414,l),
(315,329,l),
(422,329,l),
(422,700,l),
(301,700,l),
(301,627,l),
(324,655,l),
(295,689,o),
(255,708,o),
(207,708,cs),
(109,708,o),
(31,631,o),
(31,518,cs),
(31,510,ls),
(31,396,o),
(106,322,o),
(206,322,cs)
);
},
{
closed = 1;
nodes = (
(188,427,o),
(151,457,o),
(151,510,cs),
(151,518,ls),
(151,573,o),
(188,602,o),
(228,602,cs),
(274,602,o),
(310,571,o),
(310,514,cs),
(310,458,o),
(274,427,o),
(228,427,cs)
);
}
);
userData = {
RMXScaler = {
adjustSpace = 12;
height = 75;
verticalShift = 329;
weight = -170;
width = 75;
};
};
width = 478;
}
);
userData = {
RMXScaler = {
source = a.ss01;
};
};
},
{
glyphname = zero;
lastChange = "2025-08-05 18:35:52 +0000";
layers = (
{
layerId = "7A502162-43D8-4289-B728-53226767971B";
shapes = (
{
closed = 1;
nodes = (
(449,-10,o),
(542,128,o),
(542,350,cs),
(542,572,o),
(449,710,o),
(299,710,cs),
(150,710,o),
(58,572,o),
(58,350,cs),
(58,128,o),
(150,-10,o),
(299,-10,cs)
);
},
{
closed = 1;
nodes = (
(168,18,o),
(87,145,o),
(87,350,cs),
(87,555,o),
(168,682,o),
(299,682,cs),
(431,682,o),
(513,555,o),
(513,350,cs),
(513,145,o),
(431,18,o),
(299,18,cs)
);
}
);
userData = {
RMXScaler = {
monoWidth = 600;
};
};
width = 600;
},
{
hints = (
{
horizontal = 1;
origin = (0,11);
target = (1,11);
type = Stem;
},
{
horizontal = 1;
origin = (0,5);
target = (1,5);
type = Stem;
},
{
origin = (0,8);
target = (1,2);
type = Stem;
},
{
origin = (1,8);
target = (0,2);
type = Stem;
}
);
layerId = "413C4000-F51E-49A0-99E6-BF5D502A191B";
shapes = (
{
closed = 1;
nodes = (
(482,-10,o),
(585,114,o),
(585,347,cs),
(585,583,o),
(482,710,o),
(302,710,cs),
(120,710,o),
(15,583,o),
(15,347,cs),
(15,114,o),
(120,-10,o),
(302,-10,cs)
);
},
{
closed = 1;
nodes = (
(251,182,o),
(231,225,o),
(231,347,cs),
(231,474,o),
(251,518,o),
(302,518,cs),
(351,518,o),
(369,474,o),
(369,347,cs),
(369,225,o),
(351,182,o),
(302,182,cs)
);
}
);
userData = {
RMXScaler = {
monoWidth = 600;
};
};
width = 600;
},
{
hints = (
{
horizontal = 1;
origin = (0,11);
target = (1,11);
type = Stem;
},
{
horizontal = 1;
origin = (0,5);
target = (1,5);
type = Stem;
},
{
origin = (0,8);
target = (1,2);
type = Stem;
},
{
origin = (1,8);
target = (0,2);
type = Stem;
}
);
layerId = "9E4DF390-DC64-4DFF-9707-6073A03EA565";
shapes = (
{
closed = 1;
nodes = (
(472,-10,o),
(572,118,o),
(572,348,cs),
(572,580,o),
(472,710,o),
(301,710,cs),
(129,710,o),
(28,580,o),
(28,348,cs),
(28,118,o),
(129,-10,o),
(301,-10,cs)
);
},
{
closed = 1;
nodes = (
(226,133,o),
(188,201,o),
(188,348,cs),
(188,498,o),
(226,567,o),
(301,567,cs),
(375,567,o),
(412,498,o),
(412,348,cs),
(412,201,o),
(375,133,o),
(301,133,cs)
);
}
);
userData = {
RMXScaler = {
monoWidth = 600;
};
};
width = 600;
}
);
unicode = 48;
userData = {
RMXScaler = {
source = zero;
};
};
},
{
glyphname = one;
lastChange = "2025-08-05 18:36:05 +0000";
layers = (
{
layerId = "7A502162-43D8-4289-B728-53226767971B";
shapes = (
{
closed = 1;
nodes = (
(324,13,l),
(324,597,ls),
(324,657,o),
(281,700,o),
(220,700,cs),
(96,700,l),
(96,672,l),
(217,672,ls),
(262,672,o),
(294,638,o),
(294,593,cs),
(294,13,l)
);
},
{
closed = 1;
nodes = (
(531,0,l),
(531,28,l),
(87,28,l),
(87,0,l)
);
}
);
userData = {
RMXScaler = {
monoWidth = 600;
};
};
width = 600;
},
{
hints = (
{
horizontal = 1;
origin = (1,3);
target = (1,2);
type = Stem;
},
{
horizontal = 1;
origin = (0,5);
target = (0,7);
type = Stem;
},
{
origin = (0,11);
target = (0,1);
type = Stem;
}
);
layerId = "413C4000-F51E-49A0-99E6-BF5D502A191B";
shapes = (
{
closed = 1;
nodes = (
(427,74,l),
(427,560,ls),
(427,642,o),
(368,700,o),
(288,700,cs),
(75,700,l),
(75,505,l),
(205,505,ls),
(213,505,o),
(219,499,o),
(219,491,cs),
(219,74,l)
);
},
{
closed = 1;
nodes = (
(551,0,l),
(551,195,l),
(75,195,l),
(75,0,l)
);
}
);
userData = {
RMXScaler = {
monoWidth = 600;
};
};
width = 600;
},
{
hints = (
{
horizontal = 1;
origin = (1,3);
target = (1,2);
type = Stem;
},
{
horizontal = 1;
origin = (0,5);
target = (0,7);
type = Stem;
},
{
origin = (0,11);
target = (0,1);
type = Stem;
}
);
layerId = "9E4DF390-DC64-4DFF-9707-6073A03EA565";
shapes = (
{
closed = 1;
nodes = (
(397,56,l),
(397,579,ls),
(397,649,o),
(346,700,o),
(276,700,cs),
(82,700,l),
(82,555,l),
(231,555,ls),
(239,555,o),
(242,552,o),
(242,544,cs),
(242,56,l)
);
},
{
closed = 1;
nodes = (
(546,0,l),
(546,145,l),
(89,145,l),
(89,0,l)
);
}
);
userData = {
RMXScaler = {
source = one;
};
};
width = 600;
}
);
unicode = 49;
userData = {
RMXScaler = {
source = one;
};
};
},
{
glyphname = two;
lastChange = "2025-08-05 18:36:18 +0000";
layers = (
{
layerId = "7A502162-43D8-4289-B728-53226767971B";
shapes = (
{
closed = 1;
nodes = (
(520,0,l),
(520,28,l),
(114,28,l),
(117,22,l),
(375,283,ls),
(476,386,o),
(494,450,o),
(494,509,cs),
(494,631,o),
(419,710,o),
(291,710,cs),
(210,710,o),
(129,664,o),
(82,586,c),
(104,568,l),
(147,639,o),
(218,681,o),
(291,681,cs),
(397,681,o),
(464,618,o),
(464,508,cs),
(464,453,o),
(446,395,o),
(353,302,cs),
(78,23,l),
(78,0,l)
);
}
);
userData = {
RMXScaler = {
monoWidth = 600;
useSpacing = 80;
};
};
width = 600;
},
{
hints = (
{
horizontal = 1;
origin = (0,25);
target = (0,2);
type = Stem;
},
{
horizontal = 1;
origin = (0,10);
target = (0,17);
type = Stem;
},
{
origin = (0,7);
target = (0,20);
type = Stem;
}
);
layerId = "413C4000-F51E-49A0-99E6-BF5D502A191B";
shapes = (
{
closed = 1;
nodes = (
(560,0,l),
(560,195,l),
(279,195,l),
(287,132,l),
(417,253,ls),
(492,323,o),
(536,410,o),
(536,494,cs),
(536,624,o),
(436,710,o),
(287,710,cs),
(170,710,o),
(88,656,o),
(28,572,c),
(163,440,l),
(201,485,o),
(228,509,o),
(267,509,cs),
(299,509,o),
(316,491,o),
(316,461,cs),
(316,435,o),
(306,407,o),
(270,373,cs),
(46,157,l),
(46,0,l)
);
}
);
userData = {
RMXScaler = {
monoWidth = 600;
useSpacing = 80;
};
};
width = 600;
},
{
hints = (
{
horizontal = 1;
origin = (0,25);
target = (0,2);
type = Stem;
},
{
horizontal = 1;
origin = (0,10);
target = (0,17);
type = Stem;
},
{
origin = (0,7);
target = (0,20);
type = Stem;
}
);
layerId = "9E4DF390-DC64-4DFF-9707-6073A03EA565";
shapes = (
{
closed = 1;
nodes = (
(548,0,l),
(548,142,l),
(229,142,l),
(236,99,l),
(399,262,ls),
(480,343,o),
(518,421,o),
(518,500,cs),
(518,623,o),
(418,710,o),
(279,710,cs),
(175,710,o),
(95,658,o),
(39,576,c),
(140,476,l),
(182,532,o),
(220,561,o),
(273,561,cs),
(324,561,o),
(356,528,o),
(356,483,cs),
(356,438,o),
(334,398,o),
(289,352,cs),
(55,117,l),
(55,0,l)
);
}
);
userData = {
RMXScaler = {
monoWidth = 600;
};
};
width = 600;
}
);
unicode = 50;
userData = {
RMXScaler = {
source = two;
};
};
},
